G04 DipTrace 2.4.0.2*
%INBottomDimension.gbr*%
%MOIN*%
%ADD13C,0.0015*%
%ADD71C,0.0062*%
%FSLAX44Y44*%
G04*
G70*
G90*
G75*
G01*
%LNBotDimension*%
%LPD*%
X6440Y23690D2*
D13*
X2743D1*
X7440Y22190D2*
X2743D1*
X2940Y23690D2*
Y22190D1*
Y24281D2*
Y24084D1*
G36*
Y23690D2*
X2861Y24084D1*
X3019D1*
X2940Y23690D1*
G37*
Y21599D2*
D13*
Y21796D1*
G36*
Y22190D2*
X3019Y21796D1*
X2861D1*
X2940Y22190D1*
G37*
X7440D2*
D13*
Y26137D1*
X6440Y23690D2*
Y26137D1*
Y25940D2*
X7440D1*
X5849D2*
X6046D1*
G36*
X6440D2*
X6046Y25861D1*
Y26019D1*
X6440Y25940D1*
G37*
X8031D2*
D13*
X7834D1*
G36*
X7440D2*
X7834Y26019D1*
Y25861D1*
X7440Y25940D1*
G37*
X2416Y23376D2*
D71*
X2435Y23434D1*
X2493Y23472D1*
X2588Y23491D1*
X2646D1*
X2741Y23472D1*
X2799Y23434D1*
X2818Y23376D1*
Y23338D1*
X2799Y23281D1*
X2741Y23243D1*
X2646Y23223D1*
X2588D1*
X2493Y23243D1*
X2435Y23281D1*
X2416Y23338D1*
Y23376D1*
X2493Y23243D2*
X2741Y23472D1*
X2779Y23081D2*
X2799Y23100D1*
X2818Y23081D1*
X2799Y23061D1*
X2779Y23081D1*
X2493Y22938D2*
X2473Y22899D1*
X2416Y22842D1*
X2818D1*
X2416Y22489D2*
Y22680D1*
X2588Y22699D1*
X2569Y22680D1*
X2550Y22622D1*
Y22565D1*
X2569Y22508D1*
X2607Y22469D1*
X2665Y22450D1*
X2703D1*
X2760Y22469D1*
X2799Y22508D1*
X2818Y22565D1*
Y22622D1*
X2799Y22680D1*
X2779Y22699D1*
X2741Y22718D1*
X7181Y26464D2*
X7238Y26445D1*
X7277Y26387D1*
X7296Y26292D1*
Y26234D1*
X7277Y26139D1*
X7238Y26081D1*
X7181Y26062D1*
X7143D1*
X7085Y26081D1*
X7047Y26139D1*
X7028Y26234D1*
Y26292D1*
X7047Y26387D1*
X7085Y26445D1*
X7143Y26464D1*
X7181D1*
X7047Y26387D2*
X7277Y26139D1*
X6885Y26101D2*
X6904Y26081D1*
X6885Y26062D1*
X6866Y26081D1*
X6885Y26101D1*
X6742Y26387D2*
X6704Y26407D1*
X6646Y26464D1*
Y26062D1*
M02*
