G04 DipTrace 2.4.0.2*
%INBottomSilk.gbr*%
%MOIN*%
%ADD10C,0.0098*%
%ADD70C,0.0046*%
%FSLAX44Y44*%
G04*
G70*
G90*
G75*
G01*
%LNBotSilk*%
%LPD*%
X4940Y23190D2*
D10*
X6940D1*
Y25190D1*
X4940D1*
Y23190D1*
X6842Y20690D2*
X30038D1*
Y22690D1*
X6842D1*
Y20690D1*
X6495Y25629D2*
D70*
Y25328D1*
X6366D1*
X6323Y25342D1*
X6309Y25357D1*
X6294Y25385D1*
Y25428D1*
X6309Y25457D1*
X6323Y25471D1*
X6366Y25486D1*
X6323Y25500D1*
X6309Y25515D1*
X6294Y25543D1*
Y25572D1*
X6309Y25600D1*
X6323Y25615D1*
X6366Y25629D1*
X6495D1*
Y25486D2*
X6366D1*
X5972Y25328D2*
X6087Y25629D1*
X6202Y25328D1*
X6159Y25428D2*
X6015D1*
X5779Y25629D2*
Y25328D1*
X5879Y25629D2*
X5678D1*
X5485D2*
Y25328D1*
X5586Y25629D2*
X5385D1*
X18680Y22971D2*
X18551D1*
X18508Y22986D1*
X18493Y23000D1*
X18479Y23029D1*
Y23072D1*
X18493Y23100D1*
X18508Y23115D1*
X18551Y23129D1*
X18680D1*
Y22828D1*
X18200Y23029D2*
X18214Y22986D1*
X18243Y22957D1*
X18286Y22943D1*
X18300D1*
X18343Y22957D1*
X18372Y22986D1*
X18387Y23029D1*
Y23043D1*
X18372Y23086D1*
X18343Y23115D1*
X18300Y23129D1*
X18286D1*
X18243Y23115D1*
X18214Y23086D1*
X18200Y23029D1*
Y22957D1*
X18214Y22885D1*
X18243Y22842D1*
X18286Y22828D1*
X18315D1*
X18358Y22842D1*
X18372Y22871D1*
M02*
