G04 DipTrace 2.4.0.2*
%INBottomMask.gbr*%
%MOIN*%
%ADD35C,0.125*%
%ADD44C,0.234*%
%ADD50C,0.0631*%
%ADD56C,0.0678*%
%ADD58R,0.0678X0.0678*%
%ADD62C,0.0709*%
%ADD64R,0.0709X0.0709*%
%ADD66C,0.094*%
%ADD68R,0.094X0.094*%
%FSLAX44Y44*%
G04*
G70*
G90*
G75*
G01*
%LNBotMask*%
%LPD*%
D68*
X6190Y14690D3*
D66*
Y12690D3*
D68*
Y18690D3*
D66*
Y16690D3*
D64*
X5440Y24690D3*
D62*
Y23690D3*
X6440Y24690D3*
Y23690D3*
D58*
X7940D3*
D56*
X8940D3*
X9940D3*
X10940D3*
D58*
X10440Y19628D3*
D56*
X11440D3*
X12440D3*
X13440D3*
X14440D3*
D64*
X13940Y5565D3*
D62*
Y6565D3*
X14940Y5565D3*
Y6565D3*
X15940Y5565D3*
Y6565D3*
X16940Y5565D3*
Y6565D3*
X17940Y5565D3*
Y6565D3*
X18940Y5565D3*
Y6565D3*
X19940Y5565D3*
Y6565D3*
X20940Y5565D3*
Y6565D3*
X21940Y5565D3*
Y6565D3*
X22940Y5565D3*
Y6565D3*
D35*
X31440Y22940D3*
X5440Y21690D3*
D58*
X11002Y11189D3*
D56*
X10002D3*
X9002D3*
D58*
X7744Y5351D3*
D56*
X6744D3*
X5744D3*
X4744D3*
D58*
X22690Y23690D3*
D56*
X23690D3*
X24690D3*
D58*
X14815D3*
D56*
X15815D3*
D58*
X18190D3*
D56*
X19190D3*
X20190D3*
X21190D3*
D58*
X12627D3*
D56*
X13627D3*
D64*
X9440Y13378D3*
D62*
Y14378D3*
X10440Y13378D3*
Y14378D3*
X11440Y13378D3*
Y14378D3*
X12440Y13378D3*
Y14378D3*
D56*
X7440Y22190D3*
X8440D3*
X9440D3*
X10440D3*
X11440D3*
X12440D3*
X13440D3*
X14440D3*
X15440D3*
X16440D3*
X17440D3*
X18440D3*
X19440D3*
X20440D3*
X21440D3*
X22440D3*
X23440D3*
X24440D3*
X25440D3*
X26440D3*
X27440D3*
X28440D3*
X29440D3*
Y21190D3*
X28440D3*
X27440D3*
X26440D3*
X25440D3*
X24440D3*
X23440D3*
X22440D3*
X21440D3*
X20440D3*
X19440D3*
X18440D3*
X17440D3*
X16440D3*
X15440D3*
X14440D3*
X13440D3*
X12440D3*
X11440D3*
X10440D3*
X9440D3*
X8440D3*
D58*
X7440D3*
D50*
X29440Y18690D3*
X27440Y12690D3*
X28440D3*
X29440D3*
X30440D3*
X31440D3*
X32440D3*
X28440Y18690D3*
Y19690D3*
X29440D3*
X27440Y13690D3*
X28440D3*
X29440D3*
X30440D3*
X31440D3*
X32440D3*
X25440Y11690D3*
X26440D3*
X27440D3*
X28440D3*
X29440D3*
X30440D3*
X31440D3*
X32440D3*
X25440Y10690D3*
X26440D3*
X27440D3*
X28440D3*
X29440D3*
X30440D3*
X31440D3*
X32440D3*
X25440Y9690D3*
X26440D3*
X27440D3*
X28440D3*
X29440D3*
X30440D3*
X31440D3*
X32440D3*
X25440Y8690D3*
X26440D3*
X27440D3*
X28440D3*
X29440D3*
X30440D3*
X31440D3*
X32440D3*
X25440Y7690D3*
X26440D3*
X27440D3*
X28440D3*
X29440D3*
X30440D3*
X31440D3*
X32440D3*
X28440Y6690D3*
X29440D3*
X30440D3*
X31440D3*
X32440D3*
X28440Y5690D3*
X29440D3*
X30440D3*
X31440D3*
X32440D3*
X28440Y4690D3*
X29440D3*
X30440D3*
X31440D3*
X32440D3*
X28440Y14690D3*
X29440D3*
X30440D3*
X31440D3*
X32440D3*
X28440Y15690D3*
X29440D3*
X30440D3*
X31440D3*
X32440D3*
X28440Y16690D3*
X29440D3*
X30440D3*
X31440D3*
X32440D3*
X28440Y17690D3*
X29440D3*
X30440D3*
X31440D3*
X32440D3*
X25440Y12690D3*
X26440D3*
X30440Y18690D3*
X31440D3*
X32440D3*
X25440Y13690D3*
X26440D3*
X30440Y19690D3*
X31440D3*
X32440D3*
X24440Y8690D3*
Y7690D3*
X23440Y8690D3*
Y7690D3*
D44*
X26690Y5565D3*
X10190D3*
D58*
X16440Y19628D3*
D56*
X17440D3*
X18440D3*
M02*
