M48
INCH
T01C0.012
T02C0.0354
T03C0.0402
T04C0.0433
T05C0.045
T06C0.125
T07C0.1299
%
T01
X+021690Y+016940
X+021690Y+016690
X+021065Y+014940
X+020190Y+015378
X+019253Y+015065
X+017815Y+015377
X+017065Y+015002
X+016440Y+014002
X+015940Y+014253
X+014940Y+013315
X+013377Y+013377
X+013064Y+013814
X+015441Y+016191
X+015441Y+017688
X+015752Y+018878
X+016690Y+018190
X+017252Y+018878
X+018315Y+017815
X+019815Y+017940
X+020315Y+019565
X+020315Y+020065
X+021440Y+019502
X+021315Y+019127
X+023565Y+017940
X+025065Y+017940
X+025190Y+016940
X+026940Y+016940
X+026940Y+016690
X+026065Y+019190
X+025565Y+019190
X+026065Y+020065
X+026065Y+020440
X+024940Y+022752
X+021565Y+022940
X+016690Y+017065
X+013440Y+018190
X+013190Y+018503
X+011939Y+018190
X+011690Y+018502
X+010439Y+018190
X+010190Y+018502
X+008940Y+018190
X+007190Y+010252
X+006690Y+010251
X+008190Y+009940
X+008440Y+009940
X+008690Y+009940
X+010938Y+008438
X+010877Y+007376
X+012627Y+008189
X+012627Y+008439
X+012627Y+008689
X+017940Y+011065
X+018253Y+011065
X+018565Y+011065
X+018440Y+012440
X+018190Y+012440
X+017940Y+012440
X+019690Y+010065
X+020190Y+010065
X+023190Y+011065
X+023503Y+011065
X+023815Y+011065
X+023690Y+012440
X+023440Y+012440
X+023190Y+012440
X+021690Y+013565
X+021190Y+013565
X+020690Y+013565
X+023690Y+015565
T02
X+029440Y+018690
X+028440Y+018690
X+028440Y+019690
X+029440Y+019690
X+030440Y+019690
X+030440Y+018690
X+030440Y+017690
X+030440Y+016690
X+030440Y+015690
X+030440Y+014690
X+030440Y+013690
X+030440Y+012690
X+030440Y+011690
X+030440Y+010690
X+029440Y+010690
X+029440Y+011690
X+028440Y+011690
X+028440Y+010690
X+027440Y+010690
X+027440Y+011690
X+026440Y+011690
X+026440Y+010690
X+025440Y+010690
X+025440Y+011690
X+025440Y+012690
X+026440Y+012690
X+027440Y+012690
X+027440Y+013690
X+026440Y+013690
X+025440Y+013690
X+028440Y+013690
X+029440Y+013690
X+029440Y+014690
X+028440Y+014690
X+028440Y+015690
X+029440Y+015690
X+029440Y+016690
X+028440Y+016690
X+028440Y+017690
X+029440Y+017690
X+031440Y+017690
X+031440Y+018690
X+031440Y+019690
X+032440Y+019690
X+032440Y+018690
X+032440Y+017690
X+032440Y+016690
X+032440Y+015690
X+032440Y+014690
X+032440Y+013690
X+032440Y+012690
X+032440Y+011690
X+032440Y+010690
X+032440Y+009690
X+032440Y+008690
X+032440Y+007690
X+032440Y+006690
X+031440Y+006690
X+031440Y+007690
X+031440Y+008690
X+031440Y+009690
X+030440Y+009690
X+029440Y+009690
X+028440Y+009690
X+027440Y+009690
X+026440Y+009690
X+025440Y+009690
X+025440Y+008690
X+026440Y+008690
X+027440Y+008690
X+027440Y+007690
X+026440Y+007690
X+025440Y+007690
X+024440Y+007690
X+023440Y+007690
X+023440Y+008690
X+024440Y+008690
X+028440Y+008690
X+029440Y+008690
X+030440Y+008690
X+030440Y+007690
X+030440Y+006690
X+029440Y+006690
X+028440Y+006690
X+028440Y+007690
X+029440Y+007690
X+029440Y+005690
X+028440Y+005690
X+028440Y+004690
X+029440Y+004690
X+030440Y+004690
X+030440Y+005690
X+031440Y+005690
X+031440Y+004690
X+032440Y+004690
X+032440Y+005690
X+031440Y+010690
X+031440Y+011690
X+031440Y+012690
X+031440Y+013690
X+031440Y+014690
X+031440Y+015690
X+031440Y+016690
X+029440Y+012690
X+028440Y+012690
T03
X+007940Y+023690
X+008940Y+023690
X+009940Y+023690
X+010940Y+023690
X+011440Y+022190
X+010440Y+022190
X+009440Y+022190
X+008440Y+022190
X+007440Y+022190
X+007440Y+021190
X+008440Y+021190
X+009440Y+021190
X+010440Y+021190
X+011440Y+021190
X+012440Y+021190
X+013440Y+021190
X+013440Y+022190
X+012440Y+022190
X+012627Y+023690
X+013627Y+023690
X+014815Y+023690
X+015815Y+023690
X+015440Y+022190
X+014440Y+022190
X+014440Y+021190
X+015440Y+021190
X+016440Y+021190
X+016440Y+022190
X+017440Y+022190
X+018440Y+022190
X+019440Y+022190
X+020440Y+022190
X+021440Y+022190
X+022440Y+022190
X+023440Y+022190
X+024440Y+022190
X+025440Y+022190
X+026440Y+022190
X+027440Y+022190
X+028440Y+022190
X+029440Y+022190
X+029440Y+021190
X+028440Y+021190
X+027440Y+021190
X+026440Y+021190
X+025440Y+021190
X+024440Y+021190
X+023440Y+021190
X+022440Y+021190
X+021440Y+021190
X+020440Y+021190
X+019440Y+021190
X+018440Y+021190
X+017440Y+021190
X+017440Y+019628
X+016440Y+019628
X+018440Y+019628
X+014440Y+019628
X+013440Y+019628
X+012440Y+019628
X+011440Y+019628
X+010440Y+019628
X+010002Y+011189
X+011002Y+011189
X+009002Y+011189
X+007744Y+005351
X+006744Y+005351
X+005744Y+005351
X+004744Y+005351
X+018190Y+023690
X+019190Y+023690
X+020190Y+023690
X+021190Y+023690
X+022690Y+023690
X+023690Y+023690
X+024690Y+023690
T04
X+005440Y+024690
X+005440Y+023690
X+006440Y+023690
X+006440Y+024690
X+009440Y+014378
X+010440Y+014378
X+010440Y+013378
X+009440Y+013378
X+011440Y+013378
X+012440Y+013378
X+012440Y+014378
X+011440Y+014378
X+013940Y+006565
X+014940Y+006565
X+014940Y+005565
X+013940Y+005565
X+015940Y+005565
X+016940Y+005565
X+017940Y+005565
X+017940Y+006565
X+016940Y+006565
X+015940Y+006565
X+018940Y+006565
X+019940Y+006565
X+020940Y+006565
X+020940Y+005565
X+019940Y+005565
X+018940Y+005565
X+021940Y+005565
X+022940Y+005565
X+022940Y+006565
X+021940Y+006565
T05
X+006190Y+014690
X+006190Y+012690
X+006190Y+016690
X+006190Y+018690
T06
X+031440Y+022940
X+005440Y+021690
T07
X+026690Y+005565
X+010190Y+005565
T00
M30
