G04 DipTrace 2.4.0.2*
%INTopDimension.gbr*%
%MOIN*%
%ADD13C,0.0015*%
%ADD71C,0.0062*%
%FSLAX44Y44*%
G04*
G70*
G90*
G75*
G01*
%LNTopDimension*%
%LPD*%
X22940Y9815D2*
D13*
Y1493D1*
X26690Y9815D2*
Y1493D1*
X24815Y1690D2*
X23334D1*
G36*
X22940D2*
X23334Y1769D1*
Y1611D1*
X22940Y1690D1*
G37*
X24815D2*
D13*
X26296D1*
G36*
X26690D2*
X26296Y1611D1*
Y1769D1*
X26690Y1690D1*
G37*
Y9815D2*
D13*
Y2618D1*
X10190Y9815D2*
Y2618D1*
X18440Y2815D2*
X26296D1*
G36*
X26690D2*
X26296Y2736D1*
Y2894D1*
X26690Y2815D1*
G37*
X18440D2*
D13*
X10584D1*
G36*
X10190D2*
X10584Y2894D1*
Y2736D1*
X10190Y2815D1*
G37*
X5440Y21690D2*
D13*
Y27387D1*
X7440Y21190D2*
Y27387D1*
X6440Y27190D2*
X5834D1*
G36*
X5440D2*
X5834Y27269D1*
Y27111D1*
X5440Y27190D1*
G37*
X6440D2*
D13*
X7046D1*
G36*
X7440D2*
X7046Y27111D1*
Y27269D1*
X7440Y27190D1*
G37*
X31440Y22940D2*
D13*
X34137D1*
X29440Y22190D2*
X34137D1*
X33940Y22940D2*
Y22190D1*
Y23531D2*
Y23334D1*
G36*
Y22940D2*
X33861Y23334D1*
X34019D1*
X33940Y22940D1*
G37*
Y21599D2*
D13*
Y21796D1*
G36*
Y22190D2*
X34019Y21796D1*
X33861D1*
X33940Y22190D1*
G37*
Y20192D2*
D13*
Y22940D1*
X29440Y22190D2*
Y23887D1*
X31440Y22940D2*
Y23887D1*
X30440Y23690D2*
X29834D1*
G36*
X29440D2*
X29834Y23769D1*
Y23611D1*
X29440Y23690D1*
G37*
X30440D2*
D13*
X31046D1*
G36*
X31440D2*
X31046Y23611D1*
Y23769D1*
X31440Y23690D1*
G37*
Y22940D2*
D13*
X34887D1*
X31690Y18440D2*
X34887D1*
X34690Y20690D2*
Y22546D1*
G36*
Y22940D2*
X34769Y22546D1*
X34611D1*
X34690Y22940D1*
G37*
Y20690D2*
D13*
Y18834D1*
G36*
Y18440D2*
X34611Y18834D1*
X34769D1*
X34690Y18440D1*
G37*
X5440Y21690D2*
D13*
Y28012D1*
X31440Y22940D2*
Y28012D1*
X18440Y27815D2*
X5834D1*
G36*
X5440D2*
X5834Y27894D1*
Y27736D1*
X5440Y27815D1*
G37*
X18440D2*
D13*
X31046D1*
G36*
X31440D2*
X31046Y27736D1*
Y27894D1*
X31440Y27815D1*
G37*
X24159Y2214D2*
D71*
X24101Y2195D1*
X24063Y2137D1*
X24044Y2042D1*
Y1984D1*
X24063Y1889D1*
X24101Y1831D1*
X24159Y1812D1*
X24197D1*
X24254Y1831D1*
X24292Y1889D1*
X24312Y1984D1*
Y2042D1*
X24292Y2137D1*
X24254Y2195D1*
X24197Y2214D1*
X24159D1*
X24292Y2137D2*
X24063Y1889D1*
X24454Y1851D2*
X24435Y1831D1*
X24454Y1812D1*
X24474Y1831D1*
X24454Y1851D1*
X24636Y2214D2*
X24846D1*
X24731Y2061D1*
X24789D1*
X24827Y2042D1*
X24846Y2023D1*
X24865Y1965D1*
Y1927D1*
X24846Y1870D1*
X24808Y1831D1*
X24750Y1812D1*
X24693D1*
X24636Y1831D1*
X24617Y1851D1*
X24597Y1889D1*
X25065Y1812D2*
X25257Y2214D1*
X24989D1*
X25610D2*
X25419D1*
X25400Y2042D1*
X25419Y2061D1*
X25476Y2080D1*
X25533D1*
X25591Y2061D1*
X25629Y2023D1*
X25648Y1965D1*
Y1927D1*
X25629Y1870D1*
X25591Y1831D1*
X25533Y1812D1*
X25476D1*
X25419Y1831D1*
X25400Y1851D1*
X25380Y1889D1*
X17960Y3262D2*
X17999Y3282D1*
X18056Y3339D1*
Y2937D1*
X18199Y2976D2*
X18180Y2956D1*
X18199Y2937D1*
X18218Y2956D1*
X18199Y2976D1*
X18571Y3282D2*
X18552Y3320D1*
X18495Y3339D1*
X18457D1*
X18399Y3320D1*
X18361Y3262D1*
X18342Y3167D1*
Y3071D1*
X18361Y2995D1*
X18399Y2956D1*
X18457Y2937D1*
X18476D1*
X18533Y2956D1*
X18571Y2995D1*
X18590Y3052D1*
Y3071D1*
X18571Y3129D1*
X18533Y3167D1*
X18476Y3186D1*
X18457D1*
X18399Y3167D1*
X18361Y3129D1*
X18342Y3071D1*
X18943Y3339D2*
X18752D1*
X18733Y3167D1*
X18752Y3186D1*
X18810Y3205D1*
X18867D1*
X18924Y3186D1*
X18963Y3148D1*
X18982Y3090D1*
Y3052D1*
X18963Y2995D1*
X18924Y2956D1*
X18867Y2937D1*
X18810D1*
X18752Y2956D1*
X18733Y2976D1*
X18714Y3014D1*
X6175Y27714D2*
X6118Y27695D1*
X6079Y27637D1*
X6060Y27542D1*
Y27484D1*
X6079Y27389D1*
X6118Y27331D1*
X6175Y27312D1*
X6213D1*
X6271Y27331D1*
X6309Y27389D1*
X6328Y27484D1*
Y27542D1*
X6309Y27637D1*
X6271Y27695D1*
X6213Y27714D1*
X6175D1*
X6309Y27637D2*
X6079Y27389D1*
X6471Y27351D2*
X6452Y27331D1*
X6471Y27312D1*
X6490Y27331D1*
X6471Y27351D1*
X6633Y27618D2*
Y27637D1*
X6652Y27676D1*
X6671Y27695D1*
X6710Y27714D1*
X6786D1*
X6824Y27695D1*
X6843Y27676D1*
X6863Y27637D1*
Y27599D1*
X6843Y27561D1*
X6805Y27504D1*
X6614Y27312D1*
X6882D1*
X34464Y21589D2*
X34445Y21646D1*
X34387Y21685D1*
X34292Y21704D1*
X34234D1*
X34139Y21685D1*
X34081Y21646D1*
X34062Y21589D1*
Y21551D1*
X34081Y21493D1*
X34139Y21455D1*
X34234Y21436D1*
X34292D1*
X34387Y21455D1*
X34445Y21493D1*
X34464Y21551D1*
Y21589D1*
X34387Y21455D2*
X34139Y21685D1*
X34101Y21293D2*
X34081Y21312D1*
X34062Y21293D1*
X34081Y21274D1*
X34101Y21293D1*
X34464Y21035D2*
X34445Y21093D1*
X34387Y21131D1*
X34292Y21150D1*
X34234D1*
X34139Y21131D1*
X34081Y21093D1*
X34062Y21035D1*
Y20997D1*
X34081Y20940D1*
X34139Y20902D1*
X34234Y20882D1*
X34292D1*
X34387Y20902D1*
X34445Y20940D1*
X34464Y20997D1*
Y21035D1*
X34387Y20902D2*
X34139Y21131D1*
X34062Y20682D2*
X34464Y20491D1*
Y20759D1*
Y20138D2*
Y20329D1*
X34292Y20348D1*
X34311Y20329D1*
X34330Y20271D1*
Y20214D1*
X34311Y20157D1*
X34273Y20118D1*
X34215Y20099D1*
X34177D1*
X34120Y20118D1*
X34081Y20157D1*
X34062Y20214D1*
Y20271D1*
X34081Y20329D1*
X34101Y20348D1*
X34139Y20367D1*
X30175Y24214D2*
X30118Y24195D1*
X30079Y24137D1*
X30060Y24042D1*
Y23984D1*
X30079Y23889D1*
X30118Y23831D1*
X30175Y23812D1*
X30213D1*
X30271Y23831D1*
X30309Y23889D1*
X30328Y23984D1*
Y24042D1*
X30309Y24137D1*
X30271Y24195D1*
X30213Y24214D1*
X30175D1*
X30309Y24137D2*
X30079Y23889D1*
X30471Y23851D2*
X30452Y23831D1*
X30471Y23812D1*
X30490Y23831D1*
X30471Y23851D1*
X30633Y24118D2*
Y24137D1*
X30652Y24176D1*
X30671Y24195D1*
X30710Y24214D1*
X30786D1*
X30824Y24195D1*
X30843Y24176D1*
X30863Y24137D1*
Y24099D1*
X30843Y24061D1*
X30805Y24004D1*
X30614Y23812D1*
X30882D1*
X35214Y21160D2*
X35195Y21218D1*
X35137Y21256D1*
X35042Y21275D1*
X34984D1*
X34889Y21256D1*
X34831Y21218D1*
X34812Y21160D1*
Y21122D1*
X34831Y21065D1*
X34889Y21027D1*
X34984Y21007D1*
X35042D1*
X35137Y21027D1*
X35195Y21065D1*
X35214Y21122D1*
Y21160D1*
X35137Y21027D2*
X34889Y21256D1*
X34851Y20865D2*
X34831Y20884D1*
X34812Y20865D1*
X34831Y20845D1*
X34851Y20865D1*
X34812Y20530D2*
X35214D1*
X34946Y20722D1*
Y20435D1*
X35214Y20082D2*
Y20273D1*
X35042Y20292D1*
X35061Y20273D1*
X35080Y20215D1*
Y20158D1*
X35061Y20101D1*
X35023Y20062D1*
X34965Y20043D1*
X34927D1*
X34870Y20062D1*
X34831Y20101D1*
X34812Y20158D1*
Y20215D1*
X34831Y20273D1*
X34851Y20292D1*
X34889Y20311D1*
X18089Y28243D2*
Y28262D1*
X18108Y28301D1*
X18127Y28320D1*
X18166Y28339D1*
X18242D1*
X18280Y28320D1*
X18299Y28301D1*
X18319Y28262D1*
Y28224D1*
X18299Y28186D1*
X18261Y28129D1*
X18070Y27937D1*
X18338D1*
X18480Y27976D2*
X18461Y27956D1*
X18480Y27937D1*
X18500Y27956D1*
X18480Y27976D1*
X18853Y28282D2*
X18834Y28320D1*
X18776Y28339D1*
X18738D1*
X18681Y28320D1*
X18642Y28262D1*
X18623Y28167D1*
Y28071D1*
X18642Y27995D1*
X18681Y27956D1*
X18738Y27937D1*
X18757D1*
X18814Y27956D1*
X18853Y27995D1*
X18872Y28052D1*
Y28071D1*
X18853Y28129D1*
X18814Y28167D1*
X18757Y28186D1*
X18738D1*
X18681Y28167D1*
X18642Y28129D1*
X18623Y28071D1*
M02*
