G04 DipTrace 2.4.0.2*
%INTopMask.gbr*%
%MOIN*%
%ADD35C,0.125*%
%ADD44C,0.234*%
%ADD46R,0.0375X0.0434*%
%ADD48R,0.0197X0.0394*%
%ADD50C,0.0631*%
%ADD52R,0.0552X0.0631*%
%ADD54R,0.0276X0.0827*%
%ADD56C,0.0678*%
%ADD58R,0.0678X0.0678*%
%ADD60R,0.0631X0.0552*%
%ADD62C,0.0709*%
%ADD64R,0.0709X0.0709*%
%ADD66C,0.094*%
%ADD68R,0.094X0.094*%
%FSLAX44Y44*%
G04*
G70*
G90*
G75*
G01*
%LNTopMask*%
%LPD*%
D68*
X6190Y14690D3*
D66*
Y12690D3*
D68*
Y18690D3*
D66*
Y16690D3*
D64*
X5440Y24690D3*
D62*
Y23690D3*
X6440Y24690D3*
Y23690D3*
D60*
X5565Y8252D3*
Y7503D3*
X8440Y9377D3*
Y8628D3*
X23533Y9864D3*
Y10612D3*
X18283Y9864D3*
Y10612D3*
X23533Y13612D3*
Y12864D3*
X18283Y13612D3*
Y12864D3*
X27066Y15441D3*
Y16189D3*
X21815Y15440D3*
Y16188D3*
D58*
X7940Y23690D3*
D56*
X8940D3*
X9940D3*
X10940D3*
D58*
X10440Y19628D3*
D56*
X11440D3*
X12440D3*
X13440D3*
X14440D3*
D64*
X13940Y5565D3*
D62*
Y6565D3*
X14940Y5565D3*
Y6565D3*
X15940Y5565D3*
Y6565D3*
X16940Y5565D3*
Y6565D3*
X17940Y5565D3*
Y6565D3*
X18940Y5565D3*
Y6565D3*
X19940Y5565D3*
Y6565D3*
X20940Y5565D3*
Y6565D3*
X21940Y5565D3*
Y6565D3*
X22940Y5565D3*
Y6565D3*
D35*
X31440Y22940D3*
X5440Y21690D3*
D58*
X11002Y11189D3*
D56*
X10002D3*
X9002D3*
D54*
X17440Y12753D3*
X16940D3*
X16440D3*
X15940D3*
X15440D3*
X14940D3*
X14440D3*
X13940D3*
Y10627D3*
X14440D3*
X14940D3*
X15440D3*
X15940D3*
X16440D3*
X16940D3*
X17440D3*
X22690Y12753D3*
X22190D3*
X21690D3*
X21190D3*
X20690D3*
X20190D3*
X19690D3*
X19190D3*
Y10627D3*
X19690D3*
X20190D3*
X20690D3*
X21190D3*
X21690D3*
X22190D3*
X22690D3*
X7690Y9628D3*
X7190D3*
X6690D3*
X6190D3*
Y7502D3*
X6690D3*
X7190D3*
X7690D3*
X26565Y18503D3*
X26065D3*
X25565D3*
X25065D3*
X24565D3*
X24065D3*
X23565D3*
X23065D3*
Y16377D3*
X23565D3*
X24065D3*
X24565D3*
X25065D3*
X25565D3*
X26065D3*
X26565D3*
X21315Y18503D3*
X20815D3*
X20315D3*
X19815D3*
X19315D3*
X18815D3*
X18315D3*
X17815D3*
Y16377D3*
X18315D3*
X18815D3*
X19315D3*
X19815D3*
X20315D3*
X20815D3*
X21315D3*
D58*
X7744Y5351D3*
D56*
X6744D3*
X5744D3*
X4744D3*
D60*
X4440Y23940D3*
Y24688D3*
D52*
X12188Y8438D3*
X11440D3*
X12189Y7376D3*
X11441D3*
D58*
X22690Y23690D3*
D56*
X23690D3*
X24690D3*
D58*
X14815D3*
D56*
X15815D3*
D58*
X18190D3*
D56*
X19190D3*
X20190D3*
X21190D3*
D58*
X12627D3*
D56*
X13627D3*
D64*
X9440Y13378D3*
D62*
Y14378D3*
X10440Y13378D3*
Y14378D3*
X11440Y13378D3*
Y14378D3*
X12440Y13378D3*
Y14378D3*
D56*
X7440Y22190D3*
X8440D3*
X9440D3*
X10440D3*
X11440D3*
X12440D3*
X13440D3*
X14440D3*
X15440D3*
X16440D3*
X17440D3*
X18440D3*
X19440D3*
X20440D3*
X21440D3*
X22440D3*
X23440D3*
X24440D3*
X25440D3*
X26440D3*
X27440D3*
X28440D3*
X29440D3*
Y21190D3*
X28440D3*
X27440D3*
X26440D3*
X25440D3*
X24440D3*
X23440D3*
X22440D3*
X21440D3*
X20440D3*
X19440D3*
X18440D3*
X17440D3*
X16440D3*
X15440D3*
X14440D3*
X13440D3*
X12440D3*
X11440D3*
X10440D3*
X9440D3*
X8440D3*
D58*
X7440D3*
D50*
X29440Y18690D3*
X27440Y12690D3*
X28440D3*
X29440D3*
X30440D3*
X31440D3*
X32440D3*
X28440Y18690D3*
Y19690D3*
X29440D3*
X27440Y13690D3*
X28440D3*
X29440D3*
X30440D3*
X31440D3*
X32440D3*
X25440Y11690D3*
X26440D3*
X27440D3*
X28440D3*
X29440D3*
X30440D3*
X31440D3*
X32440D3*
X25440Y10690D3*
X26440D3*
X27440D3*
X28440D3*
X29440D3*
X30440D3*
X31440D3*
X32440D3*
X25440Y9690D3*
X26440D3*
X27440D3*
X28440D3*
X29440D3*
X30440D3*
X31440D3*
X32440D3*
X25440Y8690D3*
X26440D3*
X27440D3*
X28440D3*
X29440D3*
X30440D3*
X31440D3*
X32440D3*
X25440Y7690D3*
X26440D3*
X27440D3*
X28440D3*
X29440D3*
X30440D3*
X31440D3*
X32440D3*
X28440Y6690D3*
X29440D3*
X30440D3*
X31440D3*
X32440D3*
X28440Y5690D3*
X29440D3*
X30440D3*
X31440D3*
X32440D3*
X28440Y4690D3*
X29440D3*
X30440D3*
X31440D3*
X32440D3*
X28440Y14690D3*
X29440D3*
X30440D3*
X31440D3*
X32440D3*
X28440Y15690D3*
X29440D3*
X30440D3*
X31440D3*
X32440D3*
X28440Y16690D3*
X29440D3*
X30440D3*
X31440D3*
X32440D3*
X28440Y17690D3*
X29440D3*
X30440D3*
X31440D3*
X32440D3*
X25440Y12690D3*
X26440D3*
X30440Y18690D3*
X31440D3*
X32440D3*
X25440Y13690D3*
X26440D3*
X30440Y19690D3*
X31440D3*
X32440D3*
X24440Y8690D3*
Y7690D3*
X23440Y8690D3*
Y7690D3*
D48*
X8946Y17873D3*
X8690D3*
X8434D3*
Y17007D3*
X8690D3*
X8946D3*
X10446Y17873D3*
X10190D3*
X9934D3*
Y17007D3*
X10190D3*
X10446D3*
X11946Y17873D3*
X11690D3*
X11434D3*
Y17007D3*
X11690D3*
X11946D3*
X13446Y17873D3*
X13190D3*
X12934D3*
Y17007D3*
X13190D3*
X13446D3*
D60*
X19190Y24566D3*
Y25314D3*
X20190Y24566D3*
Y25314D3*
X21190Y24566D3*
Y25314D3*
X20190Y14439D3*
Y13691D3*
D46*
X10190Y15377D3*
X10690D3*
X11190D3*
X11690D3*
Y16244D3*
X11190D3*
X10690D3*
X10190D3*
D52*
X10814Y25064D3*
X10066D3*
D46*
X14940Y8757D3*
X15440D3*
X15940D3*
X16440D3*
Y9623D3*
X15940D3*
X15440D3*
X14940D3*
X20690Y8757D3*
X21190D3*
X21690D3*
X22190D3*
Y9623D3*
X21690D3*
X21190D3*
X20690D3*
D52*
X8316Y19127D3*
X9064D3*
X15441Y18190D3*
X16189D3*
X15441Y17065D3*
X16189D3*
D44*
X26690Y5565D3*
X10190D3*
D58*
X16440Y19628D3*
D56*
X17440D3*
X18440D3*
M02*
