G04 DipTrace 2.4.0.2*
%INTopSilk.gbr*%
%MOIN*%
%ADD10C,0.0098*%
%ADD12C,0.001*%
%ADD14C,0.01*%
%ADD29C,0.0154*%
%ADD31O,0.0141X0.0136*%
%ADD70C,0.0046*%
%ADD71C,0.0062*%
%ADD72C,0.0077*%
%FSLAX44Y44*%
G04*
G70*
G90*
G75*
G01*
%LNTopSilk*%
%LPD*%
X7790Y11690D2*
D10*
X4790D1*
Y15690D1*
X7790D1*
Y11690D1*
X5591Y14690D2*
X4790D1*
X5591D2*
X5291Y14990D1*
X5591Y14690D2*
X5291Y14390D1*
X5591Y12690D2*
X4790D1*
X5591D2*
X5291Y12990D1*
X5591Y12690D2*
X5291Y12390D1*
X7790Y15690D2*
X4790D1*
Y19690D1*
X7790D1*
Y15690D1*
X5591Y18690D2*
X4790D1*
X5591D2*
X5291Y18990D1*
X5591Y18690D2*
X5291Y18390D1*
X5591Y16690D2*
X4790D1*
X5591D2*
X5291Y16990D1*
X5591Y16690D2*
X5291Y16390D1*
X5309Y8665D2*
X5821D1*
X8184Y9790D2*
X8696D1*
X23789Y9451D2*
X23278D1*
X18539D2*
X18028D1*
X23278Y14026D2*
X23789D1*
X18028D2*
X18539D1*
X27322Y15027D2*
X26810D1*
X22071Y15026D2*
X21559D1*
X7342Y24182D2*
X11538D1*
Y23198D1*
X7342D1*
Y24182D1*
X9842Y20120D2*
X15038D1*
Y19135D1*
X9842D1*
Y20120D1*
X13440Y7065D2*
X23440D1*
Y5065D1*
X13440D1*
Y7065D1*
X11600Y10697D2*
X8403D1*
Y11681D1*
X11600D1*
Y10697D1*
X17658Y12202D2*
X13722D1*
X17658Y11178D2*
X13722D1*
Y12202D2*
Y11178D1*
X17658Y12202D2*
Y11887D1*
Y11493D2*
Y11178D1*
Y11887D2*
G03X17658Y11493I0J-197D01*
G01*
X22908Y12202D2*
X18972D1*
X22908Y11178D2*
X18972D1*
Y12202D2*
Y11178D1*
X22908Y12202D2*
Y11887D1*
Y11493D2*
Y11178D1*
Y11887D2*
G03X22908Y11493I0J-197D01*
G01*
X7924Y9077D2*
X5956D1*
X7924Y8053D2*
X5956D1*
Y9077D2*
Y8053D1*
X7924Y8762D2*
Y9077D1*
Y8368D2*
Y8053D1*
Y8762D2*
G03X7924Y8368I0J-197D01*
G01*
X26783Y17952D2*
X22847D1*
X26783Y16928D2*
X22847D1*
Y17952D2*
Y16928D1*
X26783Y17952D2*
Y17637D1*
Y17243D2*
Y16928D1*
Y17637D2*
G03X26783Y17243I0J-197D01*
G01*
X21533Y17952D2*
X17597D1*
X21533Y16928D2*
X17597D1*
Y17952D2*
Y16928D1*
X21533Y17952D2*
Y17637D1*
Y17243D2*
Y16928D1*
Y17637D2*
G03X21533Y17243I0J-197D01*
G01*
X8343Y4859D2*
X4146D1*
Y5844D1*
X8343D1*
Y4859D1*
X22092Y24182D2*
X25288D1*
Y23198D1*
X22092D1*
Y24182D1*
X14217D2*
X16413D1*
Y23198D1*
X14217D1*
Y24182D1*
X17592D2*
X21788D1*
Y23198D1*
X17592D1*
Y24182D1*
X12029D2*
X14226D1*
Y23198D1*
X12029D1*
Y24182D1*
X8940Y14878D2*
X12940D1*
Y12878D1*
X8940D1*
Y14878D1*
D29*
X9176Y17981D3*
X9084Y17558D2*
D10*
X8296D1*
Y17322D1*
X9084D1*
Y17558D1*
D29*
X10676Y17981D3*
X10584Y17558D2*
D10*
X9796D1*
Y17322D1*
X10584D1*
Y17558D1*
D29*
X12176Y17981D3*
X12084Y17558D2*
D10*
X11296D1*
Y17322D1*
X12084D1*
Y17558D1*
D29*
X13676Y17981D3*
X13584Y17558D2*
D10*
X12796D1*
Y17322D1*
X13584D1*
Y17558D1*
X9901Y15397D2*
Y16224D1*
X11979Y15397D2*
Y16224D1*
D31*
X10182Y15013D3*
X14651Y8777D2*
D10*
Y9603D1*
X16729Y8777D2*
Y9603D1*
D31*
X14932Y8392D3*
X20401Y8777D2*
D10*
Y9603D1*
X22479Y8777D2*
Y9603D1*
D31*
X20682Y8392D3*
X25340Y5565D2*
D10*
G02X25340Y5565I1350J0D01*
G01*
X26390D2*
G02X26390Y5565I300J0D01*
G01*
X25840D2*
G03X26690Y4715I848J-2D01*
G01*
Y6415D2*
G02X27540Y5565I2J-848D01*
G01*
X26020D2*
G02X26020Y5565I670J0D01*
G01*
X8840D2*
G02X8840Y5565I1350J0D01*
G01*
X9890D2*
G02X9890Y5565I300J0D01*
G01*
X9340D2*
G03X10190Y4715I848J-2D01*
G01*
Y6415D2*
G02X11040Y5565I2J-848D01*
G01*
X9520D2*
G02X9520Y5565I670J0D01*
G01*
X15842Y20120D2*
X19038D1*
Y19135D1*
X15842D1*
Y20120D1*
X9440Y24190D2*
D14*
Y23190D1*
X8128Y14190D2*
X8753D1*
X8440Y13690D1*
X8128Y14190D1*
X8190Y13627D2*
X8690D1*
X8440Y14190D2*
Y14690D1*
Y13128D2*
Y13628D1*
G36*
X28065Y19315D2*
X29815D1*
Y19065D1*
X28065D1*
Y19315D1*
G37*
G36*
Y18315D2*
X29878D1*
Y18065D1*
X28065D1*
Y18315D1*
G37*
X22940Y9190D2*
D14*
X23940D1*
Y7190D1*
X22940D1*
Y9190D1*
X23940D2*
X24940D1*
Y7190D1*
X23940D1*
Y9190D1*
X24065Y6565D2*
X23565Y7190D1*
X24565Y6565D2*
X24315Y7190D1*
X27742Y25355D2*
D12*
X27782D1*
X27612Y25345D2*
X27842D1*
X27612Y25335D2*
X27850D1*
X27612Y25325D2*
X27860D1*
X27612Y25315D2*
X27871D1*
X27612Y25305D2*
X27880D1*
X27612Y25295D2*
X27662D1*
X27797D2*
X27888D1*
X27612Y25285D2*
X27662D1*
X27817D2*
X27894D1*
X27612Y25275D2*
X27662D1*
X27832D2*
X27898D1*
X27612Y25265D2*
X27662D1*
X27843D2*
X27900D1*
X27612Y25255D2*
X27662D1*
X27848D2*
X27901D1*
X27612Y25245D2*
X27662D1*
X27850D2*
X27902D1*
X27612Y25235D2*
X27662D1*
X27851D2*
X27902D1*
X28122D2*
X28152D1*
X27614Y25225D2*
X27662D1*
X27852D2*
X27902D1*
X28091D2*
X28189D1*
X27616Y25215D2*
X27664D1*
X27852D2*
X27902D1*
X28068D2*
X28215D1*
X27619Y25205D2*
X27666D1*
X27852D2*
X27902D1*
X28051D2*
X28235D1*
X27620Y25195D2*
X27669D1*
X27851D2*
X27902D1*
X28038D2*
X28108D1*
X28162D2*
X28251D1*
X27621Y25185D2*
X27670D1*
X27849D2*
X27902D1*
X28028D2*
X28097D1*
X28162D2*
X28258D1*
X27132Y25175D2*
D3*
X27622D2*
X27671D1*
X27844D2*
X27901D1*
X28020D2*
X28084D1*
X28189D2*
X28264D1*
X27114Y25165D2*
X27132D1*
X27622D2*
X27672D1*
X27836D2*
X27899D1*
X28014D2*
X28072D1*
X28209D2*
X28268D1*
X27098Y25155D2*
X27140D1*
X27622D2*
X27672D1*
X27828D2*
X27894D1*
X28009D2*
X28063D1*
X28223D2*
X28273D1*
X27082Y25145D2*
X27149D1*
X27622D2*
X27672D1*
X27815D2*
X27888D1*
X28005D2*
X28057D1*
X28234D2*
X28279D1*
X27093Y25135D2*
X27158D1*
X27622D2*
X27672D1*
X27795D2*
X27882D1*
X28000D2*
X28050D1*
X28238D2*
X28285D1*
X28452D2*
X28472D1*
X27101Y25125D2*
X27167D1*
X27622D2*
X27672D1*
X27755D2*
X27874D1*
X27995D2*
X28042D1*
X28240D2*
X28289D1*
X28445D2*
X28490D1*
X27107Y25115D2*
X27174D1*
X27622D2*
X27672D1*
X27694D2*
X27863D1*
X27989D2*
X28032D1*
X28241D2*
X28290D1*
X28439D2*
X28511D1*
X27113Y25105D2*
X27181D1*
X27623D2*
X27848D1*
X27985D2*
X28092D1*
X28242D2*
X28291D1*
X28435D2*
X28531D1*
X27121Y25095D2*
X27188D1*
X27624D2*
X27827D1*
X27983D2*
X28092D1*
X28242D2*
X28292D1*
X28433D2*
X28550D1*
X27130Y25085D2*
X27196D1*
X27630D2*
X27798D1*
X27982D2*
X28191D1*
X28242D2*
X28291D1*
X28432D2*
X28567D1*
X27138Y25075D2*
X27204D1*
X27635D2*
X27762D1*
X27980D2*
X28289D1*
X28492D2*
X28581D1*
X27147Y25065D2*
X27210D1*
X27639D2*
X27762D1*
X27978D2*
X28284D1*
X28492D2*
X28593D1*
X27154Y25055D2*
X27215D1*
X27640D2*
X27692D1*
X27975D2*
X28022D1*
X28102D2*
X28279D1*
X28519D2*
X28605D1*
X27160Y25045D2*
X27222D1*
X27641D2*
X27692D1*
X27974D2*
X28022D1*
X28182D2*
X28275D1*
X28539D2*
X28614D1*
X27166Y25035D2*
X27230D1*
X27642D2*
X27692D1*
X27974D2*
X28022D1*
X28182D2*
X28273D1*
X28555D2*
X28622D1*
X27172Y25025D2*
X27238D1*
X27642D2*
X27692D1*
X27976D2*
X28022D1*
X28272D2*
D3*
X28567D2*
X28627D1*
X27148Y25015D2*
X27246D1*
X27642D2*
X27692D1*
X27979D2*
X28024D1*
X28578D2*
X28630D1*
X27125Y25005D2*
X27252D1*
X27642D2*
X27692D1*
X27980D2*
X28026D1*
X28587D2*
X28631D1*
X27103Y24995D2*
X27259D1*
X27642D2*
X27692D1*
X27981D2*
X28029D1*
X28372D2*
X28422D1*
X28593D2*
X28632D1*
X27085Y24985D2*
X27182D1*
X27204D2*
X27267D1*
X27642D2*
X27692D1*
X27982D2*
X28034D1*
X28356D2*
X28459D1*
X28599D2*
X28632D1*
X27071Y24975D2*
X27182D1*
X27211D2*
X27276D1*
X27644D2*
X27692D1*
X27985D2*
X28041D1*
X28342D2*
X28487D1*
X28593D2*
X28632D1*
X27061Y24965D2*
X27155D1*
X27219D2*
X27285D1*
X27646D2*
X27692D1*
X27990D2*
X28050D1*
X28330D2*
X28511D1*
X28587D2*
X28632D1*
X27055Y24955D2*
X27134D1*
X27226D2*
X27293D1*
X27649D2*
X27694D1*
X27997D2*
X28060D1*
X28321D2*
X28531D1*
X28579D2*
X28631D1*
X27050Y24945D2*
X27119D1*
X27232D2*
X27299D1*
X27650D2*
X27696D1*
X28003D2*
X28074D1*
X28315D2*
X28551D1*
X28567D2*
X28630D1*
X27045Y24935D2*
X27107D1*
X27239D2*
X27305D1*
X27651D2*
X27699D1*
X28008D2*
X28093D1*
X28310D2*
X28362D1*
X28477D2*
X28628D1*
X27040Y24925D2*
X27096D1*
X27247D2*
X27311D1*
X27652D2*
X27700D1*
X28014D2*
X28120D1*
X28212D2*
X28242D1*
X28306D2*
X28360D1*
X28499D2*
X28624D1*
X28762D2*
X28782D1*
X27035Y24915D2*
X27087D1*
X27256D2*
X27318D1*
X27652D2*
X27701D1*
X28028D2*
X28158D1*
X28212D2*
X28242D1*
X28304D2*
X28358D1*
X28517D2*
X28620D1*
X28760D2*
X28790D1*
X27029Y24905D2*
X27080D1*
X27265D2*
X27325D1*
X27652D2*
X27702D1*
X28046D2*
X28241D1*
X28303D2*
X28355D1*
X28532D2*
X28614D1*
X28757D2*
X28798D1*
X27025Y24895D2*
X27076D1*
X27273D2*
X27331D1*
X27652D2*
X27702D1*
X28067D2*
X28240D1*
X28302D2*
X28354D1*
X28543D2*
X28609D1*
X28752D2*
X28805D1*
X27023Y24885D2*
X27073D1*
X27279D2*
X27338D1*
X27652D2*
X27702D1*
X28092D2*
X28237D1*
X28302D2*
X28353D1*
X28545D2*
X28604D1*
X28744D2*
X28806D1*
X27022Y24875D2*
X27073D1*
X27285D2*
X27346D1*
X28122D2*
X28232D1*
X28302D2*
X28353D1*
X28543D2*
X28599D1*
X28734D2*
X28797D1*
X27022Y24865D2*
X27072D1*
X27291D2*
X27355D1*
X28302D2*
X28354D1*
X28540D2*
X28595D1*
X28725D2*
X28789D1*
X27022Y24855D2*
X27072D1*
X27298D2*
X27362D1*
X28304D2*
X28359D1*
X28534D2*
X28590D1*
X28715D2*
X28782D1*
X27023Y24845D2*
X27073D1*
X27304D2*
X27368D1*
X28307D2*
X28372D1*
X28528D2*
X28585D1*
X28705D2*
X28830D1*
X27024Y24835D2*
X27074D1*
X27308D2*
X27373D1*
X28312D2*
X28390D1*
X28522D2*
X28579D1*
X28695D2*
X28863D1*
X27030Y24825D2*
X27080D1*
X27310D2*
X27381D1*
X28320D2*
X28420D1*
X28502D2*
X28574D1*
X28685D2*
X28886D1*
X27035Y24815D2*
X27086D1*
X27311D2*
X27389D1*
X28330D2*
X28470D1*
X28467D2*
X28568D1*
X28675D2*
X28745D1*
X28806D2*
X28901D1*
X27039Y24805D2*
X27091D1*
X27311D2*
X27395D1*
X28342D2*
X28563D1*
X28665D2*
X28732D1*
X28826D2*
X28913D1*
X27042Y24795D2*
X27098D1*
X27309D2*
X27399D1*
X28359D2*
X28556D1*
X28655D2*
X28720D1*
X28843D2*
X28918D1*
X27046Y24785D2*
X27107D1*
X27304D2*
X27401D1*
X28381D2*
X28549D1*
X28645D2*
X28709D1*
X28857D2*
X28920D1*
X27052Y24775D2*
X27116D1*
X27296D2*
X27331D1*
X27352D2*
X27372D1*
X27972D2*
X28002D1*
X28403D2*
X28442D1*
X28481D2*
X28544D1*
X28635D2*
X28699D1*
X28869D2*
X28919D1*
X27058Y24765D2*
X27125D1*
X27288D2*
X27329D1*
X27352D2*
X27372D1*
X27963D2*
X28009D1*
X28422D2*
X28442D1*
X28479D2*
X28539D1*
X28625D2*
X28689D1*
X28876D2*
X28911D1*
X27065Y24755D2*
X27136D1*
X27278D2*
X27324D1*
X27954D2*
X28015D1*
X28474D2*
X28535D1*
X28615D2*
X28679D1*
X28882D2*
X28902D1*
X26842Y24745D2*
X26952D1*
X27071D2*
X27148D1*
X27265D2*
X27318D1*
X27945D2*
X28018D1*
X28468D2*
X28530D1*
X28605D2*
X28669D1*
X26830Y24735D2*
X26965D1*
X27078D2*
X27170D1*
X27244D2*
X27313D1*
X27935D2*
X28020D1*
X28462D2*
X28522D1*
X28595D2*
X28662D1*
X26818Y24725D2*
X26980D1*
X27087D2*
X27206D1*
X27208D2*
X27308D1*
X27925D2*
X28021D1*
X28492D2*
X28512D1*
X28585D2*
X28656D1*
X26807Y24715D2*
X26992D1*
X27096D2*
X27302D1*
X27915D2*
X28022D1*
X28576D2*
X28650D1*
X26798Y24705D2*
X27002D1*
X27105D2*
X27294D1*
X27905D2*
X28022D1*
X28567D2*
X28643D1*
X26790Y24695D2*
X26855D1*
X26916D2*
X27012D1*
X27116D2*
X27284D1*
X27896D2*
X28022D1*
X28560D2*
X28634D1*
X26784Y24685D2*
X26842D1*
X26935D2*
X27004D1*
X27129D2*
X27273D1*
X27888D2*
X28021D1*
X28555D2*
X28625D1*
X26779Y24675D2*
X26830D1*
X26950D2*
X26996D1*
X27144D2*
X27259D1*
X27882D2*
X28019D1*
X28562D2*
X28615D1*
X26775Y24665D2*
X26819D1*
X26944D2*
X26989D1*
X27162D2*
X27242D1*
X27875D2*
X28014D1*
X28570D2*
X28606D1*
X26770Y24655D2*
X26809D1*
X26936D2*
X26983D1*
X27867D2*
X28009D1*
X28576D2*
X28598D1*
X26765Y24645D2*
X26802D1*
X26928D2*
X26976D1*
X27861D2*
X28005D1*
X28582D2*
X28592D1*
X26759Y24635D2*
X26797D1*
X26918D2*
X26968D1*
X27082D2*
X27092D1*
X27856D2*
X28003D1*
X26755Y24625D2*
X26794D1*
X26910D2*
X26960D1*
X27082D2*
X27107D1*
X27850D2*
X28001D1*
X26753Y24615D2*
X26793D1*
X26904D2*
X26954D1*
X27082D2*
X27118D1*
X27843D2*
X27998D1*
X26752Y24605D2*
X26792D1*
X26899D2*
X26949D1*
X27082D2*
X27126D1*
X27652D2*
X27672D1*
X27835D2*
X27995D1*
X26752Y24595D2*
X26792D1*
X26893D2*
X26942D1*
X27081D2*
X27129D1*
X27648D2*
X27722D1*
X27828D2*
X27990D1*
X26752Y24585D2*
X26794D1*
X26886D2*
X26934D1*
X27080D2*
X27127D1*
X27649D2*
X27728D1*
X27822D2*
X27983D1*
X26752Y24575D2*
X26796D1*
X26879D2*
X26925D1*
X27078D2*
X27125D1*
X27661D2*
X27737D1*
X27815D2*
X27974D1*
X26753Y24565D2*
X26799D1*
X26873D2*
X26918D1*
X27074D2*
X27123D1*
X27674D2*
X27747D1*
X27808D2*
X27965D1*
X26754Y24555D2*
X26804D1*
X26866D2*
X26912D1*
X27070D2*
X27119D1*
X27686D2*
X27760D1*
X27799D2*
X27955D1*
X26760Y24545D2*
X26810D1*
X26857D2*
X26905D1*
X27064D2*
X27114D1*
X27697D2*
X27779D1*
X27787D2*
X27945D1*
X26765Y24535D2*
X26817D1*
X26848D2*
X26897D1*
X27059D2*
X27108D1*
X27705D2*
X27935D1*
X26770Y24525D2*
X26824D1*
X26840D2*
X26888D1*
X27054D2*
X27103D1*
X27712D2*
X27925D1*
X26775Y24515D2*
X26878D1*
X27048D2*
X27098D1*
X27719D2*
X27916D1*
X26782Y24505D2*
X26870D1*
X27041D2*
X27092D1*
X27726D2*
X27839D1*
X27882D2*
X27908D1*
X26790Y24495D2*
X26862D1*
X27030D2*
X27084D1*
X27733D2*
X27834D1*
X27882D2*
X27902D1*
X26662Y24485D2*
X26672D1*
X26799D2*
X26884D1*
X27014D2*
X27075D1*
X27738D2*
X27828D1*
X26660Y24475D2*
X26687D1*
X26809D2*
X26910D1*
X26992D2*
X27065D1*
X27743D2*
X27823D1*
X26658Y24465D2*
X26700D1*
X26819D2*
X26943D1*
X26960D2*
X27055D1*
X27749D2*
X27816D1*
X26654Y24455D2*
X26694D1*
X26829D2*
X27045D1*
X27756D2*
X27807D1*
X26650Y24445D2*
X26688D1*
X26842D2*
X27034D1*
X27764D2*
X27799D1*
X26644Y24435D2*
X26683D1*
X26859D2*
X27020D1*
X27782D2*
X27792D1*
X26639Y24425D2*
X26679D1*
X26881D2*
X27003D1*
X27832D2*
X27912D1*
X26532Y24415D2*
D3*
X26635D2*
X26676D1*
X26903D2*
X26987D1*
X27796D2*
X27929D1*
X28812D2*
X29292D1*
X26525Y24405D2*
X26532D1*
X26633D2*
X26674D1*
X26922D2*
X26972D1*
X27770D2*
X27944D1*
X28813D2*
X29292D1*
X26519Y24395D2*
X26562D1*
X26632D2*
X26672D1*
X27752D2*
X27957D1*
X28816D2*
X29293D1*
X26515Y24385D2*
X26669D1*
X27738D2*
X27968D1*
X28819D2*
X29294D1*
X26515Y24375D2*
X26662D1*
X27726D2*
X27978D1*
X28822D2*
X29300D1*
X26521Y24365D2*
X26652D1*
X26932D2*
X26972D1*
X27715D2*
X27989D1*
X28960D2*
X29012D1*
X29243D2*
X29305D1*
X26533Y24355D2*
X26672D1*
X26932D2*
X26972D1*
X27705D2*
X27809D1*
X27884D2*
X27998D1*
X28966D2*
X29014D1*
X29234D2*
X29307D1*
X26550Y24345D2*
X26695D1*
X26930D2*
X26972D1*
X27695D2*
X27799D1*
X27888D2*
X28007D1*
X28969D2*
X29016D1*
X29225D2*
X29301D1*
X26570Y24335D2*
X26720D1*
X26928D2*
X26972D1*
X27685D2*
X27786D1*
X27897D2*
X28014D1*
X28972D2*
X29019D1*
X29215D2*
X29293D1*
X26587Y24325D2*
X26745D1*
X26924D2*
X26971D1*
X27675D2*
X27773D1*
X27906D2*
X28020D1*
X28975D2*
X29021D1*
X29205D2*
X29284D1*
X26602Y24315D2*
X26770D1*
X26920D2*
X26969D1*
X27665D2*
X27761D1*
X27915D2*
X28024D1*
X28980D2*
X29025D1*
X29195D2*
X29272D1*
X26598Y24305D2*
X26796D1*
X26914D2*
X26964D1*
X27655D2*
X27749D1*
X27925D2*
X28028D1*
X28985D2*
X29030D1*
X29185D2*
X29257D1*
X26595Y24295D2*
X26622D1*
X26687D2*
X26824D1*
X26898D2*
X26958D1*
X27646D2*
X27740D1*
X27933D2*
X28031D1*
X28989D2*
X29035D1*
X29173D2*
X29243D1*
X26598Y24285D2*
X26622D1*
X26703D2*
X26856D1*
X26873D2*
X26953D1*
X27637D2*
X27732D1*
X27939D2*
X28034D1*
X28992D2*
X29040D1*
X29160D2*
X29231D1*
X26602Y24275D2*
X26622D1*
X26722D2*
X26948D1*
X27630D2*
X27726D1*
X27944D2*
X28040D1*
X28995D2*
X29045D1*
X29145D2*
X29219D1*
X26745Y24265D2*
X26942D1*
X27623D2*
X27721D1*
X27949D2*
X28045D1*
X28999D2*
X29048D1*
X29132D2*
X29209D1*
X26769Y24255D2*
X26934D1*
X27616D2*
X27713D1*
X27953D2*
X28049D1*
X29004D2*
X29050D1*
X29120D2*
X29199D1*
X26794Y24245D2*
X26925D1*
X27608D2*
X27705D1*
X27959D2*
X28051D1*
X29009D2*
X29052D1*
X29108D2*
X29188D1*
X26815Y24235D2*
X26918D1*
X27601D2*
X27698D1*
X27965D2*
X28053D1*
X29015D2*
X29056D1*
X29095D2*
X29178D1*
X26832Y24225D2*
X26912D1*
X27596D2*
X27692D1*
X27969D2*
X28056D1*
X29019D2*
X29067D1*
X29080D2*
X29167D1*
X27593Y24215D2*
X27685D1*
X27970D2*
X28058D1*
X29021D2*
X29154D1*
X26572Y24205D2*
X26592D1*
X27591D2*
X27679D1*
X27971D2*
X28060D1*
X29023D2*
X29141D1*
X26568Y24195D2*
X26599D1*
X27588D2*
X27674D1*
X27972D2*
X28061D1*
X29027D2*
X29128D1*
X26565Y24185D2*
X26604D1*
X26772D2*
X26792D1*
X27585D2*
X27669D1*
X27972D2*
X28062D1*
X29032D2*
X29116D1*
X26560Y24175D2*
X26609D1*
X26755D2*
X26814D1*
X27584D2*
X27666D1*
X27972D2*
X28003D1*
X28031D2*
X28062D1*
X29024D2*
X29106D1*
X26554Y24165D2*
X26602D1*
X26740D2*
X26832D1*
X27583D2*
X27664D1*
X27972D2*
X28005D1*
X28029D2*
X28062D1*
X29015D2*
X29095D1*
X26549Y24155D2*
X26594D1*
X26728D2*
X26845D1*
X27582D2*
X27663D1*
X27972D2*
X28012D1*
X28021D2*
X28062D1*
X29004D2*
X29085D1*
X26545Y24145D2*
X26588D1*
X26719D2*
X26854D1*
X27582D2*
X27662D1*
X27972D2*
X28062D1*
X28993D2*
X29073D1*
X26542Y24135D2*
X26585D1*
X26712D2*
X26862D1*
X27582D2*
X27662D1*
X27972D2*
X28062D1*
X28980D2*
X29060D1*
X26538Y24125D2*
X26582D1*
X26705D2*
X26773D1*
X26796D2*
X26869D1*
X27582D2*
X27662D1*
X27972D2*
X28061D1*
X28965D2*
X29045D1*
X26535Y24115D2*
X26579D1*
X26699D2*
X26765D1*
X26815D2*
X26875D1*
X27582D2*
X27662D1*
X27972D2*
X28060D1*
X28952D2*
X29032D1*
X26534Y24105D2*
X26574D1*
X26694D2*
X26756D1*
X26829D2*
X26878D1*
X27582D2*
X27662D1*
X27972D2*
X28058D1*
X28943D2*
X29020D1*
X26533Y24095D2*
X26569D1*
X26689D2*
X26749D1*
X26836D2*
X26880D1*
X27582D2*
X27662D1*
X27971D2*
X28055D1*
X28937D2*
X29009D1*
X26532Y24085D2*
X26565D1*
X26686D2*
X26744D1*
X26839D2*
X26881D1*
X27582D2*
X27662D1*
X27969D2*
X28054D1*
X28935D2*
X28999D1*
X26532Y24075D2*
X26563D1*
X26684D2*
X26739D1*
X26841D2*
X26882D1*
X27582D2*
X27662D1*
X27964D2*
X28053D1*
X28935D2*
X28989D1*
X26532Y24065D2*
X26563D1*
X26682D2*
X26735D1*
X26841D2*
X26882D1*
X27582D2*
X27662D1*
X27959D2*
X28051D1*
X28936D2*
X28979D1*
X26532Y24055D2*
X26563D1*
X26679D2*
X26730D1*
X26842D2*
X26882D1*
X27582D2*
X27661D1*
X27955D2*
X28049D1*
X28939D2*
X28970D1*
X26532Y24045D2*
X26564D1*
X26674D2*
X26725D1*
X26842D2*
X26882D1*
X27582D2*
X27659D1*
X27952D2*
X28044D1*
X28942D2*
X28962D1*
X26532Y24035D2*
X26570D1*
X26668D2*
X26719D1*
X26841D2*
X26882D1*
X27582D2*
X27654D1*
X27948D2*
X28039D1*
X26534Y24025D2*
X26579D1*
X26662D2*
X26715D1*
X26840D2*
X26882D1*
X27582D2*
X27648D1*
X27945D2*
X28035D1*
X28992D2*
X29262D1*
X26536Y24015D2*
X26591D1*
X26651D2*
X26712D1*
X26838D2*
X26882D1*
X27584D2*
X27643D1*
X27940D2*
X28032D1*
X28979D2*
X29262D1*
X26539Y24005D2*
X26619D1*
X26624D2*
X26708D1*
X26835D2*
X26881D1*
X27586D2*
X27639D1*
X27935D2*
X28028D1*
X28965D2*
X29262D1*
X26544Y23995D2*
X26702D1*
X26833D2*
X26879D1*
X27589D2*
X27635D1*
X27929D2*
X28025D1*
X28953D2*
X29262D1*
X26551Y23985D2*
X26695D1*
X26829D2*
X26874D1*
X27592D2*
X27632D1*
X27925D2*
X28020D1*
X28946D2*
X29262D1*
X26560Y23975D2*
X26688D1*
X26824D2*
X26868D1*
X27923D2*
X28015D1*
X28940D2*
X29072D1*
X26569Y23965D2*
X26680D1*
X26816D2*
X26864D1*
X27920D2*
X28009D1*
X28936D2*
X28992D1*
X26580Y23955D2*
X26667D1*
X26808D2*
X26859D1*
X27915D2*
X28005D1*
X28934D2*
X28988D1*
X26592Y23945D2*
X26652D1*
X26799D2*
X26855D1*
X27907D2*
X28003D1*
X28933D2*
X28985D1*
X26791Y23935D2*
X26850D1*
X27900D2*
X28000D1*
X28932D2*
X28980D1*
X26786Y23925D2*
X26842D1*
X27894D2*
X27995D1*
X28932D2*
X28974D1*
X26782Y23915D2*
X26832D1*
X27889D2*
X27987D1*
X28932D2*
X28969D1*
X27882Y23905D2*
X27980D1*
X28932D2*
X28965D1*
X27874Y23895D2*
X27974D1*
X28932D2*
X28965D1*
X27865Y23885D2*
X27969D1*
X28932D2*
X28970D1*
X27855Y23875D2*
X27963D1*
X28934D2*
X28976D1*
X27845Y23865D2*
X27956D1*
X28936D2*
X28980D1*
X26412Y23855D2*
X26462D1*
X26532D2*
X26862D1*
X27835D2*
X27949D1*
X28939D2*
X28985D1*
X26412Y23845D2*
X26462D1*
X26532D2*
X26862D1*
X27825D2*
X27943D1*
X28944D2*
X28989D1*
X26412Y23835D2*
X26462D1*
X26532D2*
X26862D1*
X27815D2*
X27936D1*
X28951D2*
X28993D1*
X26412Y23825D2*
X26462D1*
X26532D2*
X26862D1*
X27805D2*
X27927D1*
X28959D2*
X28999D1*
X26412Y23815D2*
X26462D1*
X26532D2*
X26802D1*
X27795D2*
X27918D1*
X28965D2*
X29005D1*
X26412Y23805D2*
X26462D1*
X26532D2*
X26802D1*
X27785D2*
X27909D1*
X28969D2*
X29009D1*
X27775Y23795D2*
X27898D1*
X28942D2*
X29282D1*
X27766Y23785D2*
X27889D1*
X28942D2*
X29282D1*
X27757Y23775D2*
X27879D1*
X28942D2*
X29282D1*
X27750Y23765D2*
X27868D1*
X28942D2*
X29282D1*
X27743Y23755D2*
X27859D1*
X28942D2*
X29282D1*
X27736Y23745D2*
X27849D1*
X28942D2*
X29282D1*
X27727Y23735D2*
X27838D1*
X27715Y23725D2*
X27829D1*
X27702Y23715D2*
X27819D1*
X27689Y23705D2*
X27808D1*
X26562Y23695D2*
X26862D1*
X27677D2*
X27798D1*
X26562Y23685D2*
X26869D1*
X27666D2*
X27787D1*
X26512Y23675D2*
X26874D1*
X27655D2*
X27774D1*
X28992D2*
X29042D1*
X26521Y23665D2*
X26879D1*
X27645D2*
X27761D1*
X28942D2*
X29079D1*
X26527Y23655D2*
X26872D1*
X27635D2*
X27748D1*
X28935D2*
X29107D1*
X26532Y23645D2*
X26672D1*
X26807D2*
X26864D1*
X27625D2*
X27736D1*
X28122D2*
D3*
X28927D2*
X29130D1*
X26787Y23635D2*
X26854D1*
X27615D2*
X27726D1*
X28122D2*
X28152D1*
X28919D2*
X29148D1*
X26770Y23625D2*
X26842D1*
X27605D2*
X27715D1*
X28124D2*
X28160D1*
X28912D2*
X29162D1*
X26757Y23615D2*
X26827D1*
X27595D2*
X27705D1*
X28126D2*
X28170D1*
X28906D2*
X28987D1*
X29056D2*
X29174D1*
X26744Y23605D2*
X26813D1*
X27583D2*
X27695D1*
X28129D2*
X28179D1*
X28901D2*
X28967D1*
X29091D2*
X29184D1*
X26730Y23595D2*
X26799D1*
X27570D2*
X27685D1*
X28134D2*
X28189D1*
X28895D2*
X28952D1*
X29115D2*
X29192D1*
X26714Y23585D2*
X26785D1*
X27555D2*
X27675D1*
X28072D2*
X28092D1*
X28139D2*
X28199D1*
X28889D2*
X28942D1*
X29133D2*
X29197D1*
X26699Y23575D2*
X26770D1*
X27542D2*
X27665D1*
X28082D2*
X28107D1*
X28146D2*
X28208D1*
X28885D2*
X28935D1*
X29146D2*
X29203D1*
X26684Y23565D2*
X26755D1*
X27533D2*
X27655D1*
X28089D2*
X28123D1*
X28152D2*
X28219D1*
X28883D2*
X28930D1*
X29156D2*
X29209D1*
X26669Y23555D2*
X26739D1*
X27527D2*
X27645D1*
X28095D2*
X28229D1*
X28882D2*
X28926D1*
X29164D2*
X29215D1*
X26655Y23545D2*
X26724D1*
X27521D2*
X27635D1*
X28101D2*
X28238D1*
X28882D2*
X28924D1*
X29170D2*
X29218D1*
X26640Y23535D2*
X26711D1*
X27513D2*
X27625D1*
X28110D2*
X28249D1*
X28882D2*
X28923D1*
X29174D2*
X29220D1*
X26625Y23525D2*
X26700D1*
X27504D2*
X27615D1*
X28119D2*
X28259D1*
X28882D2*
X28922D1*
X29178D2*
X29221D1*
X26612Y23515D2*
X26689D1*
X27495D2*
X27605D1*
X28129D2*
X28268D1*
X28883D2*
X28922D1*
X29180D2*
X29222D1*
X26600Y23505D2*
X26680D1*
X27485D2*
X27595D1*
X28139D2*
X28279D1*
X28884D2*
X28924D1*
X29181D2*
X29222D1*
X26589Y23495D2*
X26671D1*
X27475D2*
X27585D1*
X28149D2*
X28289D1*
X28890D2*
X28926D1*
X29181D2*
X29222D1*
X26580Y23485D2*
X26942D1*
X27465D2*
X27575D1*
X28158D2*
X28298D1*
X28895D2*
X28929D1*
X29180D2*
X29222D1*
X26572Y23475D2*
X26942D1*
X27455D2*
X27565D1*
X28169D2*
X28308D1*
X28899D2*
X28934D1*
X29178D2*
X29222D1*
X26581Y23465D2*
X26942D1*
X27446D2*
X27555D1*
X28179D2*
X28318D1*
X28852D2*
X28941D1*
X29174D2*
X29221D1*
X26587Y23455D2*
X26944D1*
X27438D2*
X27545D1*
X28188D2*
X28326D1*
X28852D2*
X28953D1*
X29170D2*
X29219D1*
X26592Y23445D2*
X26947D1*
X27432D2*
X27535D1*
X28199D2*
X28332D1*
X28852D2*
X28973D1*
X29164D2*
X29214D1*
X26865Y23435D2*
X26952D1*
X27425D2*
X27525D1*
X28209D2*
X28339D1*
X28852D2*
X28999D1*
X29158D2*
X29208D1*
X26848Y23425D2*
X26935D1*
X27417D2*
X27516D1*
X28218D2*
X28346D1*
X28852D2*
X29028D1*
X29152D2*
X29203D1*
X26830Y23415D2*
X26920D1*
X27411D2*
X27507D1*
X28228D2*
X28353D1*
X28852D2*
X29065D1*
X29141D2*
X29196D1*
X26812Y23405D2*
X26905D1*
X27406D2*
X27500D1*
X28238D2*
X28358D1*
X28891D2*
X29115D1*
X29114D2*
X29187D1*
X26795Y23395D2*
X26889D1*
X27400D2*
X27493D1*
X28246D2*
X28363D1*
X28927D2*
X29179D1*
X26780Y23385D2*
X26872D1*
X27393D2*
X27486D1*
X28252D2*
X28369D1*
X28964D2*
X29172D1*
X26765Y23375D2*
X26855D1*
X27384D2*
X27478D1*
X28259D2*
X28375D1*
X28812D2*
X28832D1*
X29002D2*
X29197D1*
X26749Y23365D2*
X26839D1*
X27375D2*
X27470D1*
X28266D2*
X28380D1*
X28803D2*
X28842D1*
X29037D2*
X29222D1*
X26731Y23355D2*
X26824D1*
X27367D2*
X27464D1*
X28273D2*
X28384D1*
X28796D2*
X28857D1*
X29067D2*
X29248D1*
X26711Y23345D2*
X26809D1*
X27359D2*
X27459D1*
X28278D2*
X28388D1*
X28794D2*
X28874D1*
X29097D2*
X29273D1*
X26693Y23335D2*
X26795D1*
X27353D2*
X27453D1*
X28283D2*
X28391D1*
X28796D2*
X28892D1*
X29126D2*
X29295D1*
X26676Y23325D2*
X26779D1*
X27346D2*
X27446D1*
X28289D2*
X28394D1*
X28807D2*
X28910D1*
X29155D2*
X29305D1*
X26660Y23315D2*
X26761D1*
X27338D2*
X27439D1*
X28295D2*
X28400D1*
X28821D2*
X28928D1*
X29186D2*
X29309D1*
X26647Y23305D2*
X26743D1*
X27330D2*
X27433D1*
X28300D2*
X28405D1*
X28836D2*
X28945D1*
X29215D2*
X29308D1*
X26637Y23295D2*
X26726D1*
X27324D2*
X27426D1*
X28304D2*
X28409D1*
X28854D2*
X28963D1*
X29243D2*
X29301D1*
X26641Y23285D2*
X26708D1*
X27042D2*
D3*
X27319D2*
X27418D1*
X28308D2*
X28410D1*
X28873D2*
X28983D1*
X29272D2*
X29292D1*
X26646Y23275D2*
X26690D1*
X27024D2*
X27062D1*
X27315D2*
X27410D1*
X28310D2*
X28411D1*
X28891D2*
X29001D1*
X26649Y23265D2*
X26672D1*
X27006D2*
X27062D1*
X27310D2*
X27406D1*
X28311D2*
X28412D1*
X28909D2*
X29019D1*
X26652Y23255D2*
D3*
X26989D2*
X27061D1*
X27305D2*
X27403D1*
X28312D2*
X28412D1*
X28924D2*
X29034D1*
X26974Y23245D2*
X27059D1*
X27299D2*
X27401D1*
X28312D2*
X28412D1*
X28752D2*
X28812D1*
X28939D2*
X29048D1*
X26961Y23235D2*
X27049D1*
X27295D2*
X27398D1*
X28312D2*
X28414D1*
X28752D2*
X28827D1*
X28955D2*
X29063D1*
X26949Y23225D2*
X27036D1*
X27293D2*
X27395D1*
X28313D2*
X28416D1*
X28725D2*
X28844D1*
X28973D2*
X29078D1*
X26936Y23215D2*
X27022D1*
X27291D2*
X27390D1*
X28314D2*
X28419D1*
X28704D2*
X28860D1*
X28992D2*
X29089D1*
X26922Y23205D2*
X27009D1*
X27288D2*
X27384D1*
X28320D2*
X28420D1*
X28689D2*
X28875D1*
X29010D2*
X29098D1*
X26909Y23195D2*
X26995D1*
X27285D2*
X27379D1*
X28325D2*
X28421D1*
X28677D2*
X28887D1*
X29028D2*
X29093D1*
X26602Y23185D2*
X26622D1*
X26895D2*
X26981D1*
X27280D2*
X27374D1*
X28329D2*
X28420D1*
X28666D2*
X28720D1*
X28825D2*
X28898D1*
X29045D2*
X29088D1*
X29172D2*
D3*
X26588Y23175D2*
X26625D1*
X26880D2*
X26968D1*
X27274D2*
X27369D1*
X28330D2*
X28418D1*
X28657D2*
X28716D1*
X28835D2*
X28908D1*
X29063D2*
X29085D1*
X29165D2*
X29172D1*
X26572Y23165D2*
X26630D1*
X26864D2*
X26956D1*
X27269D2*
X27366D1*
X28331D2*
X28415D1*
X28650D2*
X28707D1*
X28848D2*
X28919D1*
X29082D2*
D3*
X29159D2*
X29202D1*
X26582Y23155D2*
X26637D1*
X26849D2*
X26944D1*
X27264D2*
X27363D1*
X28331D2*
X28414D1*
X28644D2*
X28699D1*
X28861D2*
X28928D1*
X29153D2*
X29202D1*
X26589Y23145D2*
X26643D1*
X26834D2*
X26930D1*
X27259D2*
X27359D1*
X28329D2*
X28413D1*
X28639D2*
X28692D1*
X28873D2*
X28937D1*
X29148D2*
X29200D1*
X26595Y23135D2*
X26648D1*
X26819D2*
X26914D1*
X27256D2*
X27354D1*
X28324D2*
X28412D1*
X28636D2*
X28686D1*
X28884D2*
X28944D1*
X29142D2*
X29198D1*
X26601Y23125D2*
X26653D1*
X26807D2*
X26899D1*
X27254D2*
X27349D1*
X28319D2*
X28412D1*
X28634D2*
X28680D1*
X28894D2*
X28950D1*
X29147D2*
X29195D1*
X26608Y23115D2*
X26661D1*
X26793D2*
X26884D1*
X27253D2*
X27345D1*
X28315D2*
X28412D1*
X28633D2*
X28672D1*
X28902D2*
X28954D1*
X29152D2*
X29192D1*
X26615Y23105D2*
X26670D1*
X26778D2*
X26869D1*
X27251D2*
X27343D1*
X28313D2*
X28412D1*
X28632D2*
X28662D1*
X28907D2*
X28958D1*
X26621Y23095D2*
X26681D1*
X26763D2*
X26857D1*
X27249D2*
X27342D1*
X28312D2*
X28411D1*
X28632D2*
X28671D1*
X28913D2*
X28961D1*
X26628Y23085D2*
X26697D1*
X26746D2*
X26843D1*
X27244D2*
X27340D1*
X28312D2*
X28409D1*
X28632D2*
X28678D1*
X28919D2*
X28964D1*
X26636Y23075D2*
X26722D1*
X26726D2*
X26828D1*
X27239D2*
X27338D1*
X28312D2*
X28404D1*
X28632D2*
X28680D1*
X28925D2*
X28970D1*
X26645Y23065D2*
X26813D1*
X27235D2*
X27335D1*
X28310D2*
X28399D1*
X28632D2*
X28683D1*
X28928D2*
X28975D1*
X26652Y23055D2*
X26799D1*
X27233D2*
X27334D1*
X28308D2*
X28395D1*
X28634D2*
X28686D1*
X28930D2*
X28979D1*
X26658Y23045D2*
X26785D1*
X27232D2*
X27333D1*
X28304D2*
X28393D1*
X28636D2*
X28689D1*
X28931D2*
X28981D1*
X26663Y23035D2*
X26771D1*
X27232D2*
X27332D1*
X28300D2*
X28391D1*
X28639D2*
X28694D1*
X28931D2*
X28979D1*
X26671Y23025D2*
X26760D1*
X27232D2*
X27332D1*
X28294D2*
X28388D1*
X28644D2*
X28701D1*
X28929D2*
X28974D1*
X26679Y23015D2*
X26751D1*
X27232D2*
X27332D1*
X28289D2*
X28385D1*
X28650D2*
X28710D1*
X28924D2*
X28969D1*
X26686Y23005D2*
X26745D1*
X27230D2*
X27332D1*
X28284D2*
X28383D1*
X28657D2*
X28720D1*
X28918D2*
X28965D1*
X26692Y22995D2*
X26752D1*
X27228D2*
X27332D1*
X28279D2*
X28379D1*
X28666D2*
X28732D1*
X28913D2*
X28962D1*
X26699Y22985D2*
X26759D1*
X27226D2*
X27332D1*
X28275D2*
X28374D1*
X28676D2*
X28748D1*
X28908D2*
X28958D1*
X26707Y22975D2*
X26765D1*
X27225D2*
X27332D1*
X28270D2*
X28368D1*
X28685D2*
X28767D1*
X28900D2*
X28952D1*
X26716Y22965D2*
X26769D1*
X27227D2*
X27332D1*
X28265D2*
X28363D1*
X28695D2*
X28796D1*
X28874D2*
X28944D1*
X26725Y22955D2*
X26771D1*
X27229D2*
X27332D1*
X28259D2*
X28358D1*
X28705D2*
X28839D1*
X28833D2*
X28934D1*
X26733Y22945D2*
X26792D1*
X27230D2*
X27332D1*
X28254D2*
X28353D1*
X28716D2*
X28925D1*
X26739Y22935D2*
X26795D1*
X27231D2*
X27332D1*
X28249D2*
X28346D1*
X28727D2*
X28915D1*
X26745Y22925D2*
X26799D1*
X27232D2*
X27332D1*
X28245D2*
X28339D1*
X28739D2*
X28906D1*
X26751Y22915D2*
X26804D1*
X27232D2*
X27332D1*
X28240D2*
X28334D1*
X28751D2*
X28898D1*
X26758Y22905D2*
X26811D1*
X27232D2*
X27334D1*
X28233D2*
X28329D1*
X28762D2*
X28892D1*
X26765Y22895D2*
X26818D1*
X27232D2*
X27336D1*
X28224D2*
X28325D1*
X26770Y22885D2*
X26825D1*
X27233D2*
X27339D1*
X28215D2*
X28320D1*
X26776Y22875D2*
X26824D1*
X27234D2*
X27344D1*
X28205D2*
X28313D1*
X26782Y22865D2*
X26822D1*
X27240D2*
X27350D1*
X28195D2*
X28304D1*
X27245Y22855D2*
X27357D1*
X28183D2*
X28295D1*
X27250Y22845D2*
X27366D1*
X28169D2*
X28287D1*
X27255Y22835D2*
X27376D1*
X28154D2*
X28279D1*
X27259Y22825D2*
X27389D1*
X27672D2*
X27822D1*
X28136D2*
X28273D1*
X27263Y22815D2*
X27406D1*
X27672D2*
X27838D1*
X28113D2*
X28264D1*
X27270Y22805D2*
X27428D1*
X27612D2*
X27859D1*
X28084D2*
X28253D1*
X27277Y22795D2*
X28240D1*
X27286Y22785D2*
X28228D1*
X27296Y22775D2*
X28216D1*
X27306Y22765D2*
X28203D1*
X27317Y22755D2*
X28188D1*
X27330Y22745D2*
X28169D1*
X27345Y22735D2*
X27662D1*
X27794D2*
X28148D1*
X27363Y22725D2*
X27662D1*
X27827D2*
X28121D1*
X27382Y22715D2*
X27572D1*
X27879D2*
X28092D1*
X27942Y22705D2*
X27972D1*
X27942Y22695D2*
X27972D1*
X27742Y25355D2*
Y25345D1*
X27782Y25355D2*
X27842Y25345D1*
X27850Y25335D1*
X27860Y25325D1*
X27871Y25315D1*
X27880Y25305D1*
X27888Y25295D1*
X27894Y25285D1*
X27898Y25275D1*
X27900Y25265D1*
X27901Y25255D1*
X27902Y25245D1*
Y25235D1*
Y25225D1*
Y25215D1*
Y25205D1*
Y25195D1*
Y25185D1*
X27901Y25175D1*
X27899Y25165D1*
X27894Y25155D1*
X27888Y25145D1*
X27882Y25135D1*
X27874Y25125D1*
X27863Y25115D1*
X27848Y25105D1*
X27827Y25095D1*
X27798Y25085D1*
X27762Y25075D1*
Y25065D1*
Y25055D1*
X27692D1*
Y25045D1*
Y25035D1*
Y25025D1*
Y25015D1*
Y25005D1*
Y24995D1*
Y24985D1*
Y24975D1*
Y24965D1*
X27694Y24955D1*
X27696Y24945D1*
X27699Y24935D1*
X27700Y24925D1*
X27701Y24915D1*
X27702Y24905D1*
Y24895D1*
Y24885D1*
X27612Y25345D2*
Y25335D1*
Y25325D1*
Y25315D1*
Y25305D1*
Y25295D1*
Y25285D1*
Y25275D1*
Y25265D1*
Y25255D1*
Y25245D1*
Y25235D1*
X27614Y25225D1*
X27616Y25215D1*
X27619Y25205D1*
X27620Y25195D1*
X27621Y25185D1*
X27622Y25175D1*
Y25165D1*
Y25155D1*
Y25145D1*
Y25135D1*
Y25125D1*
Y25115D1*
X27623Y25105D1*
X27624Y25095D1*
X27630Y25085D1*
X27635Y25075D1*
X27639Y25065D1*
X27640Y25055D1*
X27641Y25045D1*
X27642Y25035D1*
Y25025D1*
Y25015D1*
Y25005D1*
Y24995D1*
Y24985D1*
X27644Y24975D1*
X27646Y24965D1*
X27649Y24955D1*
X27650Y24945D1*
X27651Y24935D1*
X27652Y24925D1*
Y24915D1*
Y24905D1*
Y24895D1*
Y24885D1*
X27662Y25305D2*
Y25295D1*
Y25285D1*
Y25275D1*
Y25265D1*
Y25255D1*
Y25245D1*
Y25235D1*
Y25225D1*
X27664Y25215D1*
X27666Y25205D1*
X27669Y25195D1*
X27670Y25185D1*
X27671Y25175D1*
X27672Y25165D1*
Y25155D1*
Y25145D1*
Y25135D1*
Y25125D1*
Y25115D1*
X27722Y25105D1*
X27772Y25305D2*
X27797Y25295D1*
X27817Y25285D1*
X27832Y25275D1*
X27843Y25265D1*
X27848Y25255D1*
X27850Y25245D1*
X27851Y25235D1*
X27852Y25225D1*
Y25215D1*
Y25205D1*
X27851Y25195D1*
X27849Y25185D1*
X27844Y25175D1*
X27836Y25165D1*
X27828Y25155D1*
X27815Y25145D1*
X27795Y25135D1*
X27755Y25125D1*
X27694Y25115D1*
X27622Y25105D1*
X28122Y25235D2*
X28091Y25225D1*
X28068Y25215D1*
X28051Y25205D1*
X28038Y25195D1*
X28028Y25185D1*
X28020Y25175D1*
X28014Y25165D1*
X28009Y25155D1*
X28005Y25145D1*
X28000Y25135D1*
X27995Y25125D1*
X27989Y25115D1*
X27985Y25105D1*
X27983Y25095D1*
X27982Y25085D1*
X27980Y25075D1*
X27978Y25065D1*
X27975Y25055D1*
X27974Y25045D1*
Y25035D1*
X27976Y25025D1*
X27979Y25015D1*
X27980Y25005D1*
X27981Y24995D1*
X27982Y24985D1*
X27985Y24975D1*
X27990Y24965D1*
X27997Y24955D1*
X28003Y24945D1*
X28008Y24935D1*
X28014Y24925D1*
X28028Y24915D1*
X28046Y24905D1*
X28067Y24895D1*
X28092Y24885D1*
X28122Y24875D1*
X28152Y25235D2*
X28189Y25225D1*
X28215Y25215D1*
X28235Y25205D1*
X28251Y25195D1*
X28258Y25185D1*
X28264Y25175D1*
X28268Y25165D1*
X28273Y25155D1*
X28279Y25145D1*
X28285Y25135D1*
X28289Y25125D1*
X28290Y25115D1*
X28291Y25105D1*
X28292Y25095D1*
X28291Y25085D1*
X28289Y25075D1*
X28284Y25065D1*
X28279Y25055D1*
X28275Y25045D1*
X28273Y25035D1*
X28272Y25025D1*
X28112Y25205D2*
X28108Y25195D1*
X28097Y25185D1*
X28084Y25175D1*
X28072Y25165D1*
X28063Y25155D1*
X28057Y25145D1*
X28050Y25135D1*
X28042Y25125D1*
X28032Y25115D1*
X28092Y25105D1*
Y25095D1*
X28191Y25085D1*
X28292Y25075D1*
X28162Y25205D2*
Y25195D1*
Y25185D1*
X28189Y25175D1*
X28209Y25165D1*
X28223Y25155D1*
X28234Y25145D1*
X28238Y25135D1*
X28240Y25125D1*
X28241Y25115D1*
X28242Y25105D1*
Y25095D1*
Y25085D1*
X28182Y25075D1*
X27132Y25175D2*
X27114Y25165D1*
X27098Y25155D1*
X27082Y25145D1*
X27093Y25135D1*
X27101Y25125D1*
X27107Y25115D1*
X27113Y25105D1*
X27121Y25095D1*
X27130Y25085D1*
X27138Y25075D1*
X27147Y25065D1*
X27154Y25055D1*
X27160Y25045D1*
X27166Y25035D1*
X27172Y25025D1*
X27148Y25015D1*
X27125Y25005D1*
X27103Y24995D1*
X27085Y24985D1*
X27071Y24975D1*
X27061Y24965D1*
X27055Y24955D1*
X27050Y24945D1*
X27045Y24935D1*
X27040Y24925D1*
X27035Y24915D1*
X27029Y24905D1*
X27025Y24895D1*
X27023Y24885D1*
X27022Y24875D1*
Y24865D1*
Y24855D1*
X27023Y24845D1*
X27024Y24835D1*
X27030Y24825D1*
X27035Y24815D1*
X27039Y24805D1*
X27042Y24795D1*
X27046Y24785D1*
X27052Y24775D1*
X27058Y24765D1*
X27065Y24755D1*
X27071Y24745D1*
X27078Y24735D1*
X27087Y24725D1*
X27096Y24715D1*
X27105Y24705D1*
X27116Y24695D1*
X27129Y24685D1*
X27144Y24675D1*
X27162Y24665D1*
X27132Y25165D2*
X27140Y25155D1*
X27149Y25145D1*
X27158Y25135D1*
X27167Y25125D1*
X27174Y25115D1*
X27181Y25105D1*
X27188Y25095D1*
X27196Y25085D1*
X27204Y25075D1*
X27210Y25065D1*
X27215Y25055D1*
X27222Y25045D1*
X27230Y25035D1*
X27238Y25025D1*
X27246Y25015D1*
X27252Y25005D1*
X27259Y24995D1*
X27267Y24985D1*
X27276Y24975D1*
X27285Y24965D1*
X27293Y24955D1*
X27299Y24945D1*
X27305Y24935D1*
X27311Y24925D1*
X27318Y24915D1*
X27325Y24905D1*
X27331Y24895D1*
X27338Y24885D1*
X27346Y24875D1*
X27355Y24865D1*
X27362Y24855D1*
X27368Y24845D1*
X27373Y24835D1*
X27381Y24825D1*
X27389Y24815D1*
X27395Y24805D1*
X27399Y24795D1*
X27401Y24785D1*
X27402Y24775D1*
X27372D1*
Y24765D1*
X28452Y25135D2*
X28445Y25125D1*
X28439Y25115D1*
X28435Y25105D1*
X28433Y25095D1*
X28432Y25085D1*
Y25075D1*
X28492D1*
Y25065D1*
X28519Y25055D1*
X28539Y25045D1*
X28555Y25035D1*
X28567Y25025D1*
X28578Y25015D1*
X28587Y25005D1*
X28593Y24995D1*
X28599Y24985D1*
X28593Y24975D1*
X28587Y24965D1*
X28579Y24955D1*
X28567Y24945D1*
X28552Y24935D1*
X28472Y25135D2*
X28490Y25125D1*
X28511Y25115D1*
X28531Y25105D1*
X28550Y25095D1*
X28567Y25085D1*
X28581Y25075D1*
X28593Y25065D1*
X28605Y25055D1*
X28614Y25045D1*
X28622Y25035D1*
X28627Y25025D1*
X28630Y25015D1*
X28631Y25005D1*
X28632Y24995D1*
Y24985D1*
Y24975D1*
Y24965D1*
X28631Y24955D1*
X28630Y24945D1*
X28628Y24935D1*
X28624Y24925D1*
X28620Y24915D1*
X28614Y24905D1*
X28609Y24895D1*
X28604Y24885D1*
X28599Y24875D1*
X28595Y24865D1*
X28590Y24855D1*
X28585Y24845D1*
X28579Y24835D1*
X28574Y24825D1*
X28568Y24815D1*
X28563Y24805D1*
X28556Y24795D1*
X28549Y24785D1*
X28544Y24775D1*
X28539Y24765D1*
X28535Y24755D1*
X28530Y24745D1*
X28522Y24735D1*
X28512Y24725D1*
X28022Y25065D2*
Y25055D1*
Y25045D1*
Y25035D1*
Y25025D1*
X28024Y25015D1*
X28026Y25005D1*
X28029Y24995D1*
X28034Y24985D1*
X28041Y24975D1*
X28050Y24965D1*
X28060Y24955D1*
X28074Y24945D1*
X28093Y24935D1*
X28120Y24925D1*
X28158Y24915D1*
X28202Y24905D1*
X28022Y25065D2*
X28102Y25055D1*
X28182Y25045D1*
Y25035D1*
X28272Y25025D1*
X28372Y24995D2*
X28356Y24985D1*
X28342Y24975D1*
X28330Y24965D1*
X28321Y24955D1*
X28315Y24945D1*
X28310Y24935D1*
X28306Y24925D1*
X28304Y24915D1*
X28303Y24905D1*
X28302Y24895D1*
Y24885D1*
Y24875D1*
Y24865D1*
X28304Y24855D1*
X28307Y24845D1*
X28312Y24835D1*
X28320Y24825D1*
X28330Y24815D1*
X28342Y24805D1*
X28359Y24795D1*
X28381Y24785D1*
X28403Y24775D1*
X28422Y24765D1*
Y24995D2*
X28459Y24985D1*
X28487Y24975D1*
X28511Y24965D1*
X28531Y24955D1*
X28551Y24945D1*
X28572Y24935D1*
X27182Y24995D2*
Y24985D1*
Y24975D1*
X27155Y24965D1*
X27134Y24955D1*
X27119Y24945D1*
X27107Y24935D1*
X27096Y24925D1*
X27087Y24915D1*
X27080Y24905D1*
X27076Y24895D1*
X27073Y24885D1*
Y24875D1*
X27072Y24865D1*
Y24855D1*
X27073Y24845D1*
X27074Y24835D1*
X27080Y24825D1*
X27086Y24815D1*
X27091Y24805D1*
X27098Y24795D1*
X27107Y24785D1*
X27116Y24775D1*
X27125Y24765D1*
X27136Y24755D1*
X27148Y24745D1*
X27170Y24735D1*
X27206Y24725D1*
X27252Y24715D1*
X27202Y24995D2*
X27204Y24985D1*
X27211Y24975D1*
X27219Y24965D1*
X27226Y24955D1*
X27232Y24945D1*
X27239Y24935D1*
X27247Y24925D1*
X27256Y24915D1*
X27265Y24905D1*
X27273Y24895D1*
X27279Y24885D1*
X27285Y24875D1*
X27291Y24865D1*
X27298Y24855D1*
X27304Y24845D1*
X27308Y24835D1*
X27310Y24825D1*
X27311Y24815D1*
Y24805D1*
X27309Y24795D1*
X27304Y24785D1*
X27296Y24775D1*
X27288Y24765D1*
X27278Y24755D1*
X27265Y24745D1*
X27244Y24735D1*
X27208Y24725D1*
X27162Y24715D1*
X28362Y24945D2*
Y24935D1*
X28360Y24925D1*
X28358Y24915D1*
X28355Y24905D1*
X28354Y24895D1*
X28353Y24885D1*
Y24875D1*
X28354Y24865D1*
X28359Y24855D1*
X28372Y24845D1*
X28390Y24835D1*
X28420Y24825D1*
X28470Y24815D1*
X28532Y24805D1*
X28452Y24945D2*
X28477Y24935D1*
X28499Y24925D1*
X28517Y24915D1*
X28532Y24905D1*
X28543Y24895D1*
X28545Y24885D1*
X28543Y24875D1*
X28540Y24865D1*
X28534Y24855D1*
X28528Y24845D1*
X28522Y24835D1*
X28502Y24825D1*
X28467Y24815D1*
X28422Y24805D1*
X28212Y24925D2*
Y24915D1*
X28132Y24905D1*
X28242Y24925D2*
Y24915D1*
X28241Y24905D1*
X28240Y24895D1*
X28237Y24885D1*
X28232Y24875D1*
X28762Y24925D2*
X28760Y24915D1*
X28757Y24905D1*
X28752Y24895D1*
X28744Y24885D1*
X28734Y24875D1*
X28725Y24865D1*
X28715Y24855D1*
X28705Y24845D1*
X28695Y24835D1*
X28685Y24825D1*
X28675Y24815D1*
X28665Y24805D1*
X28655Y24795D1*
X28645Y24785D1*
X28635Y24775D1*
X28625Y24765D1*
X28615Y24755D1*
X28605Y24745D1*
X28595Y24735D1*
X28585Y24725D1*
X28576Y24715D1*
X28567Y24705D1*
X28560Y24695D1*
X28555Y24685D1*
X28562Y24675D1*
X28570Y24665D1*
X28576Y24655D1*
X28582Y24645D1*
X28782Y24925D2*
X28790Y24915D1*
X28798Y24905D1*
X28805Y24895D1*
X28806Y24885D1*
X28797Y24875D1*
X28789Y24865D1*
X28782Y24855D1*
X28830Y24845D1*
X28863Y24835D1*
X28886Y24825D1*
X28901Y24815D1*
X28913Y24805D1*
X28918Y24795D1*
X28920Y24785D1*
X28919Y24775D1*
X28911Y24765D1*
X28902Y24755D1*
X28762Y24825D2*
X28745Y24815D1*
X28732Y24805D1*
X28720Y24795D1*
X28709Y24785D1*
X28699Y24775D1*
X28689Y24765D1*
X28679Y24755D1*
X28669Y24745D1*
X28662Y24735D1*
X28656Y24725D1*
X28650Y24715D1*
X28643Y24705D1*
X28634Y24695D1*
X28625Y24685D1*
X28615Y24675D1*
X28606Y24665D1*
X28598Y24655D1*
X28592Y24645D1*
X28782Y24825D2*
X28806Y24815D1*
X28826Y24805D1*
X28843Y24795D1*
X28857Y24785D1*
X28869Y24775D1*
X28876Y24765D1*
X28882Y24755D1*
X27332Y24785D2*
X27331Y24775D1*
X27329Y24765D1*
X27324Y24755D1*
X27318Y24745D1*
X27313Y24735D1*
X27308Y24725D1*
X27302Y24715D1*
X27294Y24705D1*
X27284Y24695D1*
X27273Y24685D1*
X27259Y24675D1*
X27242Y24665D1*
X27352Y24785D2*
Y24775D1*
Y24765D1*
X27972Y24775D2*
X27963Y24765D1*
X27954Y24755D1*
X27945Y24745D1*
X27935Y24735D1*
X27925Y24725D1*
X27915Y24715D1*
X27905Y24705D1*
X27896Y24695D1*
X27888Y24685D1*
X27882Y24675D1*
X27875Y24665D1*
X27867Y24655D1*
X27861Y24645D1*
X27856Y24635D1*
X27850Y24625D1*
X27843Y24615D1*
X27835Y24605D1*
X27828Y24595D1*
X27822Y24585D1*
X27815Y24575D1*
X27808Y24565D1*
X27799Y24555D1*
X27787Y24545D1*
X27772Y24535D1*
X28002Y24775D2*
X28009Y24765D1*
X28015Y24755D1*
X28018Y24745D1*
X28020Y24735D1*
X28021Y24725D1*
X28022Y24715D1*
Y24705D1*
Y24695D1*
X28021Y24685D1*
X28019Y24675D1*
X28014Y24665D1*
X28009Y24655D1*
X28005Y24645D1*
X28003Y24635D1*
X28001Y24625D1*
X27998Y24615D1*
X27995Y24605D1*
X27990Y24595D1*
X27983Y24585D1*
X27974Y24575D1*
X27965Y24565D1*
X27955Y24555D1*
X27945Y24545D1*
X27935Y24535D1*
X27925Y24525D1*
X27916Y24515D1*
X27908Y24505D1*
X27902Y24495D1*
X28442Y24785D2*
Y24775D1*
Y24765D1*
X28482Y24785D2*
X28481Y24775D1*
X28479Y24765D1*
X28474Y24755D1*
X28468Y24745D1*
X28462Y24735D1*
X28492Y24725D1*
X26842Y24745D2*
X26830Y24735D1*
X26818Y24725D1*
X26807Y24715D1*
X26798Y24705D1*
X26790Y24695D1*
X26784Y24685D1*
X26779Y24675D1*
X26775Y24665D1*
X26770Y24655D1*
X26765Y24645D1*
X26759Y24635D1*
X26755Y24625D1*
X26753Y24615D1*
X26752Y24605D1*
Y24595D1*
Y24585D1*
Y24575D1*
X26753Y24565D1*
X26754Y24555D1*
X26760Y24545D1*
X26765Y24535D1*
X26770Y24525D1*
X26775Y24515D1*
X26782Y24505D1*
X26790Y24495D1*
X26799Y24485D1*
X26809Y24475D1*
X26819Y24465D1*
X26829Y24455D1*
X26842Y24445D1*
X26859Y24435D1*
X26881Y24425D1*
X26903Y24415D1*
X26922Y24405D1*
X26952Y24745D2*
X26965Y24735D1*
X26980Y24725D1*
X26992Y24715D1*
X27002Y24705D1*
X27012Y24695D1*
X27004Y24685D1*
X26996Y24675D1*
X26989Y24665D1*
X26983Y24655D1*
X26976Y24645D1*
X26968Y24635D1*
X26960Y24625D1*
X26954Y24615D1*
X26949Y24605D1*
X26942Y24595D1*
X26934Y24585D1*
X26925Y24575D1*
X26918Y24565D1*
X26912Y24555D1*
X26905Y24545D1*
X26897Y24535D1*
X26888Y24525D1*
X26878Y24515D1*
X26870Y24505D1*
X26862Y24495D1*
X26884Y24485D1*
X26910Y24475D1*
X26943Y24465D1*
X26982Y24455D1*
X26872Y24705D2*
X26855Y24695D1*
X26842Y24685D1*
X26830Y24675D1*
X26819Y24665D1*
X26809Y24655D1*
X26802Y24645D1*
X26797Y24635D1*
X26794Y24625D1*
X26793Y24615D1*
X26792Y24605D1*
Y24595D1*
X26794Y24585D1*
X26796Y24575D1*
X26799Y24565D1*
X26804Y24555D1*
X26810Y24545D1*
X26817Y24535D1*
X26824Y24525D1*
X26832Y24515D1*
X26892Y24705D2*
X26916Y24695D1*
X26935Y24685D1*
X26950Y24675D1*
X26944Y24665D1*
X26936Y24655D1*
X26928Y24645D1*
X26918Y24635D1*
X26910Y24625D1*
X26904Y24615D1*
X26899Y24605D1*
X26893Y24595D1*
X26886Y24585D1*
X26879Y24575D1*
X26873Y24565D1*
X26866Y24555D1*
X26857Y24545D1*
X26848Y24535D1*
X26840Y24525D1*
X26832Y24515D1*
X27082Y24635D2*
Y24625D1*
Y24615D1*
Y24605D1*
X27081Y24595D1*
X27080Y24585D1*
X27078Y24575D1*
X27074Y24565D1*
X27070Y24555D1*
X27064Y24545D1*
X27059Y24535D1*
X27054Y24525D1*
X27048Y24515D1*
X27041Y24505D1*
X27030Y24495D1*
X27014Y24485D1*
X26992Y24475D1*
X26960Y24465D1*
X26922Y24455D1*
X27092Y24635D2*
X27107Y24625D1*
X27118Y24615D1*
X27126Y24605D1*
X27129Y24595D1*
X27127Y24585D1*
X27125Y24575D1*
X27123Y24565D1*
X27119Y24555D1*
X27114Y24545D1*
X27108Y24535D1*
X27103Y24525D1*
X27098Y24515D1*
X27092Y24505D1*
X27084Y24495D1*
X27075Y24485D1*
X27065Y24475D1*
X27055Y24465D1*
X27045Y24455D1*
X27034Y24445D1*
X27020Y24435D1*
X27003Y24425D1*
X26987Y24415D1*
X26972Y24405D1*
X27652Y24605D2*
X27648Y24595D1*
X27649Y24585D1*
X27661Y24575D1*
X27674Y24565D1*
X27686Y24555D1*
X27697Y24545D1*
X27705Y24535D1*
X27712Y24525D1*
X27719Y24515D1*
X27726Y24505D1*
X27733Y24495D1*
X27738Y24485D1*
X27743Y24475D1*
X27749Y24465D1*
X27756Y24455D1*
X27764Y24445D1*
X27782Y24435D1*
X27802Y24425D1*
X27672Y24605D2*
X27722Y24595D1*
X27728Y24585D1*
X27737Y24575D1*
X27747Y24565D1*
X27760Y24555D1*
X27779Y24545D1*
X27802Y24535D1*
X27842Y24515D2*
X27839Y24505D1*
X27834Y24495D1*
X27828Y24485D1*
X27823Y24475D1*
X27816Y24465D1*
X27807Y24455D1*
X27799Y24445D1*
X27792Y24435D1*
X27882Y24515D2*
Y24505D1*
Y24495D1*
X26662Y24485D2*
X26660Y24475D1*
X26658Y24465D1*
X26654Y24455D1*
X26650Y24445D1*
X26644Y24435D1*
X26639Y24425D1*
X26635Y24415D1*
X26633Y24405D1*
X26632Y24395D1*
X26572Y24385D1*
X26672Y24485D2*
X26687Y24475D1*
X26700Y24465D1*
X26694Y24455D1*
X26688Y24445D1*
X26683Y24435D1*
X26679Y24425D1*
X26676Y24415D1*
X26674Y24405D1*
X26672Y24395D1*
X26669Y24385D1*
X26662Y24375D1*
X26652Y24365D1*
X26672Y24355D1*
X26695Y24345D1*
X26720Y24335D1*
X26745Y24325D1*
X26770Y24315D1*
X26796Y24305D1*
X26824Y24295D1*
X26856Y24285D1*
X26892Y24275D1*
X27832Y24425D2*
X27796Y24415D1*
X27770Y24405D1*
X27752Y24395D1*
X27738Y24385D1*
X27726Y24375D1*
X27715Y24365D1*
X27705Y24355D1*
X27695Y24345D1*
X27685Y24335D1*
X27675Y24325D1*
X27665Y24315D1*
X27655Y24305D1*
X27646Y24295D1*
X27637Y24285D1*
X27630Y24275D1*
X27623Y24265D1*
X27616Y24255D1*
X27608Y24245D1*
X27601Y24235D1*
X27596Y24225D1*
X27593Y24215D1*
X27591Y24205D1*
X27588Y24195D1*
X27585Y24185D1*
X27584Y24175D1*
X27583Y24165D1*
X27582Y24155D1*
Y24145D1*
Y24135D1*
Y24125D1*
Y24115D1*
Y24105D1*
Y24095D1*
Y24085D1*
Y24075D1*
Y24065D1*
Y24055D1*
Y24045D1*
Y24035D1*
Y24025D1*
X27584Y24015D1*
X27586Y24005D1*
X27589Y23995D1*
X27592Y23985D1*
X27912Y24425D2*
X27929Y24415D1*
X27944Y24405D1*
X27957Y24395D1*
X27968Y24385D1*
X27978Y24375D1*
X27989Y24365D1*
X27998Y24355D1*
X28007Y24345D1*
X28014Y24335D1*
X28020Y24325D1*
X28024Y24315D1*
X28028Y24305D1*
X28031Y24295D1*
X28034Y24285D1*
X28040Y24275D1*
X28045Y24265D1*
X28049Y24255D1*
X28051Y24245D1*
X28053Y24235D1*
X28056Y24225D1*
X28058Y24215D1*
X28060Y24205D1*
X28061Y24195D1*
X28062Y24185D1*
Y24175D1*
Y24165D1*
Y24155D1*
Y24145D1*
Y24135D1*
X28061Y24125D1*
X28060Y24115D1*
X28058Y24105D1*
X28055Y24095D1*
X28054Y24085D1*
X28053Y24075D1*
X28051Y24065D1*
X28049Y24055D1*
X28044Y24045D1*
X28039Y24035D1*
X28035Y24025D1*
X28032Y24015D1*
X28028Y24005D1*
X28025Y23995D1*
X28020Y23985D1*
X28015Y23975D1*
X28009Y23965D1*
X28005Y23955D1*
X28003Y23945D1*
X28000Y23935D1*
X27995Y23925D1*
X27987Y23915D1*
X27980Y23905D1*
X27974Y23895D1*
X27969Y23885D1*
X27963Y23875D1*
X27956Y23865D1*
X27949Y23855D1*
X27943Y23845D1*
X27936Y23835D1*
X27927Y23825D1*
X27918Y23815D1*
X27909Y23805D1*
X27898Y23795D1*
X27889Y23785D1*
X27879Y23775D1*
X27868Y23765D1*
X27859Y23755D1*
X27849Y23745D1*
X27838Y23735D1*
X27829Y23725D1*
X27819Y23715D1*
X27808Y23705D1*
X27798Y23695D1*
X27787Y23685D1*
X27774Y23675D1*
X27761Y23665D1*
X27748Y23655D1*
X27736Y23645D1*
X27726Y23635D1*
X27715Y23625D1*
X27705Y23615D1*
X27695Y23605D1*
X27685Y23595D1*
X27675Y23585D1*
X27665Y23575D1*
X27655Y23565D1*
X27645Y23555D1*
X27635Y23545D1*
X27625Y23535D1*
X27615Y23525D1*
X27605Y23515D1*
X27595Y23505D1*
X27585Y23495D1*
X27575Y23485D1*
X27565Y23475D1*
X27555Y23465D1*
X27545Y23455D1*
X27535Y23445D1*
X27525Y23435D1*
X27516Y23425D1*
X27507Y23415D1*
X27500Y23405D1*
X27493Y23395D1*
X27486Y23385D1*
X27478Y23375D1*
X27470Y23365D1*
X27464Y23355D1*
X27459Y23345D1*
X27453Y23335D1*
X27446Y23325D1*
X27439Y23315D1*
X27433Y23305D1*
X27426Y23295D1*
X27418Y23285D1*
X27410Y23275D1*
X27406Y23265D1*
X27403Y23255D1*
X27401Y23245D1*
X27398Y23235D1*
X27395Y23225D1*
X27390Y23215D1*
X27384Y23205D1*
X27379Y23195D1*
X27374Y23185D1*
X27369Y23175D1*
X27366Y23165D1*
X27363Y23155D1*
X27359Y23145D1*
X27354Y23135D1*
X27349Y23125D1*
X27345Y23115D1*
X27343Y23105D1*
X27342Y23095D1*
X27340Y23085D1*
X27338Y23075D1*
X27335Y23065D1*
X27334Y23055D1*
X27333Y23045D1*
X27332Y23035D1*
Y23025D1*
Y23015D1*
Y23005D1*
Y22995D1*
Y22985D1*
Y22975D1*
Y22965D1*
Y22955D1*
Y22945D1*
Y22935D1*
Y22925D1*
Y22915D1*
X27334Y22905D1*
X27336Y22895D1*
X27339Y22885D1*
X27344Y22875D1*
X27350Y22865D1*
X27357Y22855D1*
X27366Y22845D1*
X27376Y22835D1*
X27389Y22825D1*
X27406Y22815D1*
X27428Y22805D1*
X27452Y22795D1*
X26532Y24415D2*
X26525Y24405D1*
X26519Y24395D1*
X26515Y24385D1*
Y24375D1*
X26521Y24365D1*
X26533Y24355D1*
X26550Y24345D1*
X26570Y24335D1*
X26587Y24325D1*
X26602Y24315D1*
X26598Y24305D1*
X26595Y24295D1*
X26598Y24285D1*
X26602Y24275D1*
X28812Y24415D2*
X28813Y24405D1*
X28816Y24395D1*
X28819Y24385D1*
X28822Y24375D1*
X29292Y24415D2*
Y24405D1*
X29293Y24395D1*
X29294Y24385D1*
X29300Y24375D1*
X29305Y24365D1*
X29307Y24355D1*
X29301Y24345D1*
X29293Y24335D1*
X29284Y24325D1*
X29272Y24315D1*
X29257Y24305D1*
X29243Y24295D1*
X29231Y24285D1*
X29219Y24275D1*
X29209Y24265D1*
X29199Y24255D1*
X29188Y24245D1*
X29178Y24235D1*
X29167Y24225D1*
X29154Y24215D1*
X29141Y24205D1*
X29128Y24195D1*
X29116Y24185D1*
X29106Y24175D1*
X29095Y24165D1*
X29085Y24155D1*
X29073Y24145D1*
X29060Y24135D1*
X29045Y24125D1*
X29032Y24115D1*
X29020Y24105D1*
X29009Y24095D1*
X28999Y24085D1*
X28989Y24075D1*
X28979Y24065D1*
X28970Y24055D1*
X28962Y24045D1*
X26562Y24395D2*
X26572Y24385D1*
X26932Y24365D2*
Y24355D1*
X26930Y24345D1*
X26928Y24335D1*
X26924Y24325D1*
X26920Y24315D1*
X26914Y24305D1*
X26898Y24295D1*
X26873Y24285D1*
X26842Y24275D1*
X26972Y24365D2*
Y24355D1*
Y24345D1*
Y24335D1*
X26971Y24325D1*
X26969Y24315D1*
X26964Y24305D1*
X26958Y24295D1*
X26953Y24285D1*
X26948Y24275D1*
X26942Y24265D1*
X26934Y24255D1*
X26925Y24245D1*
X26918Y24235D1*
X26912Y24225D1*
X28952Y24375D2*
X28960Y24365D1*
X28966Y24355D1*
X28969Y24345D1*
X28972Y24335D1*
X28975Y24325D1*
X28980Y24315D1*
X28985Y24305D1*
X28989Y24295D1*
X28992Y24285D1*
X28995Y24275D1*
X28999Y24265D1*
X29004Y24255D1*
X29009Y24245D1*
X29015Y24235D1*
X29019Y24225D1*
X29021Y24215D1*
X29023Y24205D1*
X29027Y24195D1*
X29032Y24185D1*
X29024Y24175D1*
X29015Y24165D1*
X29004Y24155D1*
X28993Y24145D1*
X28980Y24135D1*
X28965Y24125D1*
X28952Y24115D1*
X28943Y24105D1*
X28937Y24095D1*
X28935Y24085D1*
Y24075D1*
X28936Y24065D1*
X28939Y24055D1*
X28942Y24045D1*
X29012Y24375D2*
Y24365D1*
X29014Y24355D1*
X29016Y24345D1*
X29019Y24335D1*
X29021Y24325D1*
X29025Y24315D1*
X29030Y24305D1*
X29035Y24295D1*
X29040Y24285D1*
X29045Y24275D1*
X29048Y24265D1*
X29050Y24255D1*
X29052Y24245D1*
X29056Y24235D1*
X29067Y24225D1*
X29082Y24215D1*
X29252Y24375D2*
X29243Y24365D1*
X29234Y24355D1*
X29225Y24345D1*
X29215Y24335D1*
X29205Y24325D1*
X29195Y24315D1*
X29185Y24305D1*
X29173Y24295D1*
X29160Y24285D1*
X29145Y24275D1*
X29132Y24265D1*
X29120Y24255D1*
X29108Y24245D1*
X29095Y24235D1*
X29080Y24225D1*
X29062Y24215D1*
X27812Y24365D2*
X27809Y24355D1*
X27799Y24345D1*
X27786Y24335D1*
X27773Y24325D1*
X27761Y24315D1*
X27749Y24305D1*
X27740Y24295D1*
X27732Y24285D1*
X27726Y24275D1*
X27721Y24265D1*
X27713Y24255D1*
X27705Y24245D1*
X27698Y24235D1*
X27692Y24225D1*
X27685Y24215D1*
X27679Y24205D1*
X27674Y24195D1*
X27669Y24185D1*
X27666Y24175D1*
X27664Y24165D1*
X27663Y24155D1*
X27662Y24145D1*
Y24135D1*
Y24125D1*
Y24115D1*
Y24105D1*
Y24095D1*
Y24085D1*
Y24075D1*
Y24065D1*
X27661Y24055D1*
X27659Y24045D1*
X27654Y24035D1*
X27648Y24025D1*
X27643Y24015D1*
X27639Y24005D1*
X27635Y23995D1*
X27632Y23985D1*
X27882Y24365D2*
X27884Y24355D1*
X27888Y24345D1*
X27897Y24335D1*
X27906Y24325D1*
X27915Y24315D1*
X27925Y24305D1*
X27933Y24295D1*
X27939Y24285D1*
X27944Y24275D1*
X27949Y24265D1*
X27953Y24255D1*
X27959Y24245D1*
X27965Y24235D1*
X27969Y24225D1*
X27970Y24215D1*
X27971Y24205D1*
X27972Y24195D1*
Y24185D1*
Y24175D1*
Y24165D1*
Y24155D1*
Y24145D1*
Y24135D1*
Y24125D1*
Y24115D1*
Y24105D1*
X27971Y24095D1*
X27969Y24085D1*
X27964Y24075D1*
X27959Y24065D1*
X27955Y24055D1*
X27952Y24045D1*
X27948Y24035D1*
X27945Y24025D1*
X27940Y24015D1*
X27935Y24005D1*
X27929Y23995D1*
X27925Y23985D1*
X27923Y23975D1*
X27920Y23965D1*
X27915Y23955D1*
X27907Y23945D1*
X27900Y23935D1*
X27894Y23925D1*
X27889Y23915D1*
X27882Y23905D1*
X27874Y23895D1*
X27865Y23885D1*
X27855Y23875D1*
X27845Y23865D1*
X27835Y23855D1*
X27825Y23845D1*
X27815Y23835D1*
X27805Y23825D1*
X27795Y23815D1*
X27785Y23805D1*
X27775Y23795D1*
X27766Y23785D1*
X27757Y23775D1*
X27750Y23765D1*
X27743Y23755D1*
X27736Y23745D1*
X27727Y23735D1*
X27715Y23725D1*
X27702Y23715D1*
X27689Y23705D1*
X27677Y23695D1*
X27666Y23685D1*
X27655Y23675D1*
X27645Y23665D1*
X27635Y23655D1*
X27625Y23645D1*
X27615Y23635D1*
X27605Y23625D1*
X27595Y23615D1*
X27583Y23605D1*
X27570Y23595D1*
X27555Y23585D1*
X27542Y23575D1*
X27533Y23565D1*
X27527Y23555D1*
X27521Y23545D1*
X27513Y23535D1*
X27504Y23525D1*
X27495Y23515D1*
X27485Y23505D1*
X27475Y23495D1*
X27465Y23485D1*
X27455Y23475D1*
X27446Y23465D1*
X27438Y23455D1*
X27432Y23445D1*
X27425Y23435D1*
X27417Y23425D1*
X27411Y23415D1*
X27406Y23405D1*
X27400Y23395D1*
X27393Y23385D1*
X27384Y23375D1*
X27375Y23365D1*
X27367Y23355D1*
X27359Y23345D1*
X27353Y23335D1*
X27346Y23325D1*
X27338Y23315D1*
X27330Y23305D1*
X27324Y23295D1*
X27319Y23285D1*
X27315Y23275D1*
X27310Y23265D1*
X27305Y23255D1*
X27299Y23245D1*
X27295Y23235D1*
X27293Y23225D1*
X27291Y23215D1*
X27288Y23205D1*
X27285Y23195D1*
X27280Y23185D1*
X27274Y23175D1*
X27269Y23165D1*
X27264Y23155D1*
X27259Y23145D1*
X27256Y23135D1*
X27254Y23125D1*
X27253Y23115D1*
X27251Y23105D1*
X27249Y23095D1*
X27244Y23085D1*
X27239Y23075D1*
X27235Y23065D1*
X27233Y23055D1*
X27232Y23045D1*
Y23035D1*
Y23025D1*
Y23015D1*
X27230Y23005D1*
X27228Y22995D1*
X27226Y22985D1*
X27225Y22975D1*
X27227Y22965D1*
X27229Y22955D1*
X27230Y22945D1*
X27231Y22935D1*
X27232Y22925D1*
Y22915D1*
Y22905D1*
Y22895D1*
X27233Y22885D1*
X27234Y22875D1*
X27240Y22865D1*
X27245Y22855D1*
X27250Y22845D1*
X27255Y22835D1*
X27259Y22825D1*
X27263Y22815D1*
X27270Y22805D1*
X27277Y22795D1*
X27286Y22785D1*
X27296Y22775D1*
X27306Y22765D1*
X27317Y22755D1*
X27330Y22745D1*
X27345Y22735D1*
X27363Y22725D1*
X27382Y22715D1*
X26622Y24305D2*
Y24295D1*
Y24285D1*
Y24275D1*
X26682Y24305D2*
X26687Y24295D1*
X26703Y24285D1*
X26722Y24275D1*
X26745Y24265D1*
X26769Y24255D1*
X26794Y24245D1*
X26815Y24235D1*
X26832Y24225D1*
X26572Y24205D2*
X26568Y24195D1*
X26565Y24185D1*
X26560Y24175D1*
X26554Y24165D1*
X26549Y24155D1*
X26545Y24145D1*
X26542Y24135D1*
X26538Y24125D1*
X26535Y24115D1*
X26534Y24105D1*
X26533Y24095D1*
X26532Y24085D1*
Y24075D1*
Y24065D1*
Y24055D1*
Y24045D1*
Y24035D1*
X26534Y24025D1*
X26536Y24015D1*
X26539Y24005D1*
X26544Y23995D1*
X26551Y23985D1*
X26560Y23975D1*
X26569Y23965D1*
X26580Y23955D1*
X26592Y23945D1*
Y24205D2*
X26599Y24195D1*
X26604Y24185D1*
X26609Y24175D1*
X26602Y24165D1*
X26594Y24155D1*
X26588Y24145D1*
X26585Y24135D1*
X26582Y24125D1*
X26579Y24115D1*
X26574Y24105D1*
X26569Y24095D1*
X26565Y24085D1*
X26563Y24075D1*
Y24065D1*
Y24055D1*
X26564Y24045D1*
X26570Y24035D1*
X26579Y24025D1*
X26591Y24015D1*
X26619Y24005D1*
X26652Y23995D1*
X26772Y24185D2*
X26755Y24175D1*
X26740Y24165D1*
X26728Y24155D1*
X26719Y24145D1*
X26712Y24135D1*
X26705Y24125D1*
X26699Y24115D1*
X26694Y24105D1*
X26689Y24095D1*
X26686Y24085D1*
X26684Y24075D1*
X26682Y24065D1*
X26679Y24055D1*
X26674Y24045D1*
X26668Y24035D1*
X26662Y24025D1*
X26651Y24015D1*
X26624Y24005D1*
X26592Y23995D1*
X26792Y24185D2*
X26814Y24175D1*
X26832Y24165D1*
X26845Y24155D1*
X26854Y24145D1*
X26862Y24135D1*
X26869Y24125D1*
X26875Y24115D1*
X26878Y24105D1*
X26880Y24095D1*
X26881Y24085D1*
X26882Y24075D1*
Y24065D1*
Y24055D1*
Y24045D1*
Y24035D1*
Y24025D1*
Y24015D1*
X26881Y24005D1*
X26879Y23995D1*
X26874Y23985D1*
X26868Y23975D1*
X26864Y23965D1*
X26859Y23955D1*
X26855Y23945D1*
X26850Y23935D1*
X26842Y23925D1*
X26832Y23915D1*
X28002Y24185D2*
X28003Y24175D1*
X28005Y24165D1*
X28012Y24155D1*
X28022Y24145D1*
X28032Y24185D2*
X28031Y24175D1*
X28029Y24165D1*
X28021Y24155D1*
X28012Y24145D1*
X26782Y24135D2*
X26773Y24125D1*
X26765Y24115D1*
X26756Y24105D1*
X26749Y24095D1*
X26744Y24085D1*
X26739Y24075D1*
X26735Y24065D1*
X26730Y24055D1*
X26725Y24045D1*
X26719Y24035D1*
X26715Y24025D1*
X26712Y24015D1*
X26708Y24005D1*
X26702Y23995D1*
X26695Y23985D1*
X26688Y23975D1*
X26680Y23965D1*
X26667Y23955D1*
X26652Y23945D1*
X26772Y24135D2*
X26796Y24125D1*
X26815Y24115D1*
X26829Y24105D1*
X26836Y24095D1*
X26839Y24085D1*
X26841Y24075D1*
Y24065D1*
X26842Y24055D1*
Y24045D1*
X26841Y24035D1*
X26840Y24025D1*
X26838Y24015D1*
X26835Y24005D1*
X26833Y23995D1*
X26829Y23985D1*
X26824Y23975D1*
X26816Y23965D1*
X26808Y23955D1*
X26799Y23945D1*
X26791Y23935D1*
X26786Y23925D1*
X26782Y23915D1*
X28992Y24025D2*
X28979Y24015D1*
X28965Y24005D1*
X28953Y23995D1*
X28946Y23985D1*
X28940Y23975D1*
X28936Y23965D1*
X28934Y23955D1*
X28933Y23945D1*
X28932Y23935D1*
Y23925D1*
Y23915D1*
Y23905D1*
Y23895D1*
Y23885D1*
X28934Y23875D1*
X28936Y23865D1*
X28939Y23855D1*
X28944Y23845D1*
X28951Y23835D1*
X28959Y23825D1*
X28965Y23815D1*
X28969Y23805D1*
X28972Y23795D1*
X28942D1*
Y23785D1*
Y23775D1*
Y23765D1*
Y23755D1*
Y23745D1*
X29262Y24025D2*
Y24015D1*
Y24005D1*
Y23995D1*
Y23985D1*
X29152D2*
X29072Y23975D1*
X28992Y23965D1*
X28988Y23955D1*
X28985Y23945D1*
X28980Y23935D1*
X28974Y23925D1*
X28969Y23915D1*
X28965Y23905D1*
Y23895D1*
X28970Y23885D1*
X28976Y23875D1*
X28980Y23865D1*
X28985Y23855D1*
X28989Y23845D1*
X28993Y23835D1*
X28999Y23825D1*
X29005Y23815D1*
X29009Y23805D1*
X29012Y23795D1*
X26412Y23855D2*
Y23845D1*
Y23835D1*
Y23825D1*
Y23815D1*
Y23805D1*
X26462Y23855D2*
Y23845D1*
Y23835D1*
Y23825D1*
Y23815D1*
Y23805D1*
X26532Y23855D2*
Y23845D1*
Y23835D1*
Y23825D1*
Y23815D1*
Y23805D1*
X26862Y23855D2*
Y23845D1*
Y23835D1*
Y23825D1*
Y23815D1*
X26802D1*
Y23805D1*
X29282Y23795D2*
Y23785D1*
Y23775D1*
Y23765D1*
Y23755D1*
Y23745D1*
X26562Y23695D2*
Y23685D1*
X26512Y23675D1*
X26521Y23665D1*
X26527Y23655D1*
X26532Y23645D1*
X26862Y23695D2*
X26869Y23685D1*
X26874Y23675D1*
X26879Y23665D1*
X26872Y23655D1*
X26864Y23645D1*
X26854Y23635D1*
X26842Y23625D1*
X26827Y23615D1*
X26813Y23605D1*
X26799Y23595D1*
X26785Y23585D1*
X26770Y23575D1*
X26755Y23565D1*
X26739Y23555D1*
X26724Y23545D1*
X26711Y23535D1*
X26700Y23525D1*
X26689Y23515D1*
X26680Y23505D1*
X26671Y23495D1*
X26662Y23485D1*
X28992Y23675D2*
X28942Y23665D1*
X28935Y23655D1*
X28927Y23645D1*
X28919Y23635D1*
X28912Y23625D1*
X28906Y23615D1*
X28901Y23605D1*
X28895Y23595D1*
X28889Y23585D1*
X28885Y23575D1*
X28883Y23565D1*
X28882Y23555D1*
Y23545D1*
Y23535D1*
Y23525D1*
X28883Y23515D1*
X28884Y23505D1*
X28890Y23495D1*
X28895Y23485D1*
X28899Y23475D1*
X28902Y23465D1*
X28852D1*
Y23455D1*
Y23445D1*
Y23435D1*
Y23425D1*
Y23415D1*
X28891Y23405D1*
X28927Y23395D1*
X28964Y23385D1*
X29002Y23375D1*
X29037Y23365D1*
X29067Y23355D1*
X29097Y23345D1*
X29126Y23335D1*
X29155Y23325D1*
X29186Y23315D1*
X29215Y23305D1*
X29243Y23295D1*
X29272Y23285D1*
X29042Y23675D2*
X29079Y23665D1*
X29107Y23655D1*
X29130Y23645D1*
X29148Y23635D1*
X29162Y23625D1*
X29174Y23615D1*
X29184Y23605D1*
X29192Y23595D1*
X29197Y23585D1*
X29203Y23575D1*
X29209Y23565D1*
X29215Y23555D1*
X29218Y23545D1*
X29220Y23535D1*
X29221Y23525D1*
X29222Y23515D1*
Y23505D1*
Y23495D1*
Y23485D1*
Y23475D1*
X29221Y23465D1*
X29219Y23455D1*
X29214Y23445D1*
X29208Y23435D1*
X29203Y23425D1*
X29196Y23415D1*
X29187Y23405D1*
X29179Y23395D1*
X29172Y23385D1*
X29197Y23375D1*
X29222Y23365D1*
X29248Y23355D1*
X29273Y23345D1*
X29295Y23335D1*
X29305Y23325D1*
X29309Y23315D1*
X29308Y23305D1*
X29301Y23295D1*
X29292Y23285D1*
X26682Y23655D2*
X26672Y23645D1*
X26832Y23655D2*
X26807Y23645D1*
X26787Y23635D1*
X26770Y23625D1*
X26757Y23615D1*
X26744Y23605D1*
X26730Y23595D1*
X26714Y23585D1*
X26699Y23575D1*
X26684Y23565D1*
X26669Y23555D1*
X26655Y23545D1*
X26640Y23535D1*
X26625Y23525D1*
X26612Y23515D1*
X26600Y23505D1*
X26589Y23495D1*
X26580Y23485D1*
X26572Y23475D1*
X26581Y23465D1*
X26587Y23455D1*
X26592Y23445D1*
X28122Y23645D2*
Y23635D1*
X28124Y23625D1*
X28126Y23615D1*
X28129Y23605D1*
X28134Y23595D1*
X28139Y23585D1*
X28146Y23575D1*
X28152Y23565D1*
X28122Y23555D1*
X28152Y23635D2*
X28160Y23625D1*
X28170Y23615D1*
X28179Y23605D1*
X28189Y23595D1*
X28199Y23585D1*
X28208Y23575D1*
X28219Y23565D1*
X28229Y23555D1*
X28238Y23545D1*
X28249Y23535D1*
X28259Y23525D1*
X28268Y23515D1*
X28279Y23505D1*
X28289Y23495D1*
X28298Y23485D1*
X28308Y23475D1*
X28318Y23465D1*
X28326Y23455D1*
X28332Y23445D1*
X28339Y23435D1*
X28346Y23425D1*
X28353Y23415D1*
X28358Y23405D1*
X28363Y23395D1*
X28369Y23385D1*
X28375Y23375D1*
X28380Y23365D1*
X28384Y23355D1*
X28388Y23345D1*
X28391Y23335D1*
X28394Y23325D1*
X28400Y23315D1*
X28405Y23305D1*
X28409Y23295D1*
X28410Y23285D1*
X28411Y23275D1*
X28412Y23265D1*
Y23255D1*
Y23245D1*
X28414Y23235D1*
X28416Y23225D1*
X28419Y23215D1*
X28420Y23205D1*
X28421Y23195D1*
X28420Y23185D1*
X28418Y23175D1*
X28415Y23165D1*
X28414Y23155D1*
X28413Y23145D1*
X28412Y23135D1*
Y23125D1*
Y23115D1*
Y23105D1*
X28411Y23095D1*
X28409Y23085D1*
X28404Y23075D1*
X28399Y23065D1*
X28395Y23055D1*
X28393Y23045D1*
X28391Y23035D1*
X28388Y23025D1*
X28385Y23015D1*
X28383Y23005D1*
X28379Y22995D1*
X28374Y22985D1*
X28368Y22975D1*
X28363Y22965D1*
X28358Y22955D1*
X28353Y22945D1*
X28346Y22935D1*
X28339Y22925D1*
X28334Y22915D1*
X28329Y22905D1*
X28325Y22895D1*
X28320Y22885D1*
X28313Y22875D1*
X28304Y22865D1*
X28295Y22855D1*
X28287Y22845D1*
X28279Y22835D1*
X28273Y22825D1*
X28264Y22815D1*
X28253Y22805D1*
X28240Y22795D1*
X28228Y22785D1*
X28216Y22775D1*
X28203Y22765D1*
X28188Y22755D1*
X28169Y22745D1*
X28148Y22735D1*
X28121Y22725D1*
X28092Y22715D1*
X29012Y23625D2*
X28987Y23615D1*
X28967Y23605D1*
X28952Y23595D1*
X28942Y23585D1*
X28935Y23575D1*
X28930Y23565D1*
X28926Y23555D1*
X28924Y23545D1*
X28923Y23535D1*
X28922Y23525D1*
Y23515D1*
X28924Y23505D1*
X28926Y23495D1*
X28929Y23485D1*
X28934Y23475D1*
X28941Y23465D1*
X28953Y23455D1*
X28973Y23445D1*
X28999Y23435D1*
X29028Y23425D1*
X29065Y23415D1*
X29115Y23405D1*
X29172Y23395D1*
X29012Y23625D2*
X29056Y23615D1*
X29091Y23605D1*
X29115Y23595D1*
X29133Y23585D1*
X29146Y23575D1*
X29156Y23565D1*
X29164Y23555D1*
X29170Y23545D1*
X29174Y23535D1*
X29178Y23525D1*
X29180Y23515D1*
X29181Y23505D1*
Y23495D1*
X29180Y23485D1*
X29178Y23475D1*
X29174Y23465D1*
X29170Y23455D1*
X29164Y23445D1*
X29158Y23435D1*
X29152Y23425D1*
X29141Y23415D1*
X29114Y23405D1*
X29082Y23395D1*
X28072Y23585D2*
X28082Y23575D1*
X28089Y23565D1*
X28095Y23555D1*
X28101Y23545D1*
X28110Y23535D1*
X28119Y23525D1*
X28129Y23515D1*
X28139Y23505D1*
X28149Y23495D1*
X28158Y23485D1*
X28169Y23475D1*
X28179Y23465D1*
X28188Y23455D1*
X28199Y23445D1*
X28209Y23435D1*
X28218Y23425D1*
X28228Y23415D1*
X28238Y23405D1*
X28246Y23395D1*
X28252Y23385D1*
X28259Y23375D1*
X28266Y23365D1*
X28273Y23355D1*
X28278Y23345D1*
X28283Y23335D1*
X28289Y23325D1*
X28295Y23315D1*
X28300Y23305D1*
X28304Y23295D1*
X28308Y23285D1*
X28310Y23275D1*
X28311Y23265D1*
X28312Y23255D1*
Y23245D1*
Y23235D1*
X28313Y23225D1*
X28314Y23215D1*
X28320Y23205D1*
X28325Y23195D1*
X28329Y23185D1*
X28330Y23175D1*
X28331Y23165D1*
Y23155D1*
X28329Y23145D1*
X28324Y23135D1*
X28319Y23125D1*
X28315Y23115D1*
X28313Y23105D1*
X28312Y23095D1*
Y23085D1*
Y23075D1*
X28310Y23065D1*
X28308Y23055D1*
X28304Y23045D1*
X28300Y23035D1*
X28294Y23025D1*
X28289Y23015D1*
X28284Y23005D1*
X28279Y22995D1*
X28275Y22985D1*
X28270Y22975D1*
X28265Y22965D1*
X28259Y22955D1*
X28254Y22945D1*
X28249Y22935D1*
X28245Y22925D1*
X28240Y22915D1*
X28233Y22905D1*
X28224Y22895D1*
X28215Y22885D1*
X28205Y22875D1*
X28195Y22865D1*
X28183Y22855D1*
X28169Y22845D1*
X28154Y22835D1*
X28136Y22825D1*
X28113Y22815D1*
X28084Y22805D1*
X28052Y22795D1*
X28092Y23585D2*
X28107Y23575D1*
X28123Y23565D1*
X28142Y23555D1*
X26942Y23485D2*
Y23475D1*
Y23465D1*
X26944Y23455D1*
X26947Y23445D1*
X26952Y23435D1*
X26935Y23425D1*
X26920Y23415D1*
X26905Y23405D1*
X26889Y23395D1*
X26872Y23385D1*
X26855Y23375D1*
X26839Y23365D1*
X26824Y23355D1*
X26809Y23345D1*
X26795Y23335D1*
X26779Y23325D1*
X26761Y23315D1*
X26743Y23305D1*
X26726Y23295D1*
X26708Y23285D1*
X26690Y23275D1*
X26672Y23265D1*
X26652Y23255D1*
X26882Y23445D2*
X26865Y23435D1*
X26848Y23425D1*
X26830Y23415D1*
X26812Y23405D1*
X26795Y23395D1*
X26780Y23385D1*
X26765Y23375D1*
X26749Y23365D1*
X26731Y23355D1*
X26711Y23345D1*
X26693Y23335D1*
X26676Y23325D1*
X26660Y23315D1*
X26647Y23305D1*
X26637Y23295D1*
X26641Y23285D1*
X26646Y23275D1*
X26649Y23265D1*
X26652Y23255D1*
X28812Y23375D2*
X28803Y23365D1*
X28796Y23355D1*
X28794Y23345D1*
X28796Y23335D1*
X28807Y23325D1*
X28821Y23315D1*
X28836Y23305D1*
X28854Y23295D1*
X28873Y23285D1*
X28891Y23275D1*
X28909Y23265D1*
X28924Y23255D1*
X28939Y23245D1*
X28955Y23235D1*
X28973Y23225D1*
X28992Y23215D1*
X29010Y23205D1*
X29028Y23195D1*
X29045Y23185D1*
X29063Y23175D1*
X29082Y23165D1*
X28832Y23375D2*
X28842Y23365D1*
X28857Y23355D1*
X28874Y23345D1*
X28892Y23335D1*
X28910Y23325D1*
X28928Y23315D1*
X28945Y23305D1*
X28963Y23295D1*
X28983Y23285D1*
X29001Y23275D1*
X29019Y23265D1*
X29034Y23255D1*
X29048Y23245D1*
X29063Y23235D1*
X29078Y23225D1*
X29089Y23215D1*
X29098Y23205D1*
X29093Y23195D1*
X29088Y23185D1*
X29085Y23175D1*
X29082Y23165D1*
X27042Y23285D2*
X27024Y23275D1*
X27006Y23265D1*
X26989Y23255D1*
X26974Y23245D1*
X26961Y23235D1*
X26949Y23225D1*
X26936Y23215D1*
X26922Y23205D1*
X26909Y23195D1*
X26895Y23185D1*
X26880Y23175D1*
X26864Y23165D1*
X26849Y23155D1*
X26834Y23145D1*
X26819Y23135D1*
X26807Y23125D1*
X26793Y23115D1*
X26778Y23105D1*
X26763Y23095D1*
X26746Y23085D1*
X26726Y23075D1*
X26702Y23065D1*
X27062Y23275D2*
Y23265D1*
X27061Y23255D1*
X27059Y23245D1*
X27049Y23235D1*
X27036Y23225D1*
X27022Y23215D1*
X27009Y23205D1*
X26995Y23195D1*
X26981Y23185D1*
X26968Y23175D1*
X26956Y23165D1*
X26944Y23155D1*
X26930Y23145D1*
X26914Y23135D1*
X26899Y23125D1*
X26884Y23115D1*
X26869Y23105D1*
X26857Y23095D1*
X26843Y23085D1*
X26828Y23075D1*
X26813Y23065D1*
X26799Y23055D1*
X26785Y23045D1*
X26771Y23035D1*
X26760Y23025D1*
X26751Y23015D1*
X26745Y23005D1*
X26752Y22995D1*
X26759Y22985D1*
X26765Y22975D1*
X26769Y22965D1*
X26771Y22955D1*
X26772Y22945D1*
X26792D1*
X26795Y22935D1*
X26799Y22925D1*
X26804Y22915D1*
X26811Y22905D1*
X26818Y22895D1*
X26825Y22885D1*
X26824Y22875D1*
X26822Y22865D1*
X28752Y23245D2*
Y23235D1*
X28725Y23225D1*
X28704Y23215D1*
X28689Y23205D1*
X28677Y23195D1*
X28666Y23185D1*
X28657Y23175D1*
X28650Y23165D1*
X28644Y23155D1*
X28639Y23145D1*
X28636Y23135D1*
X28634Y23125D1*
X28633Y23115D1*
X28632Y23105D1*
Y23095D1*
Y23085D1*
Y23075D1*
Y23065D1*
X28634Y23055D1*
X28636Y23045D1*
X28639Y23035D1*
X28644Y23025D1*
X28650Y23015D1*
X28657Y23005D1*
X28666Y22995D1*
X28676Y22985D1*
X28685Y22975D1*
X28695Y22965D1*
X28705Y22955D1*
X28716Y22945D1*
X28727Y22935D1*
X28739Y22925D1*
X28751Y22915D1*
X28762Y22905D1*
X28812Y23245D2*
X28827Y23235D1*
X28844Y23225D1*
X28860Y23215D1*
X28875Y23205D1*
X28887Y23195D1*
X28898Y23185D1*
X28908Y23175D1*
X28919Y23165D1*
X28928Y23155D1*
X28937Y23145D1*
X28944Y23135D1*
X28950Y23125D1*
X28954Y23115D1*
X28958Y23105D1*
X28961Y23095D1*
X28964Y23085D1*
X28970Y23075D1*
X28975Y23065D1*
X28979Y23055D1*
X28981Y23045D1*
X28979Y23035D1*
X28974Y23025D1*
X28969Y23015D1*
X28965Y23005D1*
X28962Y22995D1*
X28958Y22985D1*
X28952Y22975D1*
X28944Y22965D1*
X28934Y22955D1*
X28925Y22945D1*
X28915Y22935D1*
X28906Y22925D1*
X28898Y22915D1*
X28892Y22905D1*
X26602Y23185D2*
X26588Y23175D1*
X26572Y23165D1*
X26582Y23155D1*
X26589Y23145D1*
X26595Y23135D1*
X26601Y23125D1*
X26608Y23115D1*
X26615Y23105D1*
X26621Y23095D1*
X26628Y23085D1*
X26636Y23075D1*
X26645Y23065D1*
X26652Y23055D1*
X26658Y23045D1*
X26663Y23035D1*
X26671Y23025D1*
X26679Y23015D1*
X26686Y23005D1*
X26692Y22995D1*
X26699Y22985D1*
X26707Y22975D1*
X26716Y22965D1*
X26725Y22955D1*
X26733Y22945D1*
X26739Y22935D1*
X26745Y22925D1*
X26751Y22915D1*
X26758Y22905D1*
X26765Y22895D1*
X26770Y22885D1*
X26776Y22875D1*
X26782Y22865D1*
X26622Y23185D2*
X26625Y23175D1*
X26630Y23165D1*
X26637Y23155D1*
X26643Y23145D1*
X26648Y23135D1*
X26653Y23125D1*
X26661Y23115D1*
X26670Y23105D1*
X26681Y23095D1*
X26697Y23085D1*
X26722Y23075D1*
X26752Y23065D1*
X28722Y23195D2*
X28720Y23185D1*
X28716Y23175D1*
X28707Y23165D1*
X28699Y23155D1*
X28692Y23145D1*
X28686Y23135D1*
X28680Y23125D1*
X28672Y23115D1*
X28662Y23105D1*
X28671Y23095D1*
X28678Y23085D1*
X28680Y23075D1*
X28683Y23065D1*
X28686Y23055D1*
X28689Y23045D1*
X28694Y23035D1*
X28701Y23025D1*
X28710Y23015D1*
X28720Y23005D1*
X28732Y22995D1*
X28748Y22985D1*
X28767Y22975D1*
X28796Y22965D1*
X28839Y22955D1*
X28892Y22945D1*
X28822Y23195D2*
X28825Y23185D1*
X28835Y23175D1*
X28848Y23165D1*
X28861Y23155D1*
X28873Y23145D1*
X28884Y23135D1*
X28894Y23125D1*
X28902Y23115D1*
X28907Y23105D1*
X28913Y23095D1*
X28919Y23085D1*
X28925Y23075D1*
X28928Y23065D1*
X28930Y23055D1*
X28931Y23045D1*
Y23035D1*
X28929Y23025D1*
X28924Y23015D1*
X28918Y23005D1*
X28913Y22995D1*
X28908Y22985D1*
X28900Y22975D1*
X28874Y22965D1*
X28833Y22955D1*
X28782Y22945D1*
X29172Y23185D2*
X29165Y23175D1*
X29159Y23165D1*
X29153Y23155D1*
X29148Y23145D1*
X29142Y23135D1*
X29147Y23125D1*
X29152Y23115D1*
X29202Y23165D2*
Y23155D1*
X29200Y23145D1*
X29198Y23135D1*
X29195Y23125D1*
X29192Y23115D1*
X27672Y22825D2*
Y22815D1*
X27612Y22805D1*
X27552Y22795D1*
X27822Y22825D2*
X27838Y22815D1*
X27859Y22805D1*
X27882Y22795D1*
X27662Y22745D2*
Y22735D1*
Y22725D1*
X27572Y22715D1*
X27792Y22745D2*
X27794Y22735D1*
X27827Y22725D1*
X27879Y22715D1*
X27942Y22705D1*
Y22695D1*
X27972Y22715D2*
Y22705D1*
Y22695D1*
X7101Y13225D2*
D70*
Y13082D1*
X7230Y13067D1*
X7216Y13082D1*
X7201Y13125D1*
Y13167D1*
X7216Y13211D1*
X7244Y13239D1*
X7287Y13254D1*
X7316D1*
X7359Y13239D1*
X7388Y13211D1*
X7402Y13167D1*
Y13125D1*
X7388Y13082D1*
X7373Y13067D1*
X7345Y13053D1*
X7101Y13346D2*
X7402Y13461D1*
X7101Y13576D1*
X7452Y13668D2*
Y13941D1*
X7101Y14034D2*
X7402D1*
X7101Y14327D2*
X7402D1*
X7101Y14126D1*
X7402D1*
X7101Y17282D2*
X7402D1*
Y17411D1*
X7388Y17454D1*
X7373Y17468D1*
X7345Y17482D1*
X7302D1*
X7273Y17468D1*
X7259Y17454D1*
X7244Y17411D1*
X7230Y17454D1*
X7215Y17468D1*
X7187Y17482D1*
X7158D1*
X7130Y17468D1*
X7115Y17454D1*
X7101Y17411D1*
Y17282D1*
X7244D2*
Y17411D1*
X7402Y17805D2*
X7101Y17690D1*
X7402Y17575D1*
X7302Y17618D2*
Y17762D1*
X7101Y17998D2*
X7402D1*
X7101Y17898D2*
Y18099D1*
X5566Y9119D2*
X5552Y9148D1*
X5523Y9177D1*
X5495Y9191D1*
X5437D1*
X5408Y9177D1*
X5380Y9148D1*
X5365Y9119D1*
X5351Y9076D1*
Y9004D1*
X5365Y8961D1*
X5380Y8933D1*
X5408Y8904D1*
X5437Y8889D1*
X5495D1*
X5523Y8904D1*
X5552Y8933D1*
X5566Y8961D1*
X5659Y9133D2*
X5688Y9148D1*
X5731Y9191D1*
Y8889D1*
X9048Y8650D2*
X9020Y8636D1*
X8991Y8607D1*
X8977Y8578D1*
Y8521D1*
X8991Y8492D1*
X9020Y8463D1*
X9048Y8449D1*
X9091Y8435D1*
X9163D1*
X9206Y8449D1*
X9235Y8463D1*
X9264Y8492D1*
X9278Y8521D1*
Y8578D1*
X9264Y8607D1*
X9235Y8636D1*
X9206Y8650D1*
X9049Y8757D2*
X9034D1*
X9006Y8771D1*
X8991Y8786D1*
X8977Y8814D1*
Y8872D1*
X8991Y8900D1*
X9006Y8915D1*
X9034Y8929D1*
X9063D1*
X9092Y8915D1*
X9135Y8886D1*
X9278Y8742D1*
Y8943D1*
X24307Y9798D2*
X24292Y9827D1*
X24264Y9856D1*
X24235Y9870D1*
X24178D1*
X24149Y9856D1*
X24120Y9827D1*
X24106Y9798D1*
X24091Y9755D1*
Y9683D1*
X24106Y9640D1*
X24120Y9612D1*
X24149Y9583D1*
X24178Y9568D1*
X24235D1*
X24264Y9583D1*
X24292Y9612D1*
X24307Y9640D1*
X24428Y9870D2*
X24586D1*
X24500Y9755D1*
X24543D1*
X24571Y9741D1*
X24586Y9726D1*
X24600Y9683D1*
Y9655D1*
X24586Y9612D1*
X24557Y9583D1*
X24514Y9568D1*
X24471D1*
X24428Y9583D1*
X24414Y9597D1*
X24399Y9626D1*
X19112Y9798D2*
X19098Y9827D1*
X19069Y9856D1*
X19040Y9870D1*
X18983D1*
X18954Y9856D1*
X18926Y9827D1*
X18911Y9798D1*
X18897Y9755D1*
Y9683D1*
X18911Y9640D1*
X18926Y9612D1*
X18954Y9583D1*
X18983Y9568D1*
X19040D1*
X19069Y9583D1*
X19098Y9612D1*
X19112Y9640D1*
X19348Y9568D2*
Y9870D1*
X19205Y9669D1*
X19420D1*
X23432Y14456D2*
X23417Y14485D1*
X23389Y14514D1*
X23360Y14528D1*
X23303D1*
X23274Y14514D1*
X23245Y14485D1*
X23231Y14456D1*
X23216Y14413D1*
Y14341D1*
X23231Y14298D1*
X23245Y14270D1*
X23274Y14241D1*
X23303Y14226D1*
X23360D1*
X23389Y14241D1*
X23417Y14270D1*
X23432Y14298D1*
X23696Y14528D2*
X23553D1*
X23539Y14399D1*
X23553Y14413D1*
X23596Y14427D1*
X23639D1*
X23682Y14413D1*
X23711Y14384D1*
X23725Y14341D1*
Y14313D1*
X23711Y14270D1*
X23682Y14241D1*
X23639Y14226D1*
X23596D1*
X23553Y14241D1*
X23539Y14255D1*
X23524Y14284D1*
X18251Y14394D2*
X18237Y14422D1*
X18208Y14451D1*
X18180Y14465D1*
X18122D1*
X18094Y14451D1*
X18065Y14422D1*
X18050Y14394D1*
X18036Y14351D1*
Y14279D1*
X18050Y14236D1*
X18065Y14207D1*
X18094Y14178D1*
X18122Y14164D1*
X18180D1*
X18208Y14178D1*
X18237Y14207D1*
X18251Y14236D1*
X18516Y14422D2*
X18502Y14451D1*
X18459Y14465D1*
X18430D1*
X18387Y14451D1*
X18358Y14408D1*
X18344Y14336D1*
Y14264D1*
X18358Y14207D1*
X18387Y14178D1*
X18430Y14164D1*
X18445D1*
X18487Y14178D1*
X18516Y14207D1*
X18530Y14250D1*
Y14264D1*
X18516Y14307D1*
X18487Y14336D1*
X18445Y14350D1*
X18430D1*
X18387Y14336D1*
X18358Y14307D1*
X18344Y14264D1*
X26982Y14666D2*
X26967Y14695D1*
X26938Y14724D1*
X26910Y14738D1*
X26853D1*
X26824Y14724D1*
X26795Y14695D1*
X26781Y14666D1*
X26766Y14623D1*
Y14551D1*
X26781Y14508D1*
X26795Y14480D1*
X26824Y14451D1*
X26853Y14436D1*
X26910D1*
X26938Y14451D1*
X26967Y14480D1*
X26982Y14508D1*
X27132Y14436D2*
X27275Y14738D1*
X27074D1*
X22168Y14728D2*
X22154Y14756D1*
X22125Y14785D1*
X22097Y14799D1*
X22039D1*
X22010Y14785D1*
X21982Y14756D1*
X21967Y14728D1*
X21953Y14685D1*
Y14613D1*
X21967Y14570D1*
X21982Y14541D1*
X22010Y14513D1*
X22039Y14498D1*
X22097D1*
X22125Y14513D1*
X22154Y14541D1*
X22168Y14570D1*
X22333Y14799D2*
X22290Y14785D1*
X22275Y14756D1*
Y14727D1*
X22290Y14699D1*
X22318Y14684D1*
X22376Y14670D1*
X22419Y14656D1*
X22447Y14627D1*
X22462Y14598D1*
Y14555D1*
X22447Y14527D1*
X22433Y14512D1*
X22390Y14498D1*
X22333D1*
X22290Y14512D1*
X22275Y14527D1*
X22261Y14555D1*
Y14598D1*
X22275Y14627D1*
X22304Y14656D1*
X22347Y14670D1*
X22404Y14684D1*
X22433Y14699D1*
X22447Y14727D1*
Y14756D1*
X22433Y14785D1*
X22390Y14799D1*
X22333D1*
X8602Y23059D2*
X8416D1*
Y22758D1*
X8602D1*
X8416Y22915D2*
X8531D1*
X8695Y23059D2*
X8896Y22758D1*
Y23059D2*
X8695Y22758D1*
X9089Y23059D2*
Y22758D1*
X8988Y23059D2*
X9189D1*
X9282Y22708D2*
X9555D1*
X9647Y23059D2*
Y22758D1*
X9777D1*
X9820Y22772D1*
X9834Y22786D1*
X9848Y22815D1*
Y22858D1*
X9834Y22887D1*
X9820Y22901D1*
X9777Y22915D1*
X9820Y22930D1*
X9834Y22944D1*
X9848Y22973D1*
Y23002D1*
X9834Y23030D1*
X9820Y23045D1*
X9777Y23059D1*
X9647D1*
Y22915D2*
X9777D1*
X10171Y22758D2*
X10056Y23059D1*
X9941Y22758D1*
X9984Y22858D2*
X10128D1*
X10364Y23059D2*
Y22758D1*
X10263Y23059D2*
X10464D1*
X13564Y18996D2*
X13377D1*
Y18695D1*
Y18853D2*
X13492D1*
X13657Y18996D2*
Y18695D1*
X13829D1*
X14151D2*
X14036Y18996D1*
X13921Y18695D1*
X13965Y18796D2*
X14108D1*
X14459Y18925D2*
X14445Y18953D1*
X14416Y18982D1*
X14387Y18996D1*
X14330D1*
X14301Y18982D1*
X14273Y18953D1*
X14258Y18925D1*
X14244Y18882D1*
Y18810D1*
X14258Y18767D1*
X14273Y18738D1*
X14301Y18710D1*
X14330Y18695D1*
X14387D1*
X14416Y18710D1*
X14445Y18738D1*
X14459Y18767D1*
Y18810D1*
X14387D1*
X14753Y18953D2*
X14724Y18982D1*
X14681Y18996D1*
X14624D1*
X14581Y18982D1*
X14552Y18953D1*
Y18925D1*
X14566Y18896D1*
X14581Y18882D1*
X14609Y18867D1*
X14695Y18839D1*
X14724Y18824D1*
X14738Y18810D1*
X14753Y18781D1*
Y18738D1*
X14724Y18710D1*
X14681Y18695D1*
X14624D1*
X14581Y18710D1*
X14552Y18738D1*
X12938Y5079D2*
X13240D1*
X12938Y5280D2*
X13240D1*
X13082Y5079D2*
Y5280D1*
X13125Y5372D2*
Y5545D1*
X13096D1*
X13067Y5530D1*
X13053Y5516D1*
X13039Y5487D1*
Y5444D1*
X13053Y5416D1*
X13082Y5387D1*
X13125Y5372D1*
X13153D1*
X13196Y5387D1*
X13225Y5416D1*
X13240Y5444D1*
Y5487D1*
X13225Y5516D1*
X13196Y5545D1*
X13039Y5637D2*
X13240D1*
X13125D2*
X13082Y5652D1*
X13053Y5680D1*
X13039Y5709D1*
Y5752D1*
Y5845D2*
X13240D1*
X13096D2*
X13053Y5888D1*
X13039Y5917D1*
Y5960D1*
X13053Y5988D1*
X13096Y6003D1*
X13240D1*
X13096D2*
X13053Y6046D1*
X13039Y6075D1*
Y6117D1*
X13053Y6146D1*
X13096Y6161D1*
X13240D1*
X13125Y6254D2*
Y6426D1*
X13096D1*
X13067Y6411D1*
X13053Y6397D1*
X13039Y6368D1*
Y6325D1*
X13053Y6297D1*
X13082Y6268D1*
X13125Y6254D1*
X13153D1*
X13196Y6268D1*
X13225Y6297D1*
X13240Y6325D1*
Y6368D1*
X13225Y6397D1*
X13196Y6426D1*
X13082Y6676D2*
X13053Y6662D1*
X13039Y6619D1*
Y6576D1*
X13053Y6533D1*
X13082Y6518D1*
X13110Y6533D1*
X13125Y6561D1*
X13139Y6633D1*
X13153Y6662D1*
X13182Y6676D1*
X13196D1*
X13225Y6662D1*
X13240Y6619D1*
Y6576D1*
X13225Y6533D1*
X13196Y6518D1*
X8453Y12120D2*
Y11819D1*
X8560Y12048D2*
Y12063D1*
X8574Y12092D1*
X8589Y12106D1*
X8618Y12120D1*
X8675D1*
X8703Y12106D1*
X8718Y12092D1*
X8732Y12063D1*
Y12034D1*
X8718Y12005D1*
X8689Y11963D1*
X8546Y11819D1*
X8747D1*
X9054Y12049D2*
X9040Y12077D1*
X9011Y12106D1*
X8983Y12120D1*
X8925D1*
X8897Y12106D1*
X8868Y12077D1*
X8853Y12049D1*
X8839Y12006D1*
Y11934D1*
X8853Y11891D1*
X8868Y11862D1*
X8897Y11834D1*
X8925Y11819D1*
X8983D1*
X9011Y11834D1*
X9040Y11862D1*
X9054Y11891D1*
X9147Y11769D2*
X9420D1*
X9512Y12120D2*
Y11819D1*
X9642D1*
X9685Y11834D1*
X9699Y11848D1*
X9713Y11876D1*
Y11919D1*
X9699Y11948D1*
X9685Y11963D1*
X9642Y11977D1*
X9685Y11991D1*
X9699Y12006D1*
X9713Y12034D1*
Y12063D1*
X9699Y12092D1*
X9685Y12106D1*
X9642Y12120D1*
X9512D1*
Y11977D2*
X9642D1*
X9806Y12120D2*
Y11819D1*
X9935D1*
X9978Y11834D1*
X9993Y11848D1*
X10007Y11876D1*
Y11919D1*
X9993Y11948D1*
X9978Y11963D1*
X9935Y11977D1*
X9978Y11991D1*
X9993Y12006D1*
X10007Y12034D1*
Y12063D1*
X9993Y12092D1*
X9978Y12106D1*
X9935Y12120D1*
X9806D1*
Y11977D2*
X9935D1*
X10099Y12120D2*
Y11819D1*
X10229D1*
X10272Y11834D1*
X10286Y11848D1*
X10300Y11876D1*
Y11919D1*
X10286Y11948D1*
X10272Y11963D1*
X10229Y11977D1*
X10272Y11991D1*
X10286Y12006D1*
X10300Y12034D1*
Y12063D1*
X10286Y12092D1*
X10272Y12106D1*
X10229Y12120D1*
X10099D1*
Y11977D2*
X10229D1*
X15391Y11961D2*
Y11659D1*
X15699Y11889D2*
X15685Y11918D1*
X15656Y11947D1*
X15627Y11961D1*
X15570D1*
X15541Y11947D1*
X15513Y11918D1*
X15498Y11889D1*
X15484Y11846D1*
Y11774D1*
X15498Y11731D1*
X15513Y11703D1*
X15541Y11674D1*
X15570Y11659D1*
X15627D1*
X15656Y11674D1*
X15685Y11703D1*
X15699Y11731D1*
X15792Y11903D2*
X15821Y11918D1*
X15864Y11961D1*
Y11659D1*
X20702Y11961D2*
Y11659D1*
X21010Y11889D2*
X20995Y11918D1*
X20967Y11947D1*
X20938Y11961D1*
X20881D1*
X20852Y11947D1*
X20823Y11918D1*
X20809Y11889D1*
X20794Y11846D1*
Y11774D1*
X20809Y11731D1*
X20823Y11703D1*
X20852Y11674D1*
X20881Y11659D1*
X20938D1*
X20967Y11674D1*
X20995Y11703D1*
X21010Y11731D1*
X21117Y11889D2*
Y11903D1*
X21131Y11932D1*
X21145Y11946D1*
X21174Y11961D1*
X21232D1*
X21260Y11946D1*
X21274Y11932D1*
X21289Y11903D1*
Y11875D1*
X21274Y11846D1*
X21246Y11803D1*
X21102Y11659D1*
X21303D1*
X8167Y8058D2*
Y7757D1*
X8475Y7987D2*
X8461Y8015D1*
X8432Y8044D1*
X8403Y8058D1*
X8346D1*
X8317Y8044D1*
X8289Y8015D1*
X8274Y7987D1*
X8260Y7944D1*
Y7872D1*
X8274Y7829D1*
X8289Y7800D1*
X8317Y7771D1*
X8346Y7757D1*
X8403D1*
X8432Y7771D1*
X8461Y7800D1*
X8475Y7829D1*
X8596Y8058D2*
X8754D1*
X8668Y7943D1*
X8711D1*
X8740Y7929D1*
X8754Y7915D1*
X8768Y7872D1*
Y7843D1*
X8754Y7800D1*
X8725Y7771D1*
X8682Y7757D1*
X8639D1*
X8596Y7771D1*
X8582Y7786D1*
X8568Y7814D1*
X22375Y17776D2*
X22677D1*
X22447Y18084D2*
X22419Y18070D1*
X22390Y18041D1*
X22375Y18012D1*
Y17955D1*
X22390Y17926D1*
X22419Y17898D1*
X22447Y17883D1*
X22490Y17869D1*
X22562D1*
X22605Y17883D1*
X22634Y17898D1*
X22662Y17926D1*
X22677Y17955D1*
Y18012D1*
X22662Y18041D1*
X22634Y18070D1*
X22605Y18084D1*
X22677Y18320D2*
X22376D1*
X22576Y18177D1*
Y18392D1*
X21751Y17783D2*
X22052D1*
X21823Y18091D2*
X21794Y18077D1*
X21765Y18048D1*
X21751Y18020D1*
Y17962D1*
X21765Y17933D1*
X21794Y17905D1*
X21823Y17890D1*
X21866Y17876D1*
X21938D1*
X21980Y17890D1*
X22009Y17905D1*
X22038Y17933D1*
X22052Y17962D1*
Y18020D1*
X22038Y18048D1*
X22009Y18077D1*
X21980Y18091D1*
X21751Y18356D2*
Y18213D1*
X21880Y18198D1*
X21866Y18213D1*
X21851Y18256D1*
Y18299D1*
X21866Y18342D1*
X21895Y18371D1*
X21938Y18385D1*
X21966D1*
X22009Y18371D1*
X22038Y18342D1*
X22052Y18299D1*
Y18256D1*
X22038Y18213D1*
X22024Y18198D1*
X21995Y18184D1*
X6344Y6408D2*
Y6107D1*
X6638Y6365D2*
X6609Y6394D1*
X6566Y6408D1*
X6509D1*
X6466Y6394D1*
X6437Y6365D1*
Y6336D1*
X6451Y6308D1*
X6466Y6293D1*
X6494Y6279D1*
X6580Y6250D1*
X6609Y6236D1*
X6624Y6221D1*
X6638Y6193D1*
Y6150D1*
X6609Y6121D1*
X6566Y6107D1*
X6509D1*
X6466Y6121D1*
X6437Y6150D1*
X6817Y6408D2*
X6788Y6394D1*
X6759Y6365D1*
X6745Y6336D1*
X6730Y6293D1*
Y6221D1*
X6745Y6179D1*
X6759Y6150D1*
X6788Y6121D1*
X6817Y6107D1*
X6874D1*
X6903Y6121D1*
X6931Y6150D1*
X6946Y6179D1*
X6960Y6221D1*
Y6293D1*
X6946Y6336D1*
X6931Y6365D1*
X6903Y6394D1*
X6874Y6408D1*
X6817D1*
X7053Y6057D2*
X7325D1*
X7418Y6408D2*
Y6107D1*
X7525Y6336D2*
Y6350D1*
X7539Y6379D1*
X7554Y6394D1*
X7582Y6408D1*
X7640D1*
X7668Y6394D1*
X7683Y6379D1*
X7697Y6350D1*
Y6322D1*
X7683Y6293D1*
X7654Y6250D1*
X7510Y6107D1*
X7711D1*
X8019Y6336D2*
X8005Y6365D1*
X7976Y6394D1*
X7948Y6408D1*
X7890D1*
X7861Y6394D1*
X7833Y6365D1*
X7818Y6336D1*
X7804Y6293D1*
Y6221D1*
X7818Y6179D1*
X7833Y6150D1*
X7861Y6121D1*
X7890Y6107D1*
X7948D1*
X7976Y6121D1*
X8005Y6150D1*
X8019Y6179D1*
X4617Y23446D2*
Y23216D1*
X4603Y23173D1*
X4588Y23159D1*
X4560Y23144D1*
X4531D1*
X4502Y23159D1*
X4488Y23173D1*
X4473Y23216D1*
Y23245D1*
X4710Y23388D2*
X4738Y23403D1*
X4782Y23445D1*
Y23144D1*
X13063Y8345D2*
X13292D1*
X13335Y8331D1*
X13349Y8316D1*
X13364Y8288D1*
Y8259D1*
X13349Y8231D1*
X13335Y8216D1*
X13292Y8202D1*
X13264D1*
X13135Y8453D2*
X13120D1*
X13091Y8467D1*
X13077Y8481D1*
X13063Y8510D1*
Y8567D1*
X13077Y8596D1*
X13091Y8610D1*
X13120Y8625D1*
X13149D1*
X13178Y8610D1*
X13220Y8582D1*
X13364Y8438D1*
Y8639D1*
X12751Y7284D2*
X12981D1*
X13024Y7269D1*
X13038Y7255D1*
X13053Y7226D1*
Y7198D1*
X13038Y7169D1*
X13024Y7155D1*
X12981Y7140D1*
X12952D1*
X12751Y7405D2*
Y7563D1*
X12866Y7477D1*
Y7520D1*
X12880Y7548D1*
X12895Y7563D1*
X12938Y7577D1*
X12966D1*
X13009Y7563D1*
X13038Y7534D1*
X13053Y7491D1*
Y7448D1*
X13038Y7405D1*
X13024Y7391D1*
X12995Y7376D1*
X23117Y23121D2*
Y22892D1*
X23103Y22849D1*
X23088Y22835D1*
X23060Y22820D1*
X23031D1*
X23002Y22835D1*
X22988Y22849D1*
X22974Y22892D1*
Y22921D1*
X23210Y22770D2*
X23482D1*
X23805Y22820D2*
X23690Y23121D1*
X23575Y22820D1*
X23618Y22921D2*
X23762D1*
X23898Y23121D2*
Y22820D1*
X23998D1*
X24041Y22835D1*
X24070Y22863D1*
X24084Y22892D1*
X24099Y22935D1*
Y23007D1*
X24084Y23050D1*
X24070Y23078D1*
X24041Y23107D1*
X23998Y23121D1*
X23898D1*
X24406Y23050D2*
X24392Y23078D1*
X24363Y23107D1*
X24335Y23121D1*
X24277D1*
X24249Y23107D1*
X24220Y23078D1*
X24205Y23050D1*
X24191Y23007D1*
Y22935D1*
X24205Y22892D1*
X24220Y22863D1*
X24249Y22835D1*
X24277Y22820D1*
X24335D1*
X24363Y22835D1*
X24392Y22863D1*
X24406Y22892D1*
X14601Y24684D2*
Y24454D1*
X14586Y24411D1*
X14572Y24397D1*
X14543Y24383D1*
X14514D1*
X14486Y24397D1*
X14472Y24411D1*
X14457Y24454D1*
Y24483D1*
X14693Y24333D2*
X14966D1*
X15058Y24526D2*
X15188D1*
X15231Y24540D1*
X15245Y24555D1*
X15259Y24583D1*
Y24627D1*
X15245Y24655D1*
X15231Y24670D1*
X15188Y24684D1*
X15058D1*
Y24383D1*
X15352Y24333D2*
X15625D1*
X15918Y24641D2*
X15890Y24670D1*
X15847Y24684D1*
X15789D1*
X15746Y24670D1*
X15717Y24641D1*
Y24612D1*
X15732Y24583D1*
X15746Y24569D1*
X15775Y24555D1*
X15861Y24526D1*
X15890Y24512D1*
X15904Y24497D1*
X15918Y24469D1*
Y24426D1*
X15890Y24397D1*
X15847Y24383D1*
X15789D1*
X15746Y24397D1*
X15717Y24426D1*
X16011Y24684D2*
X16083Y24383D1*
X16154Y24684D1*
X16226Y24383D1*
X16298Y24684D1*
X19293Y23059D2*
Y22829D1*
X19279Y22786D1*
X19264Y22772D1*
X19236Y22758D1*
X19207D1*
X19178Y22772D1*
X19164Y22786D1*
X19149Y22829D1*
Y22858D1*
X19386Y22708D2*
X19658D1*
X19751Y22915D2*
X19880D1*
X19923Y22930D1*
X19937Y22944D1*
X19952Y22973D1*
Y23002D1*
X19937Y23030D1*
X19923Y23045D1*
X19880Y23059D1*
X19751D1*
Y22758D1*
X19851Y22915D2*
X19952Y22758D1*
X20231Y23059D2*
X20044D1*
Y22758D1*
X20231D1*
X20044Y22915D2*
X20159D1*
X12639Y24684D2*
Y24454D1*
X12625Y24411D1*
X12610Y24397D1*
X12581Y24383D1*
X12553D1*
X12524Y24397D1*
X12510Y24411D1*
X12495Y24454D1*
Y24483D1*
X12731Y24333D2*
X13004D1*
X13097Y24540D2*
X13226D1*
X13269Y24555D1*
X13283Y24569D1*
X13298Y24598D1*
Y24627D1*
X13283Y24655D1*
X13269Y24670D1*
X13226Y24684D1*
X13097D1*
Y24383D1*
X13197Y24540D2*
X13298Y24383D1*
X13591Y24641D2*
X13563Y24670D1*
X13520Y24684D1*
X13462D1*
X13419Y24670D1*
X13390Y24641D1*
Y24612D1*
X13405Y24583D1*
X13419Y24569D1*
X13448Y24555D1*
X13534Y24526D1*
X13563Y24512D1*
X13577Y24497D1*
X13591Y24469D1*
Y24426D1*
X13563Y24397D1*
X13520Y24383D1*
X13462D1*
X13419Y24397D1*
X13390Y24426D1*
X13784Y24684D2*
Y24383D1*
X13684Y24684D2*
X13885D1*
X8546Y15504D2*
Y15203D1*
X8718D1*
X8997Y15504D2*
X8810D1*
Y15203D1*
X8997D1*
X8810Y15361D2*
X8925D1*
X9089Y15504D2*
Y15203D1*
X9190D1*
X9233Y15217D1*
X9262Y15246D1*
X9276Y15275D1*
X9290Y15318D1*
Y15390D1*
X9276Y15433D1*
X9262Y15461D1*
X9233Y15490D1*
X9190Y15504D1*
X9089D1*
X9584Y15461D2*
X9555Y15490D1*
X9512Y15504D1*
X9455D1*
X9412Y15490D1*
X9383Y15461D1*
Y15433D1*
X9398Y15404D1*
X9412Y15390D1*
X9440Y15375D1*
X9527Y15346D1*
X9555Y15332D1*
X9570Y15318D1*
X9584Y15289D1*
Y15246D1*
X9555Y15217D1*
X9512Y15203D1*
X9455D1*
X9412Y15217D1*
X9383Y15246D1*
X9232Y17109D2*
X9246Y17081D1*
X9275Y17052D1*
X9304Y17038D1*
X9347Y17023D1*
X9419D1*
X9462Y17038D1*
X9490Y17052D1*
X9519Y17081D1*
X9533Y17109D1*
Y17167D1*
X9519Y17196D1*
X9490Y17224D1*
X9462Y17238D1*
X9419Y17253D1*
X9347D1*
X9304Y17238D1*
X9275Y17224D1*
X9246Y17196D1*
X9232Y17167D1*
Y17109D1*
X9476Y17152D2*
X9562Y17238D1*
X9534Y17575D2*
X9232Y17460D1*
X9534Y17346D1*
X9433Y17389D2*
Y17532D1*
X9290Y17668D2*
X9275Y17697D1*
X9232Y17740D1*
X9534D1*
X10795Y17045D2*
X10809Y17016D1*
X10837Y16987D1*
X10866Y16973D1*
X10909Y16959D1*
X10981D1*
X11024Y16973D1*
X11053Y16987D1*
X11082Y17016D1*
X11096Y17045D1*
Y17102D1*
X11082Y17131D1*
X11053Y17160D1*
X11024Y17174D1*
X10981Y17188D1*
X10909D1*
X10866Y17174D1*
X10837Y17160D1*
X10809Y17131D1*
X10795Y17102D1*
Y17045D1*
X11038Y17088D2*
X11125Y17174D1*
X11096Y17511D2*
X10795Y17396D1*
X11096Y17281D1*
X10996Y17324D2*
Y17468D1*
X10867Y17618D2*
X10852D1*
X10824Y17632D1*
X10809Y17647D1*
X10795Y17675D1*
Y17733D1*
X10809Y17761D1*
X10824Y17776D1*
X10852Y17790D1*
X10881D1*
X10910Y17776D1*
X10953Y17747D1*
X11096Y17603D1*
Y17804D1*
X12232Y17045D2*
X12246Y17016D1*
X12275Y16987D1*
X12304Y16973D1*
X12347Y16959D1*
X12419D1*
X12462Y16973D1*
X12490Y16987D1*
X12519Y17016D1*
X12533Y17045D1*
Y17102D1*
X12519Y17131D1*
X12490Y17160D1*
X12462Y17174D1*
X12419Y17188D1*
X12347D1*
X12304Y17174D1*
X12275Y17160D1*
X12246Y17131D1*
X12232Y17102D1*
Y17045D1*
X12476Y17088D2*
X12562Y17174D1*
X12534Y17511D2*
X12232Y17396D1*
X12534Y17281D1*
X12433Y17324D2*
Y17468D1*
X12232Y17632D2*
Y17790D1*
X12347Y17704D1*
Y17747D1*
X12361Y17776D1*
X12376Y17790D1*
X12419Y17804D1*
X12447D1*
X12490Y17790D1*
X12519Y17761D1*
X12534Y17718D1*
Y17675D1*
X12519Y17632D1*
X12505Y17618D1*
X12476Y17603D1*
X13732Y17100D2*
X13746Y17072D1*
X13775Y17043D1*
X13804Y17029D1*
X13847Y17014D1*
X13919D1*
X13962Y17029D1*
X13990Y17043D1*
X14019Y17072D1*
X14033Y17100D1*
Y17158D1*
X14019Y17186D1*
X13990Y17215D1*
X13962Y17229D1*
X13919Y17244D1*
X13847D1*
X13804Y17229D1*
X13775Y17215D1*
X13746Y17186D1*
X13732Y17158D1*
Y17100D1*
X13976Y17143D2*
X14062Y17229D1*
X14034Y17566D2*
X13732Y17451D1*
X14034Y17336D1*
X13933Y17380D2*
Y17523D1*
X14034Y17802D2*
X13732D1*
X13933Y17659D1*
Y17874D1*
X17724Y24695D2*
Y24824D1*
X17709Y24867D1*
X17695Y24881D1*
X17667Y24896D1*
X17638D1*
X17609Y24881D1*
X17595Y24867D1*
X17580Y24824D1*
Y24695D1*
X17882D1*
X17724Y24795D2*
X17882Y24896D1*
X17638Y24988D2*
X17623Y25017D1*
X17581Y25060D1*
X17882D1*
X18161Y24693D2*
Y24822D1*
X18147Y24865D1*
X18132Y24879D1*
X18104Y24894D1*
X18075D1*
X18047Y24879D1*
X18032Y24865D1*
X18018Y24822D1*
Y24693D1*
X18319D1*
X18161Y24793D2*
X18319Y24894D1*
X18090Y25001D2*
X18075D1*
X18047Y25015D1*
X18032Y25029D1*
X18018Y25058D1*
Y25116D1*
X18032Y25144D1*
X18047Y25158D1*
X18075Y25173D1*
X18104D1*
X18133Y25158D1*
X18176Y25130D1*
X18319Y24986D1*
Y25187D1*
X18599Y24693D2*
Y24822D1*
X18584Y24865D1*
X18570Y24879D1*
X18541Y24894D1*
X18513D1*
X18484Y24879D1*
X18469Y24865D1*
X18455Y24822D1*
Y24693D1*
X18757D1*
X18599Y24793D2*
X18757Y24894D1*
X18456Y25015D2*
Y25173D1*
X18570Y25087D1*
Y25130D1*
X18585Y25158D1*
X18599Y25173D1*
X18642Y25187D1*
X18670D1*
X18714Y25173D1*
X18742Y25144D1*
X18757Y25101D1*
Y25058D1*
X18742Y25015D1*
X18728Y25001D1*
X18699Y24986D1*
X20911Y13936D2*
Y14065D1*
X20897Y14108D1*
X20883Y14122D1*
X20854Y14137D1*
X20825D1*
X20797Y14122D1*
X20782Y14108D1*
X20768Y14065D1*
Y13936D1*
X21069D1*
X20911Y14036D2*
X21069Y14137D1*
Y14373D2*
X20768D1*
X20969Y14229D1*
Y14444D1*
X12269Y15506D2*
Y15635D1*
X12255Y15678D1*
X12241Y15692D1*
X12212Y15707D1*
X12183D1*
X12155Y15692D1*
X12140Y15678D1*
X12126Y15635D1*
Y15506D1*
X12427D1*
X12269Y15606D2*
X12427Y15707D1*
X12126Y15971D2*
Y15828D1*
X12255Y15814D1*
X12241Y15828D1*
X12226Y15871D1*
Y15914D1*
X12241Y15957D1*
X12269Y15986D1*
X12313Y16000D1*
X12341D1*
X12384Y15986D1*
X12413Y15957D1*
X12427Y15914D1*
Y15871D1*
X12413Y15828D1*
X12398Y15814D1*
X12370Y15799D1*
X11519Y24869D2*
Y24998D1*
X11504Y25041D1*
X11490Y25056D1*
X11462Y25070D1*
X11433D1*
X11404Y25056D1*
X11390Y25041D1*
X11375Y24998D1*
Y24869D1*
X11677D1*
X11519Y24970D2*
X11677Y25070D1*
X11419Y25335D2*
X11390Y25321D1*
X11376Y25278D1*
Y25249D1*
X11390Y25206D1*
X11433Y25177D1*
X11505Y25163D1*
X11576D1*
X11634Y25177D1*
X11663Y25206D1*
X11677Y25249D1*
Y25263D1*
X11663Y25306D1*
X11634Y25335D1*
X11591Y25349D1*
X11576D1*
X11533Y25335D1*
X11505Y25306D1*
X11490Y25263D1*
Y25249D1*
X11505Y25206D1*
X11533Y25177D1*
X11576Y25163D1*
X17005Y9241D2*
X17134D1*
X17177Y9255D1*
X17192Y9269D1*
X17206Y9298D1*
Y9327D1*
X17192Y9355D1*
X17177Y9370D1*
X17134Y9384D1*
X17005D1*
Y9083D1*
X17106Y9241D2*
X17206Y9083D1*
X17356D2*
X17500Y9384D1*
X17299D1*
X19693Y9241D2*
X19822D1*
X19865Y9255D1*
X19879Y9269D1*
X19894Y9298D1*
Y9327D1*
X19879Y9355D1*
X19865Y9370D1*
X19822Y9384D1*
X19693D1*
Y9083D1*
X19793Y9241D2*
X19894Y9083D1*
X20058Y9384D2*
X20015Y9370D1*
X20001Y9341D1*
Y9312D1*
X20015Y9284D1*
X20044Y9269D1*
X20101Y9255D1*
X20144Y9241D1*
X20173Y9212D1*
X20187Y9183D1*
Y9140D1*
X20173Y9112D1*
X20158Y9097D1*
X20115Y9083D1*
X20058D1*
X20015Y9097D1*
X20001Y9112D1*
X19986Y9140D1*
Y9183D1*
X20001Y9212D1*
X20029Y9241D1*
X20072Y9255D1*
X20130Y9269D1*
X20158Y9284D1*
X20173Y9312D1*
Y9341D1*
X20158Y9370D1*
X20115Y9384D1*
X20058D1*
X8450Y19718D2*
X8579D1*
X8622Y19733D1*
X8636Y19747D1*
X8651Y19776D1*
Y19805D1*
X8636Y19833D1*
X8622Y19848D1*
X8579Y19862D1*
X8450D1*
Y19561D1*
X8550Y19718D2*
X8651Y19561D1*
X8930Y19762D2*
X8915Y19718D1*
X8887Y19690D1*
X8844Y19675D1*
X8830D1*
X8786Y19690D1*
X8758Y19718D1*
X8743Y19762D1*
Y19776D1*
X8758Y19819D1*
X8786Y19847D1*
X8830Y19862D1*
X8844D1*
X8887Y19847D1*
X8915Y19819D1*
X8930Y19762D1*
Y19690D1*
X8915Y19618D1*
X8887Y19575D1*
X8844Y19561D1*
X8815D1*
X8772Y19575D1*
X8758Y19604D1*
X17145Y17906D2*
Y18035D1*
X17130Y18078D1*
X17116Y18092D1*
X17087Y18107D1*
X17058D1*
X17030Y18092D1*
X17015Y18078D1*
X17001Y18035D1*
Y17906D1*
X17302D1*
X17145Y18006D2*
X17302Y18107D1*
X17059Y18199D2*
X17044Y18228D1*
X17001Y18271D1*
X17302D1*
X17001Y18393D2*
Y18550D1*
X17116Y18464D1*
Y18508D1*
X17130Y18536D1*
X17145Y18550D1*
X17188Y18565D1*
X17216D1*
X17259Y18550D1*
X17288Y18522D1*
X17302Y18479D1*
Y18436D1*
X17288Y18393D1*
X17274Y18379D1*
X17245Y18364D1*
X17145Y16711D2*
Y16840D1*
X17130Y16883D1*
X17116Y16898D1*
X17087Y16912D1*
X17058D1*
X17030Y16898D1*
X17015Y16883D1*
X17001Y16840D1*
Y16711D1*
X17302D1*
X17145Y16812D2*
X17302Y16912D1*
X17059Y17005D2*
X17044Y17034D1*
X17001Y17077D1*
X17302D1*
Y17313D2*
X17001D1*
X17202Y17169D1*
Y17385D1*
X19251Y19189D2*
X19466D1*
X19509Y19204D1*
X19538Y19232D1*
X19552Y19276D1*
Y19304D1*
X19538Y19347D1*
X19509Y19376D1*
X19466Y19390D1*
X19251D1*
X19552Y19713D2*
X19251Y19598D1*
X19552Y19483D1*
X19452Y19526D2*
Y19670D1*
X19394Y19805D2*
Y19934D1*
X19380Y19977D1*
X19365Y19992D1*
X19337Y20006D1*
X19308D1*
X19280Y19992D1*
X19265Y19977D1*
X19251Y19934D1*
Y19805D1*
X19552D1*
X19394Y19906D2*
X19552Y20006D1*
X19251Y20199D2*
X19552D1*
X19251Y20099D2*
Y20300D1*
X7878Y24775D2*
D71*
Y24431D1*
X7706Y24603D2*
X8051D1*
X8783D2*
X9004D1*
X10914Y24579D2*
D70*
X10899Y24608D1*
X10871Y24636D1*
X10842Y24651D1*
X10785D1*
X10756Y24636D1*
X10727Y24608D1*
X10713Y24579D1*
X10698Y24536D1*
Y24464D1*
X10713Y24421D1*
X10727Y24392D1*
X10756Y24364D1*
X10785Y24349D1*
X10842D1*
X10871Y24364D1*
X10899Y24392D1*
X10914Y24421D1*
Y24464D1*
X10842D1*
X11207Y24651D2*
Y24349D1*
X11006Y24651D1*
Y24349D1*
X11300Y24651D2*
Y24349D1*
X11400D1*
X11444Y24364D1*
X11472Y24392D1*
X11487Y24421D1*
X11501Y24464D1*
Y24536D1*
X11487Y24579D1*
X11472Y24608D1*
X11444Y24636D1*
X11400Y24651D1*
X11300D1*
X9837D2*
Y24349D1*
X9636Y24651D1*
Y24349D1*
X10030Y24651D2*
Y24349D1*
X9930Y24651D2*
X10131D1*
X10438Y24579D2*
X10424Y24608D1*
X10395Y24636D1*
X10367Y24651D1*
X10309D1*
X10281Y24636D1*
X10252Y24608D1*
X10237Y24579D1*
X10223Y24536D1*
Y24464D1*
X10237Y24421D1*
X10252Y24392D1*
X10281Y24364D1*
X10309Y24349D1*
X10367D1*
X10395Y24364D1*
X10424Y24392D1*
X10438Y24421D1*
X12841Y15656D2*
D72*
X13056D1*
X13128Y15680D1*
X13152Y15704D1*
X13176Y15752D1*
Y15800D1*
X13152Y15847D1*
X13128Y15872D1*
X13056Y15895D1*
X12841D1*
Y15393D1*
X13009Y15656D2*
X13176Y15393D1*
X13330Y15728D2*
Y15489D1*
X13354Y15417D1*
X13402Y15393D1*
X13474D1*
X13522Y15417D1*
X13593Y15489D1*
Y15728D2*
Y15393D1*
X14011Y15656D2*
X13987Y15704D1*
X13915Y15728D1*
X13843D1*
X13772Y15704D1*
X13748Y15656D1*
X13772Y15609D1*
X13820Y15584D1*
X13939Y15560D1*
X13987Y15537D1*
X14011Y15489D1*
Y15465D1*
X13987Y15417D1*
X13915Y15393D1*
X13843D1*
X13772Y15417D1*
X13748Y15465D1*
X14428Y15656D2*
X14405Y15704D1*
X14333Y15728D1*
X14261D1*
X14189Y15704D1*
X14165Y15656D1*
X14189Y15609D1*
X14237Y15584D1*
X14357Y15560D1*
X14405Y15537D1*
X14428Y15489D1*
Y15465D1*
X14405Y15417D1*
X14333Y15393D1*
X14261D1*
X14189Y15417D1*
X14165Y15465D1*
X15069Y15895D2*
X15189Y15393D1*
X15308Y15895D1*
X15428Y15393D1*
X15547Y15895D1*
X15702D2*
Y15393D1*
Y15632D2*
X15774Y15704D1*
X15822Y15728D1*
X15894D1*
X15941Y15704D1*
X15965Y15632D1*
Y15393D1*
X16119Y15895D2*
X16143Y15872D1*
X16167Y15895D1*
X16143Y15920D1*
X16119Y15895D1*
X16143Y15728D2*
Y15393D1*
X16394Y15895D2*
Y15489D1*
X16417Y15417D1*
X16465Y15393D1*
X16513D1*
X16322Y15728D2*
X16489D1*
X16667Y15584D2*
X16954D1*
Y15632D1*
X16930Y15680D1*
X16907Y15704D1*
X16859Y15728D1*
X16787D1*
X16739Y15704D1*
X16691Y15656D1*
X16667Y15584D1*
Y15537D1*
X16691Y15465D1*
X16739Y15417D1*
X16787Y15393D1*
X16859D1*
X16907Y15417D1*
X16954Y15465D1*
X4396Y10630D2*
D71*
X4549Y10228D1*
X4702Y10630D1*
X4825Y10162D2*
X5189D1*
X5312Y10553D2*
X5351Y10573D1*
X5408Y10630D1*
Y10228D1*
X5551Y10267D2*
X5532Y10247D1*
X5551Y10228D1*
X5570Y10247D1*
X5551Y10267D1*
X5809Y10630D2*
X5751Y10611D1*
X5713Y10553D1*
X5694Y10458D1*
Y10400D1*
X5713Y10305D1*
X5751Y10247D1*
X5809Y10228D1*
X5847D1*
X5904Y10247D1*
X5942Y10305D1*
X5962Y10400D1*
Y10458D1*
X5942Y10553D1*
X5904Y10611D1*
X5847Y10630D1*
X5809D1*
X5942Y10553D2*
X5713Y10305D1*
X6104Y10267D2*
X6085Y10247D1*
X6104Y10228D1*
X6123Y10247D1*
X6104Y10267D1*
X6247Y10553D2*
X6285Y10573D1*
X6343Y10630D1*
Y10228D1*
X5537Y4452D2*
D70*
X5523Y4481D1*
X5494Y4510D1*
X5466Y4524D1*
X5408D1*
X5379Y4510D1*
X5351Y4481D1*
X5336Y4452D1*
X5322Y4409D1*
Y4337D1*
X5336Y4294D1*
X5351Y4266D1*
X5379Y4237D1*
X5408Y4223D1*
X5466D1*
X5494Y4237D1*
X5523Y4266D1*
X5537Y4294D1*
Y4337D1*
X5466D1*
X5831Y4524D2*
Y4223D1*
X5630Y4524D1*
Y4223D1*
X5924Y4524D2*
Y4223D1*
X6024D1*
X6067Y4237D1*
X6096Y4266D1*
X6110Y4294D1*
X6125Y4337D1*
Y4409D1*
X6110Y4452D1*
X6096Y4481D1*
X6067Y4510D1*
X6024Y4524D1*
X5924D1*
X4288D2*
X4446D1*
X4360Y4409D1*
X4403D1*
X4432Y4395D1*
X4446Y4380D1*
X4460Y4337D1*
Y4309D1*
X4446Y4266D1*
X4417Y4237D1*
X4374Y4223D1*
X4331D1*
X4288Y4237D1*
X4274Y4251D1*
X4259Y4280D1*
X4553Y4524D2*
X4668Y4223D1*
X4783Y4524D1*
X4904D2*
X5062D1*
X4976Y4409D1*
X5019D1*
X5047Y4395D1*
X5062Y4380D1*
X5076Y4337D1*
Y4309D1*
X5062Y4266D1*
X5033Y4237D1*
X4990Y4223D1*
X4947D1*
X4904Y4237D1*
X4890Y4251D1*
X4875Y4280D1*
X7648Y4481D2*
X7620Y4510D1*
X7577Y4524D1*
X7519D1*
X7476Y4510D1*
X7447Y4481D1*
Y4452D1*
X7462Y4423D1*
X7476Y4409D1*
X7505Y4395D1*
X7591Y4366D1*
X7620Y4352D1*
X7634Y4337D1*
X7648Y4309D1*
Y4266D1*
X7620Y4237D1*
X7577Y4223D1*
X7519D1*
X7476Y4237D1*
X7447Y4266D1*
X7956Y4452D2*
X7942Y4481D1*
X7913Y4510D1*
X7885Y4524D1*
X7827D1*
X7798Y4510D1*
X7770Y4481D1*
X7755Y4452D1*
X7741Y4409D1*
Y4337D1*
X7755Y4294D1*
X7770Y4266D1*
X7798Y4237D1*
X7827Y4223D1*
X7885D1*
X7913Y4237D1*
X7942Y4266D1*
X7956Y4294D1*
X8049Y4524D2*
Y4223D1*
X8221D1*
X6586Y4481D2*
X6557Y4510D1*
X6514Y4524D1*
X6457D1*
X6414Y4510D1*
X6385Y4481D1*
Y4452D1*
X6399Y4423D1*
X6414Y4409D1*
X6442Y4395D1*
X6528Y4366D1*
X6557Y4352D1*
X6571Y4337D1*
X6586Y4309D1*
Y4266D1*
X6557Y4237D1*
X6514Y4223D1*
X6457D1*
X6414Y4237D1*
X6385Y4266D1*
X6678Y4524D2*
Y4223D1*
X6779D1*
X6822Y4237D1*
X6851Y4266D1*
X6865Y4294D1*
X6879Y4337D1*
Y4409D1*
X6865Y4452D1*
X6851Y4481D1*
X6822Y4510D1*
X6779Y4524D1*
X6678D1*
X7202Y4223D2*
X7087Y4524D1*
X6972Y4223D1*
X7015Y4323D2*
X7159D1*
X4564Y14821D2*
Y14964D1*
X4435Y14978D1*
X4450Y14964D1*
X4464Y14921D1*
Y14878D1*
X4450Y14835D1*
X4421Y14806D1*
X4378Y14792D1*
X4350D1*
X4306Y14806D1*
X4278Y14835D1*
X4263Y14878D1*
Y14921D1*
X4278Y14964D1*
X4292Y14978D1*
X4321Y14993D1*
X4565Y14699D2*
X4263Y14584D1*
X4565Y14470D1*
X4508Y12855D2*
X4536Y12869D1*
X4565Y12898D1*
X4579Y12926D1*
Y12984D1*
X4565Y13012D1*
X4536Y13041D1*
X4508Y13055D1*
X4465Y13070D1*
X4393D1*
X4350Y13055D1*
X4321Y13041D1*
X4293Y13012D1*
X4278Y12984D1*
Y12926D1*
X4293Y12898D1*
X4321Y12869D1*
X4350Y12855D1*
X4393D1*
Y12926D1*
X4579Y12561D2*
X4278D1*
X4579Y12762D1*
X4278D1*
X4579Y12468D2*
X4278D1*
Y12368D1*
X4293Y12325D1*
X4321Y12296D1*
X4350Y12282D1*
X4393Y12267D1*
X4465D1*
X4508Y12282D1*
X4536Y12296D1*
X4565Y12325D1*
X4579Y12368D1*
Y12468D1*
X4429Y16758D2*
Y16592D1*
X4388Y18879D2*
Y18620D1*
X4259Y18749D2*
X4518D1*
X22642Y24692D2*
Y24433D1*
X22513Y24562D2*
X22771D1*
X24493Y24412D2*
X24377Y24713D1*
X24263Y24412D1*
X24306Y24512D2*
X24449D1*
X24800Y24642D2*
X24786Y24670D1*
X24757Y24699D1*
X24729Y24713D1*
X24671D1*
X24643Y24699D1*
X24614Y24670D1*
X24599Y24642D1*
X24585Y24599D1*
Y24527D1*
X24599Y24484D1*
X24614Y24455D1*
X24643Y24426D1*
X24671Y24412D1*
X24729D1*
X24757Y24426D1*
X24786Y24455D1*
X24800Y24484D1*
Y24527D1*
X24729D1*
X25094Y24713D2*
Y24412D1*
X24893Y24713D1*
Y24412D1*
X25187Y24713D2*
Y24412D1*
X25287D1*
X25330Y24426D1*
X25359Y24455D1*
X25373Y24484D1*
X25388Y24527D1*
Y24599D1*
X25373Y24642D1*
X25359Y24670D1*
X25330Y24699D1*
X25287Y24713D1*
X25187D1*
X23555Y24412D2*
X23440Y24713D1*
X23325Y24412D1*
X23368Y24512D2*
X23512D1*
X23648Y24713D2*
Y24412D1*
X23941Y24713D2*
Y24412D1*
X23740Y24713D1*
Y24412D1*
X9400Y12651D2*
X9213D1*
Y12349D1*
X9400D1*
X9213Y12507D2*
X9328D1*
X9693Y12651D2*
Y12349D1*
X9492Y12651D1*
Y12349D1*
X10401Y12593D2*
X10430Y12608D1*
X10473Y12650D1*
Y12349D1*
X13869Y4685D2*
X13897Y4700D1*
X13941Y4743D1*
Y4442D1*
X22807Y4748D2*
X22836Y4763D1*
X22879Y4806D1*
Y4504D1*
X23158Y4705D2*
X23144Y4662D1*
X23115Y4633D1*
X23072Y4619D1*
X23058D1*
X23015Y4633D1*
X22986Y4662D1*
X22972Y4705D1*
Y4720D1*
X22986Y4763D1*
X23015Y4791D1*
X23058Y4806D1*
X23072D1*
X23115Y4791D1*
X23144Y4763D1*
X23158Y4705D1*
Y4633D1*
X23144Y4562D1*
X23115Y4519D1*
X23072Y4504D1*
X23044D1*
X23000Y4519D1*
X22986Y4548D1*
X16213Y20445D2*
X16342D1*
X16385Y20459D1*
X16400Y20474D1*
X16414Y20502D1*
Y20531D1*
X16400Y20559D1*
X16385Y20574D1*
X16342Y20588D1*
X16213D1*
Y20287D1*
X16314Y20445D2*
X16414Y20287D1*
X16507Y20588D2*
X16708Y20287D1*
Y20588D2*
X16507Y20287D1*
X17314Y20588D2*
Y20287D1*
X17213Y20588D2*
X17414D1*
X17507D2*
X17708Y20287D1*
Y20588D2*
X17507Y20287D1*
X18241Y20517D2*
X18227Y20545D1*
X18198Y20574D1*
X18169Y20588D1*
X18112D1*
X18083Y20574D1*
X18055Y20545D1*
X18040Y20517D1*
X18026Y20474D1*
Y20402D1*
X18040Y20359D1*
X18055Y20330D1*
X18083Y20301D1*
X18112Y20287D1*
X18169D1*
X18198Y20301D1*
X18227Y20330D1*
X18241Y20359D1*
Y20402D1*
X18169D1*
X18534Y20588D2*
Y20287D1*
X18334Y20588D1*
Y20287D1*
X18627Y20588D2*
Y20287D1*
X18728D1*
X18771Y20301D1*
X18800Y20330D1*
X18814Y20359D1*
X18828Y20402D1*
Y20474D1*
X18814Y20517D1*
X18800Y20545D1*
X18771Y20574D1*
X18728Y20588D1*
X18627D1*
X8241Y12767D2*
X8227Y12795D1*
X8198Y12824D1*
X8169Y12838D1*
X8112D1*
X8083Y12824D1*
X8055Y12795D1*
X8040Y12767D1*
X8026Y12724D1*
Y12652D1*
X8040Y12609D1*
X8055Y12580D1*
X8083Y12551D1*
X8112Y12537D1*
X8169D1*
X8198Y12551D1*
X8227Y12580D1*
X8241Y12609D1*
Y12652D1*
X8169D1*
X8534Y12838D2*
Y12537D1*
X8334Y12838D1*
Y12537D1*
X8627Y12838D2*
Y12537D1*
X8728D1*
X8771Y12551D1*
X8800Y12580D1*
X8814Y12609D1*
X8828Y12652D1*
Y12724D1*
X8814Y12767D1*
X8800Y12795D1*
X8771Y12824D1*
X8728Y12838D1*
X8627D1*
X11353Y12579D2*
Y12593D1*
X11367Y12622D1*
X11381Y12636D1*
X11410Y12650D1*
X11468D1*
X11496Y12636D1*
X11510Y12622D1*
X11525Y12593D1*
Y12565D1*
X11510Y12536D1*
X11482Y12493D1*
X11338Y12349D1*
X11539D1*
X12367Y12650D2*
X12525D1*
X12439Y12536D1*
X12482D1*
X12510Y12521D1*
X12525Y12507D1*
X12539Y12464D1*
Y12436D1*
X12525Y12392D1*
X12496Y12364D1*
X12453Y12349D1*
X12410D1*
X12367Y12364D1*
X12353Y12378D1*
X12338Y12407D1*
X10337Y20588D2*
X10151D1*
Y20287D1*
X10337D1*
X10151Y20445D2*
X10265D1*
X10631Y20588D2*
Y20287D1*
X10430Y20588D1*
Y20287D1*
X11338Y20531D2*
X11367Y20545D1*
X11410Y20588D1*
Y20287D1*
X12290Y20516D2*
Y20531D1*
X12305Y20559D1*
X12319Y20574D1*
X12348Y20588D1*
X12405D1*
X12434Y20574D1*
X12448Y20559D1*
X12462Y20531D1*
Y20502D1*
X12448Y20473D1*
X12419Y20430D1*
X12276Y20287D1*
X12477D1*
X13367Y20588D2*
X13525D1*
X13439Y20473D1*
X13482D1*
X13510Y20459D1*
X13525Y20445D1*
X13539Y20402D1*
Y20373D1*
X13525Y20330D1*
X13496Y20301D1*
X13453Y20287D1*
X13410D1*
X13367Y20301D1*
X13353Y20316D1*
X13338Y20344D1*
X14178Y20517D2*
X14164Y20545D1*
X14135Y20574D1*
X14107Y20588D1*
X14049D1*
X14021Y20574D1*
X13992Y20545D1*
X13977Y20517D1*
X13963Y20474D1*
Y20402D1*
X13977Y20359D1*
X13992Y20330D1*
X14021Y20301D1*
X14049Y20287D1*
X14107D1*
X14135Y20301D1*
X14164Y20330D1*
X14178Y20359D1*
Y20402D1*
X14107D1*
X14472Y20588D2*
Y20287D1*
X14271Y20588D1*
Y20287D1*
X14565Y20588D2*
Y20287D1*
X14665D1*
X14708Y20301D1*
X14737Y20330D1*
X14751Y20359D1*
X14766Y20402D1*
Y20474D1*
X14751Y20517D1*
X14737Y20545D1*
X14708Y20574D1*
X14665Y20588D1*
X14565D1*
X9836Y10544D2*
X9807Y10573D1*
X9764Y10587D1*
X9707D1*
X9664Y10573D1*
X9635Y10544D1*
Y10515D1*
X9650Y10487D1*
X9664Y10472D1*
X9692Y10458D1*
X9779Y10429D1*
X9807Y10415D1*
X9822Y10400D1*
X9836Y10372D1*
Y10329D1*
X9807Y10300D1*
X9764Y10286D1*
X9707D1*
X9664Y10300D1*
X9635Y10329D1*
X9929Y10587D2*
Y10286D1*
X10029D1*
X10072Y10300D1*
X10101Y10329D1*
X10115Y10358D1*
X10130Y10400D1*
Y10472D1*
X10115Y10515D1*
X10101Y10544D1*
X10072Y10573D1*
X10029Y10587D1*
X9929D1*
X10452Y10286D2*
X10337Y10587D1*
X10222Y10286D1*
X10265Y10386D2*
X10409D1*
X10961Y10544D2*
X10933Y10573D1*
X10889Y10587D1*
X10832D1*
X10789Y10573D1*
X10760Y10544D1*
Y10515D1*
X10775Y10487D1*
X10789Y10472D1*
X10818Y10458D1*
X10904Y10429D1*
X10933Y10415D1*
X10947Y10400D1*
X10961Y10372D1*
Y10329D1*
X10933Y10300D1*
X10889Y10286D1*
X10832D1*
X10789Y10300D1*
X10760Y10329D1*
X11269Y10515D2*
X11255Y10544D1*
X11226Y10573D1*
X11197Y10587D1*
X11140D1*
X11111Y10573D1*
X11083Y10544D1*
X11068Y10515D1*
X11054Y10472D1*
Y10400D1*
X11068Y10358D1*
X11083Y10329D1*
X11111Y10300D1*
X11140Y10286D1*
X11197D1*
X11226Y10300D1*
X11255Y10329D1*
X11269Y10358D1*
X11362Y10587D2*
Y10286D1*
X11534D1*
X8725Y10515D2*
X8711Y10544D1*
X8682Y10573D1*
X8654Y10587D1*
X8596D1*
X8567Y10573D1*
X8539Y10544D1*
X8524Y10515D1*
X8510Y10472D1*
Y10400D1*
X8524Y10358D1*
X8539Y10329D1*
X8567Y10300D1*
X8596Y10286D1*
X8654D1*
X8682Y10300D1*
X8711Y10329D1*
X8725Y10358D1*
Y10400D1*
X8654D1*
X9019Y10587D2*
Y10286D1*
X8818Y10587D1*
Y10286D1*
X9111Y10587D2*
Y10286D1*
X9212D1*
X9255Y10300D1*
X9284Y10329D1*
X9298Y10358D1*
X9312Y10400D1*
Y10472D1*
X9298Y10515D1*
X9284Y10544D1*
X9255Y10573D1*
X9212Y10587D1*
X9111D1*
X12216Y25409D2*
D72*
Y24907D1*
X12383D1*
X12455Y24931D1*
X12503Y24978D1*
X12527Y25027D1*
X12551Y25098D1*
Y25218D1*
X12527Y25290D1*
X12503Y25337D1*
X12455Y25385D1*
X12383Y25409D1*
X12216D1*
X12705D2*
Y24907D1*
X12860Y25409D2*
X13051Y25170D1*
Y24907D1*
X13242Y25409D2*
X13051Y25170D1*
X13882Y25409D2*
Y25050D1*
X13906Y24978D1*
X13954Y24931D1*
X14026Y24907D1*
X14074D1*
X14146Y24931D1*
X14194Y24978D1*
X14217Y25050D1*
Y25409D1*
X14635Y25170D2*
X14611Y25218D1*
X14539Y25242D1*
X14467D1*
X14396Y25218D1*
X14372Y25170D1*
X14396Y25122D1*
X14444Y25098D1*
X14563Y25074D1*
X14611Y25050D1*
X14635Y25002D1*
Y24978D1*
X14611Y24931D1*
X14539Y24907D1*
X14467D1*
X14396Y24931D1*
X14372Y24978D1*
X14789Y25098D2*
X15076D1*
Y25146D1*
X15052Y25194D1*
X15029Y25218D1*
X14981Y25242D1*
X14909D1*
X14861Y25218D1*
X14813Y25170D1*
X14789Y25098D1*
Y25050D1*
X14813Y24978D1*
X14861Y24931D1*
X14909Y24907D1*
X14981D1*
X15029Y24931D1*
X15076Y24978D1*
X15860Y25409D2*
X15812Y25385D1*
X15765Y25337D1*
X15740Y25290D1*
X15717Y25218D1*
Y25098D1*
X15740Y25027D1*
X15765Y24978D1*
X15812Y24931D1*
X15860Y24907D1*
X15956D1*
X16003Y24931D1*
X16051Y24978D1*
X16075Y25027D1*
X16099Y25098D1*
Y25218D1*
X16075Y25290D1*
X16051Y25337D1*
X16003Y25385D1*
X15956Y25409D1*
X15860D1*
X16253Y25242D2*
Y24907D1*
Y25146D2*
X16325Y25218D1*
X16373Y25242D1*
X16445D1*
X16493Y25218D1*
X16516Y25146D1*
Y24907D1*
X16671Y25409D2*
Y24907D1*
X16850Y25242D2*
X16993Y24907D1*
X16945Y24811D1*
X16897Y24763D1*
X16850Y24739D1*
X16825D1*
X17136Y25242D2*
X16993Y24907D1*
X27526Y19136D2*
D71*
Y19346D1*
X27679Y19231D1*
Y19289D1*
X27698Y19327D1*
X27717Y19346D1*
X27775Y19365D1*
X27813D1*
X27870Y19346D1*
X27908Y19308D1*
X27927Y19250D1*
Y19193D1*
X27908Y19136D1*
X27889Y19117D1*
X27851Y19097D1*
X27526Y19489D2*
X27927Y19642D1*
X27526Y19795D1*
Y19957D2*
Y20167D1*
X27679Y20052D1*
Y20110D1*
X27698Y20148D1*
X27717Y20167D1*
X27775Y20186D1*
X27813D1*
X27870Y20167D1*
X27908Y20129D1*
X27927Y20071D1*
Y20014D1*
X27908Y19957D1*
X27889Y19938D1*
X27851Y19918D1*
X27621Y18072D2*
X27583Y18053D1*
X27545Y18014D1*
X27526Y17976D1*
Y17900D1*
X27545Y17861D1*
X27583Y17823D1*
X27621Y17804D1*
X27679Y17785D1*
X27775D1*
X27832Y17804D1*
X27870Y17823D1*
X27908Y17861D1*
X27927Y17900D1*
Y17976D1*
X27908Y18014D1*
X27870Y18053D1*
X27832Y18072D1*
X27775D1*
Y17976D1*
X27526Y18463D2*
X27927D1*
X27526Y18195D1*
X27927D1*
X27526Y18587D2*
X27927D1*
Y18721D1*
X27908Y18778D1*
X27870Y18817D1*
X27832Y18836D1*
X27775Y18855D1*
X27679D1*
X27621Y18836D1*
X27583Y18817D1*
X27545Y18778D1*
X27526Y18721D1*
Y18587D1*
X23940Y5858D2*
D70*
X23911Y5844D1*
X23883Y5815D1*
X23868Y5787D1*
Y5729D1*
X23883Y5701D1*
X23911Y5672D1*
X23940Y5658D1*
X23983Y5643D1*
X24055D1*
X24098Y5658D1*
X24127Y5672D1*
X24155Y5701D1*
X24170Y5729D1*
Y5787D1*
X24155Y5815D1*
X24127Y5844D1*
X24098Y5858D1*
X24055D1*
Y5787D1*
X23868Y6152D2*
X24170D1*
X23868Y5951D1*
X24170D1*
X23868Y6245D2*
X24170D1*
Y6345D1*
X24155Y6388D1*
X24127Y6417D1*
X24098Y6431D1*
X24055Y6446D1*
X23983D1*
X23940Y6431D1*
X23911Y6417D1*
X23883Y6388D1*
X23868Y6345D1*
Y6245D1*
X24440Y5108D2*
X24411Y5094D1*
X24383Y5065D1*
X24368Y5037D1*
Y4979D1*
X24383Y4951D1*
X24411Y4922D1*
X24440Y4908D1*
X24483Y4893D1*
X24555D1*
X24598Y4908D1*
X24627Y4922D1*
X24655Y4951D1*
X24670Y4979D1*
Y5037D1*
X24655Y5065D1*
X24627Y5094D1*
X24598Y5108D1*
X24720Y5201D2*
Y5474D1*
X24369Y5595D2*
Y5753D1*
X24483Y5667D1*
Y5710D1*
X24498Y5738D1*
X24512Y5753D1*
X24555Y5767D1*
X24584D1*
X24627Y5753D1*
X24656Y5724D1*
X24670Y5681D1*
Y5638D1*
X24656Y5595D1*
X24641Y5581D1*
X24612Y5566D1*
X24368Y5860D2*
X24670Y5975D1*
X24368Y6089D1*
X24369Y6211D2*
Y6368D1*
X24483Y6283D1*
Y6326D1*
X24498Y6354D1*
X24512Y6368D1*
X24555Y6383D1*
X24584D1*
X24627Y6368D1*
X24656Y6340D1*
X24670Y6297D1*
Y6254D1*
X24656Y6211D1*
X24641Y6197D1*
X24612Y6182D1*
X4396Y11380D2*
D71*
Y10978D1*
X4664Y11380D2*
Y10978D1*
X4396Y11189D2*
X4664D1*
X4787Y11131D2*
X5017D1*
Y11170D1*
X4998Y11208D1*
X4979Y11227D1*
X4940Y11246D1*
X4883D1*
X4845Y11227D1*
X4806Y11189D1*
X4787Y11131D1*
Y11093D1*
X4806Y11036D1*
X4845Y10998D1*
X4883Y10978D1*
X4940D1*
X4979Y10998D1*
X5017Y11036D1*
X5140Y11246D2*
Y10978D1*
Y11131D2*
X5160Y11189D1*
X5198Y11227D1*
X5236Y11246D1*
X5294D1*
X5417D2*
Y10978D1*
Y11170D2*
X5475Y11227D1*
X5513Y11246D1*
X5570D1*
X5609Y11227D1*
X5628Y11170D1*
Y10978D1*
Y11170D2*
X5685Y11227D1*
X5723Y11246D1*
X5781D1*
X5819Y11227D1*
X5838Y11170D1*
Y10978D1*
X5962Y11131D2*
X6191D1*
Y11170D1*
X6172Y11208D1*
X6153Y11227D1*
X6115Y11246D1*
X6057D1*
X6019Y11227D1*
X5981Y11189D1*
X5962Y11131D1*
Y11093D1*
X5981Y11036D1*
X6019Y10998D1*
X6057Y10978D1*
X6115D1*
X6153Y10998D1*
X6191Y11036D1*
X6525Y11189D2*
X6506Y11227D1*
X6449Y11246D1*
X6391D1*
X6334Y11227D1*
X6315Y11189D1*
X6334Y11151D1*
X6372Y11131D1*
X6468Y11112D1*
X6506Y11093D1*
X6525Y11055D1*
Y11036D1*
X6506Y10998D1*
X6449Y10978D1*
X6391D1*
X6334Y10998D1*
X6315Y11036D1*
X6649Y11179D2*
X6870D1*
X6994Y11380D2*
Y10978D1*
X7166D1*
X7223Y10998D1*
X7242Y11017D1*
X7261Y11055D1*
Y11112D1*
X7242Y11151D1*
X7223Y11170D1*
X7166Y11189D1*
X7223Y11208D1*
X7242Y11227D1*
X7261Y11265D1*
Y11304D1*
X7242Y11342D1*
X7223Y11361D1*
X7166Y11380D1*
X6994D1*
Y11189D2*
X7166D1*
X7385Y11380D2*
Y10978D1*
X7557D1*
X7615Y10998D1*
X7634Y11017D1*
X7653Y11055D1*
Y11112D1*
X7634Y11151D1*
X7615Y11170D1*
X7557Y11189D1*
X7615Y11208D1*
X7634Y11227D1*
X7653Y11265D1*
Y11304D1*
X7634Y11342D1*
X7615Y11361D1*
X7557Y11380D1*
X7385D1*
Y11189D2*
X7557D1*
X7776Y11380D2*
Y10978D1*
X7949D1*
X8006Y10998D1*
X8025Y11017D1*
X8044Y11055D1*
Y11112D1*
X8025Y11151D1*
X8006Y11170D1*
X7949Y11189D1*
X8006Y11208D1*
X8025Y11227D1*
X8044Y11265D1*
Y11304D1*
X8025Y11342D1*
X8006Y11361D1*
X7949Y11380D1*
X7776D1*
Y11189D2*
X7949D1*
M02*
